<ttFont>
<head>
    <!-- Most of this table will be recalculated by the compiler -->
    <tableVersion value="1.0"/>
    <fontRevision value="2.0"/>
    <checkSumAdjustment value="0x2d2bdf0e"/>
    <magicNumber value="0x5f0f3cf5"/>
    <flags value="00000000 00001011"/>
    <unitsPerEm value="1000"/>
    <created value="Thu Apr 17 00:01:01 2014"/>
    <modified value="Thu Apr 17 00:01:01 2014"/>
    <xMin value="-97"/>
    <yMin value="-369"/>
    <xMax value="1340"/>
    <yMax value="1118"/>
    <macStyle value="00000000 00000000"/>
    <lowestRecPPEM value="8"/>
    <fontDirectionHint value="2"/>
    <indexToLocFormat value="0"/>
    <glyphDataFormat value="0"/>
  </head>
    <TTGlyph name=".notdef" xMin="33" yMin="0" xMax="298" yMax="666">
      <contour>
        <pt x="33" y="0" on="1"/>
        <pt x="33" y="666" on="1"/>
        <pt x="298" y="666" on="1"/>
        <pt x="298" y="0" on="1"/>
      </contour>
      <contour>
        <pt x="66" y="33" on="1"/>
        <pt x="265" y="33" on="1"/>
        <pt x="265" y="633" on="1"/>
        <pt x="66" y="633" on="1"/>
      </contour>
    </TTGlyph>
    <TTGlyph name="A" xMin="42" yMin="0" xMax="622" yMax="697">
      <contour>
        <pt x="186" y="192" on="1"/>
        <pt x="484" y="192" on="1"/>
        <pt x="335" y="600" on="1"/>
      </contour>
      <contour>
        <pt x="42" y="0" on="1"/>
        <pt x="307" y="697" on="1"/>
        <pt x="359" y="697" on="1"/>
        <pt x="622" y="0" on="1"/>
        <pt x="553" y="0" on="1"/>
        <pt x="501" y="138" on="1"/>
        <pt x="168" y="138" on="1"/>
        <pt x="116" y="0" on="1"/>
      </contour>
    </TTGlyph>
    <TTGlyph name="AE" xMin="52" yMin="0" xMax="717" yMax="697">
      <contour>
        <pt x="421" y="646" on="1"/>
        <pt x="272" y="646" on="1"/>
        <pt x="167" y="186" on="1"/>
        <pt x="421" y="186" on="1"/>
      </contour>
      <contour>
        <pt x="421" y="138" on="1"/>
        <pt x="155" y="138" on="1"/>
        <pt x="121" y="0" on="1"/>
        <pt x="52" y="2" on="1"/>
        <pt x="227" y="697" on="1"/>
        <pt x="713" y="697" on="1"/>
        <pt x="713" y="646" on="1"/>
        <pt x="488" y="646" on="1"/>
        <pt x="488" y="385" on="1"/>
        <pt x="686" y="385" on="1"/>
        <pt x="686" y="330" on="1"/>
        <pt x="488" y="330" on="1"/>
        <pt x="488" y="51" on="1"/>
        <pt x="717" y="51" on="1"/>
        <pt x="717" y="0" on="1"/>
        <pt x="421" y="0" on="1"/>
      </contour>
    </TTGlyph>
    <TTGlyph name="AEacute" xMin="52" yMin="0" xMax="717" yMax="958">
      <component glyphName="acute" x="325" y="184" flags="0x1004"/>
      <component glyphName="AE" x="0" y="0" flags="0x1004"/>
    </TTGlyph>
    <TTGlyph name="Aacute" xMin="42" yMin="0" xMax="622" yMax="958">
      <component glyphName="acute" x="182" y="184" flags="0x1004"/>
      <component glyphName="A" x="0" y="0" flags="0x1004"/>
    </TTGlyph>
    <TTGlyph name="Abreve" xMin="42" yMin="0" xMax="622" yMax="847">
      <component glyphName="breve" x="200" y="184" flags="0x1004"/>
      <component glyphName="A" x="0" y="0" flags="0x1004"/>
    </TTGlyph>
    <TTGlyph name="Acircumflex" xMin="42" yMin="0" xMax="622" yMax="893">
      <component glyphName="circumflex" x="209" y="184" flags="0x1004"/>
      <component glyphName="A" x="0" y="0" flags="0x1004"/>
    </TTGlyph>
    <TTGlyph name="Adieresis" xMin="42" yMin="0" xMax="622" yMax="854">
      <component glyphName="dieresis" x="75" y="184" flags="0x1004"/>
      <component glyphName="A" x="0" y="0" flags="0x1004"/>
    </TTGlyph>
    <TTGlyph name="Agrave" xMin="42" yMin="0" xMax="622" yMax="958">
      <component glyphName="grave" x="182" y="184" flags="0x1004"/>
      <component glyphName="A" x="0" y="0" flags="0x1004"/>
    </TTGlyph>
    <TTGlyph name="Amacron" xMin="42" yMin="0" xMax="622" yMax="856">
      <component glyphName="macron" x="205" y="184" flags="0x1004"/>
      <component glyphName="A" x="0" y="0" flags="0x1004"/>
    </TTGlyph>
    <TTGlyph name="Aogonek" xMin="42" yMin="-223" xMax="650" yMax="697">
      <component glyphName="ogonek" x="452" y="0" flags="0x1004"/>
      <component glyphName="A" x="0" y="0" flags="0x1004"/>
    </TTGlyph>
    <TTGlyph name="Aring" xMin="42" yMin="0" xMax="622" yMax="895">
      <component glyphName="ring" x="218" y="184" flags="0x1004"/>
      <component glyphName="A" x="0" y="0" flags="0x1004"/>
    </TTGlyph>
    <TTGlyph name="Aringacute" xMin="42" yMin="0" xMax="622" yMax="1118">
      <component glyphName="acute" x="182" y="344" flags="0x1004"/>
      <component glyphName="Aring" x="0" y="0" flags="0x1004"/>
    </TTGlyph>
    <TTGlyph name="Atilde" xMin="42" yMin="0" xMax="622" yMax="877">
      <component glyphName="tilde" x="244" y="184" flags="0x1004"/>
      <component glyphName="A" x="0" y="0" flags="0x1004"/>
    </TTGlyph>
    <TTGlyph name="B" xMin="108" yMin="0" xMax="609" yMax="697">
      <contour>
        <pt x="179" y="393" on="1"/>
        <pt x="379" y="393" on="1"/>
        <pt x="505" y="393" on="0"/>
        <pt x="505" y="500" on="1"/>
        <pt x="505" y="586" on="0"/>
        <pt x="435" y="639" on="0"/>
        <pt x="333" y="639" on="1"/>
        <pt x="179" y="639" on="1"/>
      </contour>
      <contour>
        <pt x="179" y="56" on="1"/>
        <pt x="369" y="56" on="1"/>
        <pt x="457" y="56" on="0"/>
        <pt x="541" y="117" on="0"/>
        <pt x="541" y="205" on="1"/>
        <pt x="541" y="258" on="0"/>
        <pt x="471" y="338" on="0"/>
        <pt x="398" y="338" on="1"/>
        <pt x="179" y="338" on="1"/>
      </contour>
      <contour>
        <pt x="108" y="0" on="1"/>
        <pt x="108" y="697" on="1"/>
        <pt x="351" y="697" on="1"/>
        <pt x="491" y="697" on="0"/>
        <pt x="534" y="643" on="1"/>
        <pt x="557" y="615" on="0"/>
        <pt x="573" y="550" on="0"/>
        <pt x="573" y="501" on="1"/>
        <pt x="569" y="403" on="0"/>
        <pt x="486" y="368" on="1"/>
        <pt x="541" y="352" on="0"/>
        <pt x="609" y="255" on="0"/>
        <pt x="609" y="190" on="1"/>
        <pt x="608" y="90" on="0"/>
        <pt x="491" y="0" on="0"/>
        <pt x="364" y="0" on="1"/>
      </contour>
    </TTGlyph>
    <TTGlyph name="C" xMin="93" yMin="-10" xMax="614" yMax="707">
      <contour>
        <pt x="364" y="-10" on="1"/>
        <pt x="201" y="-10" on="0"/>
        <pt x="144" y="58" on="1"/>
        <pt x="116" y="93" on="0"/>
        <pt x="93" y="178" on="0"/>
        <pt x="93" y="238" on="1"/>
        <pt x="93" y="448" on="1"/>
        <pt x="93" y="510" on="0"/>
        <pt x="115" y="597" on="0"/>
        <pt x="143" y="634" on="1"/>
        <pt x="199" y="707" on="0"/>
        <pt x="362" y="707" on="1"/>
        <pt x="505" y="707" on="0"/>
        <pt x="614" y="615" on="0"/>
        <pt x="614" y="501" on="1"/>
        <pt x="614" y="496" on="1"/>
        <pt x="550" y="493" on="1"/>
        <pt x="550" y="498" on="1"/>
        <pt x="550" y="575" on="0"/>
        <pt x="524" y="614" on="1"/>
        <pt x="512" y="630" on="0"/>
        <pt x="445" y="649" on="0"/>
        <pt x="362" y="649" on="1"/>
        <pt x="258" y="649" on="0"/>
        <pt x="164" y="569" on="0"/>
        <pt x="164" y="467" on="1"/>
        <pt x="164" y="223" on="1"/>
        <pt x="164" y="122" on="0"/>
        <pt x="260" y="49" on="0"/>
        <pt x="367" y="49" on="1"/>
        <pt x="412" y="49" on="0"/>
        <pt x="437" y="51" on="1"/>
        <pt x="503" y="56" on="0"/>
        <pt x="524" y="85" on="1"/>
        <pt x="550" y="122" on="0"/>
        <pt x="550" y="196" on="1"/>
        <pt x="550" y="202" on="1"/>
        <pt x="614" y="202" on="1"/>
        <pt x="614" y="197" on="1"/>
        <pt x="614" y="140" on="0"/>
        <pt x="594" y="68" on="0"/>
        <pt x="540" y="13" on="0"/>
        <pt x="442" y="-10" on="0"/>
      </contour>
    </TTGlyph>
    <TTGlyph name="Cacute" xMin="93" yMin="-10" xMax="614" yMax="958">
      <component glyphName="acute" x="218" y="184" flags="0x1004"/>
      <component glyphName="C" x="0" y="0" flags="0x1004"/>
    </TTGlyph>
    <TTGlyph name="Ccaron" xMin="93" yMin="-10" xMax="614" yMax="885">
      <component glyphName="caron" x="239" y="184" flags="0x1004"/>
      <component glyphName="C" x="0" y="0" flags="0x1004"/>
    </TTGlyph>
    <TTGlyph name="Ccedilla" xMin="93" yMin="-230" xMax="614" yMax="707">
      <component glyphName="cedilla" x="284" y="0" flags="0x1004"/>
      <component glyphName="C" x="0" y="0" flags="0x1004"/>
    </TTGlyph>
    <TTGlyph name="Ccircumflex" xMin="93" yMin="-10" xMax="614" yMax="893">
      <component glyphName="circumflex" x="245" y="184" flags="0x1004"/>
      <component glyphName="C" x="0" y="0" flags="0x1004"/>
    </TTGlyph>
    <TTGlyph name="Cdotaccent" xMin="93" yMin="-10" xMax="614" yMax="879">
      <component glyphName="dotaccent" x="247" y="184" flags="0x1004"/>
      <component glyphName="C" x="0" y="0" flags="0x1004"/>
    </TTGlyph>
    <TTGlyph name="D" xMin="108" yMin="0" xMax="638" yMax="697">
      <contour>
        <pt x="108" y="0" on="1"/>
        <pt x="108" y="697" on="1"/>
        <pt x="369" y="697" on="1"/>
        <pt x="510" y="697" on="0"/>
        <pt x="638" y="574" on="0"/>
        <pt x="638" y="468" on="1"/>
        <pt x="638" y="468" on="0"/>
        <pt x="638" y="228" on="1"/>
        <pt x="638" y="111" on="0"/>
        <pt x="504" y="0" on="0"/>
        <pt x="371" y="0" on="1"/>
      </contour>
      <contour>
        <pt x="179" y="49" on="1"/>
        <pt x="362" y="49" on="1"/>
        <pt x="434" y="49" on="0"/>
        <pt x="478" y="64" on="1"/>
        <pt x="568" y="95" on="0"/>
        <pt x="568" y="223" on="1"/>
        <pt x="568" y="466" on="1"/>
        <pt x="568" y="581" on="0"/>
        <pt x="502" y="618" on="1"/>
        <pt x="470" y="635" on="0"/>
        <pt x="406" y="647" on="0"/>
        <pt x="362" y="647" on="1"/>
        <pt x="179" y="647" on="1"/>
      </contour>
    </TTGlyph>
    <TTGlyph name="Dcaron" xMin="108" yMin="0" xMax="638" yMax="885">
      <component glyphName="caron" x="204" y="184" flags="0x1004"/>
      <component glyphName="D" x="0" y="0" flags="0x1004"/>
    </TTGlyph>
    <TTGlyph name="Dcroat" xMin="17" yMin="0" xMax="638" yMax="697">
      <contour>
        <pt x="108" y="0" on="1"/>
        <pt x="108" y="344" on="1"/>
        <pt x="17" y="344" on="1"/>
        <pt x="17" y="394" on="1"/>
        <pt x="108" y="394" on="1"/>
        <pt x="108" y="697" on="1"/>
        <pt x="369" y="697" on="1"/>
        <pt x="510" y="697" on="0"/>
        <pt x="638" y="574" on="0"/>
        <pt x="638" y="468" on="1"/>
        <pt x="638" y="228" on="1"/>
        <pt x="638" y="111" on="0"/>
        <pt x="504" y="0" on="0"/>
        <pt x="371" y="0" on="1"/>
      </contour>
      <contour>
        <pt x="179" y="394" on="1"/>
        <pt x="317" y="394" on="1"/>
        <pt x="317" y="344" on="1"/>
        <pt x="179" y="344" on="1"/>
        <pt x="179" y="49" on="1"/>
        <pt x="362" y="49" on="1"/>
        <pt x="434" y="49" on="0"/>
        <pt x="478" y="64" on="1"/>
        <pt x="568" y="95" on="0"/>
        <pt x="568" y="223" on="1"/>
        <pt x="568" y="466" on="1"/>
        <pt x="568" y="581" on="0"/>
        <pt x="502" y="618" on="1"/>
        <pt x="470" y="635" on="0"/>
        <pt x="406" y="647" on="0"/>
        <pt x="362" y="647" on="1"/>
        <pt x="179" y="647" on="1"/>
      </contour>
    </TTGlyph>
    <TTGlyph name="E" xMin="108" yMin="0" xMax="537" yMax="697">
      <contour>
        <pt x="108" y="0" on="1"/>
        <pt x="108" y="697" on="1"/>
        <pt x="530" y="697" on="1"/>
        <pt x="530" y="646" on="1"/>
        <pt x="179" y="646" on="1"/>
        <pt x="179" y="389" on="1"/>
        <pt x="489" y="389" on="1"/>
        <pt x="489" y="334" on="1"/>
        <pt x="179" y="334" on="1"/>
        <pt x="179" y="52" on="1"/>
        <pt x="537" y="52" on="1"/>
        <pt x="537" y="0" on="1"/>
      </contour>
    </TTGlyph>
    <TTGlyph name="Eacute" xMin="108" yMin="0" xMax="537" yMax="958">
      <component glyphName="acute" x="186" y="184" flags="0x1004"/>
      <component glyphName="E" x="0" y="0" flags="0x1004"/>
    </TTGlyph>
    <TTGlyph name="Ebreve" xMin="108" yMin="0" xMax="537" yMax="847">
      <component glyphName="breve" x="205" y="184" flags="0x1004"/>
      <component glyphName="E" x="0" y="0" flags="0x1004"/>
    </TTGlyph>
    <TTGlyph name="Ecaron" xMin="108" yMin="0" xMax="537" yMax="885">
      <component glyphName="caron" x="208" y="184" flags="0x1004"/>
      <component glyphName="E" x="0" y="0" flags="0x1004"/>
    </TTGlyph>
    <TTGlyph name="Ecircumflex" xMin="108" yMin="0" xMax="537" yMax="893">
      <component glyphName="circumflex" x="213" y="184" flags="0x1004"/>
      <component glyphName="E" x="0" y="0" flags="0x1004"/>
    </TTGlyph>
    <TTGlyph name="Edieresis" xMin="108" yMin="0" xMax="537" yMax="854">
      <component glyphName="dieresis" x="79" y="184" flags="0x1004"/>
      <component glyphName="E" x="0" y="0" flags="0x1004"/>
    </TTGlyph>
    <TTGlyph name="Edotaccent" xMin="108" yMin="0" xMax="537" yMax="879">
      <component glyphName="dotaccent" x="215" y="184" flags="0x1004"/>
      <component glyphName="E" x="0" y="0" flags="0x1004"/>
    </TTGlyph>
    <TTGlyph name="Egrave" xMin="108" yMin="0" xMax="537" yMax="958">
      <component glyphName="grave" x="187" y="184" flags="0x1004"/>
      <component glyphName="E" x="0" y="0" flags="0x1004"/>
    </TTGlyph>
    <TTGlyph name="Emacron" xMin="108" yMin="0" xMax="537" yMax="856">
      <component glyphName="macron" x="209" y="184" flags="0x1004"/>
      <component glyphName="E" x="0" y="0" flags="0x1004"/>
    </TTGlyph>
    <TTGlyph name="Eng" xMin="110" yMin="-180" xMax="646" yMax="697">
      <contour>
        <pt x="646" y="48" on="1"/>
        <pt x="646" y="-57" on="0"/>
        <pt x="588" y="-113" on="1"/>
        <pt x="520" y="-180" on="0"/>
        <pt x="377" y="-180" on="1"/>
        <pt x="364" y="-125" on="1"/>
        <pt x="401" y="-122" on="0"/>
        <pt x="440" y="-116" on="1"/>
        <pt x="464" y="-113" on="0"/>
        <pt x="486" y="-106" on="0"/>
        <pt x="522" y="-92" on="0"/>
        <pt x="539" y="-74" on="0"/>
        <pt x="562" y="-48" on="0"/>
        <pt x="579" y="14" on="0"/>
        <pt x="579" y="56" on="1"/>
        <pt x="579" y="104" on="1"/>
        <pt x="170" y="571" on="1"/>
        <pt x="170" y="0" on="1"/>
        <pt x="110" y="0" on="1"/>
        <pt x="110" y="697" on="1"/>
        <pt x="164" y="697" on="1"/>
        <pt x="585" y="203" on="1"/>
        <pt x="585" y="697" on="1"/>
        <pt x="646" y="697" on="1"/>
      </contour>
    </TTGlyph>
    <TTGlyph name="Eogonek" xMin="108" yMin="-223" xMax="537" yMax="697">
      <component glyphName="ogonek" x="243" y="0" flags="0x1004"/>
      <component glyphName="E" x="0" y="0" flags="0x1004"/>
    </TTGlyph>
    <TTGlyph name="Eth" xMin="17" yMin="0" xMax="638" yMax="697">
      <component glyphName="hyphen" x="-79" y="90" flags="0x1004"/>
      <component glyphName="D" x="0" y="0" flags="0x1004"/>
    </TTGlyph>
    <TTGlyph name="Euro" xMin="-13" yMin="-10" xMax="614" yMax="707">
      <contour>
        <pt x="350" y="252" on="1"/>
        <pt x="-13" y="252" on="1"/>
        <pt x="-13" y="303" on="1"/>
        <pt x="350" y="303" on="1"/>
      </contour>
      <contour>
        <pt x="350" y="409" on="1"/>
        <pt x="-13" y="409" on="1"/>
        <pt x="-13" y="460" on="1"/>
        <pt x="350" y="460" on="1"/>
      </contour>
      <contour>
        <pt x="364" y="-10" on="1"/>
        <pt x="442" y="-10" on="0"/>
        <pt x="540" y="13" on="0"/>
        <pt x="594" y="68" on="0"/>
        <pt x="614" y="140" on="0"/>
        <pt x="614" y="197" on="1"/>
        <pt x="614" y="202" on="1"/>
        <pt x="550" y="202" on="1"/>
        <pt x="550" y="196" on="1"/>
        <pt x="550" y="155" on="0"/>
        <pt x="535" y="101" on="0"/>
        <pt x="512" y="69" on="0"/>
        <pt x="462" y="53" on="0"/>
        <pt x="412" y="49" on="0"/>
        <pt x="367" y="49" on="1"/>
        <pt x="260" y="49" on="0"/>
        <pt x="164" y="122" on="0"/>
        <pt x="164" y="223" on="1"/>
        <pt x="164" y="467" on="1"/>
        <pt x="164" y="569" on="0"/>
        <pt x="258" y="649" on="0"/>
        <pt x="362" y="649" on="1"/>
        <pt x="410" y="649" on="0"/>
        <pt x="459" y="645" on="0"/>
        <pt x="512" y="630" on="0"/>
        <pt x="535" y="597" on="0"/>
        <pt x="550" y="541" on="0"/>
        <pt x="550" y="498" on="1"/>
        <pt x="550" y="493" on="1"/>
        <pt x="614" y="496" on="1"/>
        <pt x="614" y="501" on="1"/>
        <pt x="614" y="615" on="0"/>
        <pt x="505" y="707" on="0"/>
        <pt x="362" y="707" on="1"/>
        <pt x="280" y="707" on="0"/>
        <pt x="171" y="670" on="0"/>
        <pt x="115" y="597" on="0"/>
        <pt x="93" y="510" on="0"/>
        <pt x="93" y="448" on="1"/>
        <pt x="93" y="238" on="1"/>
        <pt x="93" y="178" on="0"/>
        <pt x="116" y="93" on="0"/>
        <pt x="173" y="24" on="0"/>
        <pt x="282" y="-10" on="0"/>
      </contour>
    </TTGlyph>
    <TTGlyph name="F" xMin="108" yMin="0" xMax="488" yMax="697">
      <contour>
        <pt x="108" y="0" on="1"/>
        <pt x="108" y="697" on="1"/>
        <pt x="488" y="697" on="1"/>
        <pt x="488" y="646" on="1"/>
        <pt x="178" y="646" on="1"/>
        <pt x="178" y="388" on="1"/>
        <pt x="472" y="388" on="1"/>
        <pt x="472" y="333" on="1"/>
        <pt x="178" y="333" on="1"/>
        <pt x="178" y="0" on="1"/>
      </contour>
    </TTGlyph>
    <TTGlyph name="G" xMin="96" yMin="-10" xMax="645" yMax="707">
      <contour>
        <pt x="375" y="-10" on="1"/>
        <pt x="217" y="-10" on="0"/>
        <pt x="96" y="115" on="0"/>
        <pt x="96" y="238" on="1"/>
        <pt x="96" y="448" on="1"/>
        <pt x="96" y="574" on="0"/>
        <pt x="218" y="707" on="0"/>
        <pt x="523" y="707" on="0"/>
        <pt x="629" y="616" on="0"/>
        <pt x="632" y="520" on="1"/>
        <pt x="632" y="505" on="1"/>
        <pt x="574" y="500" on="1"/>
        <pt x="574" y="511" on="1"/>
        <pt x="572" y="560" on="0"/>
        <pt x="552" y="615" on="0"/>
        <pt x="498" y="643" on="0"/>
        <pt x="437" y="649" on="0"/>
        <pt x="375" y="649" on="1"/>
        <pt x="269" y="649" on="0"/>
        <pt x="167" y="568" on="0"/>
        <pt x="167" y="467" on="1"/>
        <pt x="167" y="223" on="1"/>
        <pt x="167" y="122" on="0"/>
        <pt x="267" y="49" on="0"/>
        <pt x="481" y="49" on="0"/>
        <pt x="565" y="120" on="0"/>
        <pt x="565" y="223" on="1"/>
        <pt x="565" y="295" on="1"/>
        <pt x="384" y="295" on="1"/>
        <pt x="384" y="353" on="1"/>
        <pt x="645" y="353" on="1"/>
        <pt x="645" y="0" on="1"/>
        <pt x="604" y="0" on="1"/>
        <pt x="599" y="143" on="1"/>
        <pt x="579" y="-10" on="0"/>
      </contour>
    </TTGlyph>
    <TTGlyph name="Gbreve" xMin="96" yMin="-10" xMax="645" yMax="847">
      <component glyphName="breve" x="235" y="184" flags="0x1004"/>
      <component glyphName="G" x="0" y="0" flags="0x1004"/>
    </TTGlyph>
    <TTGlyph name="Gcaron" xMin="96" yMin="-10" xMax="645" yMax="885">
      <component glyphName="caron" x="238" y="184" flags="0x1004"/>
      <component glyphName="G" x="0" y="0" flags="0x1004"/>
    </TTGlyph>
    <TTGlyph name="Gcircumflex" xMin="96" yMin="-10" xMax="645" yMax="893">
      <component glyphName="circumflex" x="244" y="184" flags="0x1004"/>
      <component glyphName="G" x="0" y="0" flags="0x1004"/>
    </TTGlyph>
    <TTGlyph name="Gdotaccent" xMin="96" yMin="-10" xMax="645" yMax="879">
      <component glyphName="dotaccent" x="245" y="184" flags="0x1004"/>
      <component glyphName="G" x="0" y="0" flags="0x1004"/>
    </TTGlyph>
    <TTGlyph name="H" xMin="104" yMin="0" xMax="602" yMax="697">
      <contour>
        <pt x="104" y="0" on="1"/>
        <pt x="104" y="697" on="1"/>
        <pt x="173" y="697" on="1"/>
        <pt x="173" y="382" on="1"/>
        <pt x="532" y="382" on="1"/>
        <pt x="532" y="697" on="1"/>
        <pt x="602" y="697" on="1"/>
        <pt x="602" y="0" on="1"/>
        <pt x="532" y="0" on="1"/>
        <pt x="532" y="334" on="1"/>
        <pt x="173" y="334" on="1"/>
        <pt x="173" y="0" on="1"/>
      </contour>
    </TTGlyph>
    <TTGlyph name="Hbar" xMin="63" yMin="0" xMax="636" yMax="697">
      <contour>
        <pt x="173" y="514" on="1"/>
        <pt x="173" y="382" on="1"/>
        <pt x="532" y="382" on="1"/>
        <pt x="532" y="514" on="1"/>
      </contour>
      <contour>
        <pt x="104" y="0" on="1"/>
        <pt x="104" y="514" on="1"/>
        <pt x="63" y="514" on="1"/>
        <pt x="63" y="553" on="1"/>
        <pt x="104" y="553" on="1"/>
        <pt x="104" y="697" on="1"/>
        <pt x="173" y="697" on="1"/>
        <pt x="173" y="553" on="1"/>
        <pt x="532" y="553" on="1"/>
        <pt x="532" y="697" on="1"/>
        <pt x="602" y="697" on="1"/>
        <pt x="602" y="553" on="1"/>
        <pt x="636" y="553" on="1"/>
        <pt x="636" y="514" on="1"/>
        <pt x="602" y="514" on="1"/>
        <pt x="602" y="0" on="1"/>
        <pt x="532" y="0" on="1"/>
        <pt x="532" y="334" on="1"/>
        <pt x="173" y="334" on="1"/>
        <pt x="173" y="0" on="1"/>
      </contour>
    </TTGlyph>
    <TTGlyph name="Hcircumflex" xMin="104" yMin="0" xMax="602" yMax="893">
      <component glyphName="circumflex" x="219" y="184" flags="0x1004"/>
      <component glyphName="H" x="0" y="0" flags="0x1004"/>
    </TTGlyph>
    <TTGlyph name="I" xMin="102" yMin="0" xMax="446" yMax="697">
      <contour>
        <pt x="102" y="0" on="1"/>
        <pt x="102" y="52" on="1"/>
        <pt x="239" y="52" on="1"/>
        <pt x="239" y="646" on="1"/>
        <pt x="102" y="646" on="1"/>
        <pt x="102" y="697" on="1"/>
        <pt x="446" y="697" on="1"/>
        <pt x="446" y="646" on="1"/>
        <pt x="309" y="646" on="1"/>
        <pt x="309" y="52" on="1"/>
        <pt x="446" y="52" on="1"/>
        <pt x="446" y="0" on="1"/>
      </contour>
    </TTGlyph>
    <TTGlyph name="IJ" xMin="102" yMin="-6" xMax="1015" yMax="697">
      <component glyphName="J" x="547" y="0" flags="0x1004"/>
      <component glyphName="I" x="0" y="0" flags="0x1004"/>
    </TTGlyph>
    <TTGlyph name="Iacute" xMin="102" yMin="0" xMax="446" yMax="958">
      <component glyphName="acute" x="120" y="184" flags="0x1004"/>
      <component glyphName="I" x="0" y="0" flags="0x1004"/>
    </TTGlyph>
    <TTGlyph name="Ibreve" xMin="102" yMin="0" xMax="446" yMax="847">
      <component glyphName="breve" x="139" y="184" flags="0x1004"/>
      <component glyphName="I" x="0" y="0" flags="0x1004"/>
    </TTGlyph>
    <TTGlyph name="Icircumflex" xMin="102" yMin="0" xMax="446" yMax="893">
      <component glyphName="circumflex" x="147" y="184" flags="0x1004"/>
      <component glyphName="I" x="0" y="0" flags="0x1004"/>
    </TTGlyph>
    <TTGlyph name="Idieresis" xMin="102" yMin="0" xMax="446" yMax="854">
      <component glyphName="dieresis" x="13" y="184" flags="0x1004"/>
      <component glyphName="I" x="0" y="0" flags="0x1004"/>
    </TTGlyph>
    <TTGlyph name="Idotaccent" xMin="102" yMin="0" xMax="446" yMax="879">
      <component glyphName="dotaccent" x="149" y="184" flags="0x1004"/>
      <component glyphName="I" x="0" y="0" flags="0x1004"/>
    </TTGlyph>
    <TTGlyph name="Igrave" xMin="102" yMin="0" xMax="446" yMax="958">
      <component glyphName="grave" x="121" y="184" flags="0x1004"/>
      <component glyphName="I" x="0" y="0" flags="0x1004"/>
    </TTGlyph>
    <TTGlyph name="Imacron" xMin="102" yMin="0" xMax="446" yMax="856">
      <component glyphName="macron" x="144" y="184" flags="0x1004"/>
      <component glyphName="I" x="0" y="0" flags="0x1004"/>
    </TTGlyph>
    <TTGlyph name="Iogonek" xMin="102" yMin="-223" xMax="446" yMax="697">
      <component glyphName="ogonek" x="156" y="0" flags="0x1004"/>
      <component glyphName="I" x="0" y="0" flags="0x1004"/>
    </TTGlyph>
    <TTGlyph name="Itilde" xMin="102" yMin="0" xMax="446" yMax="877">
      <component glyphName="tilde" x="182" y="184" flags="0x1004"/>
      <component glyphName="I" x="0" y="0" flags="0x1004"/>
    </TTGlyph>
    <TTGlyph name="J" xMin="59" yMin="-6" xMax="468" yMax="697">
      <contour>
        <pt x="260" y="-6" on="1"/>
        <pt x="201" y="-6" on="0"/>
        <pt x="73" y="25" on="0"/>
        <pt x="59" y="35" on="1"/>
        <pt x="82" y="92" on="1"/>
        <pt x="112" y="77" on="0"/>
        <pt x="180" y="63" on="1"/>
        <pt x="223" y="54" on="0"/>
        <pt x="261" y="54" on="1"/>
        <pt x="332" y="54" on="0"/>
        <pt x="398" y="129" on="0"/>
        <pt x="398" y="210" on="1"/>
        <pt x="398" y="635" on="1"/>
        <pt x="115" y="635" on="1"/>
        <pt x="115" y="697" on="1"/>
        <pt x="468" y="697" on="1"/>
        <pt x="468" y="213" on="1"/>
        <pt x="468" y="108" on="0"/>
        <pt x="372" y="-6" on="0"/>
      </contour>
    </TTGlyph>
    <TTGlyph name="Jcircumflex" xMin="59" yMin="-6" xMax="468" yMax="893">
      <component glyphName="circumflex" x="196" y="184" flags="0x1004"/>
      <component glyphName="J" x="0" y="0" flags="0x1004"/>
    </TTGlyph>
    <TTGlyph name="K" xMin="108" yMin="0" xMax="630" yMax="697">
      <contour>
        <pt x="108" y="0" on="1"/>
        <pt x="108" y="697" on="1"/>
        <pt x="178" y="697" on="1"/>
        <pt x="178" y="291" on="1"/>
        <pt x="544" y="697" on="1"/>
        <pt x="619" y="697" on="1"/>
        <pt x="346" y="388" on="1"/>
        <pt x="630" y="0" on="1"/>
        <pt x="554" y="0" on="1"/>
        <pt x="301" y="354" on="1"/>
        <pt x="178" y="223" on="1"/>
        <pt x="178" y="0" on="1"/>
      </contour>
    </TTGlyph>
    <TTGlyph name="L" xMin="108" yMin="0" xMax="504" yMax="697">
      <contour>
        <pt x="108" y="0" on="1"/>
        <pt x="108" y="697" on="1"/>
        <pt x="178" y="697" on="1"/>
        <pt x="178" y="53" on="1"/>
        <pt x="504" y="53" on="1"/>
        <pt x="504" y="0" on="1"/>
      </contour>
    </TTGlyph>
    <TTGlyph name="Lacute" xMin="108" yMin="0" xMax="504" yMax="958">
      <component glyphName="acute" x="186" y="184" flags="0x1004"/>
      <component glyphName="L" x="0" y="0" flags="0x1004"/>
    </TTGlyph>
    <TTGlyph name="Lcaron" xMin="108" yMin="0" xMax="504" yMax="856">
      <component glyphName="caron.alt" x="-37" y="0" flags="0x1004"/>
      <component glyphName="L" x="0" y="0" flags="0x1004"/>
    </TTGlyph>
    <TTGlyph name="Ldot" xMin="108" yMin="0" xMax="504" yMax="697">
      <component glyphName="periodcentered" x="34" y="35" flags="0x1004"/>
      <component glyphName="L" x="0" y="0" flags="0x1004"/>
    </TTGlyph>
    <TTGlyph name="Lslash" xMin="24" yMin="0" xMax="504" yMax="697">
      <contour>
        <pt x="108" y="0" on="1"/>
        <pt x="108" y="297" on="1"/>
        <pt x="24" y="244" on="1"/>
        <pt x="24" y="300" on="1"/>
        <pt x="108" y="354" on="1"/>
        <pt x="108" y="697" on="1"/>
        <pt x="178" y="697" on="1"/>
        <pt x="178" y="400" on="1"/>
        <pt x="311" y="486" on="1"/>
        <pt x="311" y="425" on="1"/>
        <pt x="178" y="341" on="1"/>
        <pt x="178" y="53" on="1"/>
        <pt x="504" y="53" on="1"/>
        <pt x="504" y="0" on="1"/>
      </contour>
    </TTGlyph>
    <TTGlyph name="M" xMin="108" yMin="0" xMax="719" yMax="697">
      <contour>
        <pt x="108" y="0" on="1"/>
        <pt x="108" y="697" on="1"/>
        <pt x="157" y="697" on="1"/>
        <pt x="415" y="290" on="1"/>
        <pt x="677" y="697" on="1"/>
        <pt x="719" y="697" on="1"/>
        <pt x="719" y="0" on="1"/>
        <pt x="652" y="0" on="1"/>
        <pt x="652" y="556" on="1"/>
        <pt x="439" y="221" on="1"/>
        <pt x="391" y="221" on="1"/>
        <pt x="177" y="554" on="1"/>
        <pt x="177" y="0" on="1"/>
      </contour>
    </TTGlyph>
    <TTGlyph name="N" xMin="108" yMin="0" xMax="646" yMax="697">
      <contour>
        <pt x="108" y="0" on="1"/>
        <pt x="108" y="697" on="1"/>
        <pt x="163" y="697" on="1"/>
        <pt x="584" y="91" on="1"/>
        <pt x="584" y="697" on="1"/>
        <pt x="646" y="697" on="1"/>
        <pt x="646" y="0" on="1"/>
        <pt x="571" y="0" on="1"/>
        <pt x="168" y="571" on="1"/>
        <pt x="168" y="0" on="1"/>
      </contour>
    </TTGlyph>
    <TTGlyph name="Nacute" xMin="108" yMin="0" xMax="646" yMax="958">
      <component glyphName="acute" x="221" y="184" flags="0x1004"/>
      <component glyphName="N" x="0" y="0" flags="0x1004"/>
    </TTGlyph>
    <TTGlyph name="Ncaron" xMin="108" yMin="0" xMax="646" yMax="885">
      <component glyphName="caron" x="242" y="184" flags="0x1004"/>
      <component glyphName="N" x="0" y="0" flags="0x1004"/>
    </TTGlyph>
    <TTGlyph name="Ntilde" xMin="108" yMin="0" xMax="646" yMax="877">
      <component glyphName="tilde" x="283" y="184" flags="0x1004"/>
      <component glyphName="N" x="0" y="0" flags="0x1004"/>
    </TTGlyph>
    <TTGlyph name="O" xMin="96" yMin="-10" xMax="637" yMax="707">
      <contour>
        <pt x="370" y="-10" on="1"/>
        <pt x="213" y="-10" on="0"/>
        <pt x="96" y="111" on="0"/>
        <pt x="96" y="233" on="1"/>
        <pt x="96" y="453" on="1"/>
        <pt x="96" y="514" on="0"/>
        <pt x="120" y="601" on="0"/>
        <pt x="149" y="636" on="1"/>
        <pt x="208" y="707" on="0"/>
        <pt x="370" y="707" on="1"/>
        <pt x="526" y="707" on="0"/>
        <pt x="584" y="632" on="1"/>
        <pt x="637" y="565" on="0"/>
        <pt x="637" y="447" on="1"/>
        <pt x="637" y="239" on="1"/>
        <pt x="637" y="118" on="0"/>
        <pt x="521" y="-10" on="0"/>
      </contour>
      <contour>
        <pt x="370" y="49" on="1"/>
        <pt x="478" y="49" on="0"/>
        <pt x="567" y="117" on="0"/>
        <pt x="567" y="218" on="1"/>
        <pt x="567" y="470" on="1"/>
        <pt x="567" y="573" on="0"/>
        <pt x="476" y="649" on="0"/>
        <pt x="264" y="649" on="0"/>
        <pt x="167" y="572" on="0"/>
        <pt x="167" y="470" on="1"/>
        <pt x="167" y="218" on="1"/>
        <pt x="167" y="118" on="0"/>
        <pt x="261" y="49" on="0"/>
      </contour>
    </TTGlyph>
    <TTGlyph name="OE" xMin="96" yMin="0" xMax="651" yMax="697">
      <contour>
        <pt x="396" y="0" on="1"/>
        <pt x="218" y="0" on="0"/>
        <pt x="154" y="70" on="1"/>
        <pt x="122" y="105" on="0"/>
        <pt x="96" y="190" on="0"/>
        <pt x="96" y="250" on="1"/>
        <pt x="96" y="437" on="1"/>
        <pt x="96" y="535" on="0"/>
        <pt x="130" y="595" on="1"/>
        <pt x="189" y="697" on="0"/>
        <pt x="394" y="697" on="1"/>
        <pt x="645" y="697" on="1"/>
        <pt x="645" y="635" on="1"/>
        <pt x="424" y="635" on="1"/>
        <pt x="424" y="385" on="1"/>
        <pt x="622" y="385" on="1"/>
        <pt x="622" y="324" on="1"/>
        <pt x="424" y="324" on="1"/>
        <pt x="424" y="62" on="1"/>
        <pt x="651" y="62" on="1"/>
        <pt x="651" y="0" on="1"/>
      </contour>
      <contour>
        <pt x="175" y="244" on="1"/>
        <pt x="175" y="146" on="0"/>
        <pt x="260" y="68" on="0"/>
        <pt x="346" y="62" on="1"/>
        <pt x="346" y="62" on="0"/>
        <pt x="346" y="636" on="1"/>
        <pt x="261" y="630" on="0"/>
        <pt x="175" y="545" on="0"/>
        <pt x="175" y="447" on="1"/>
      </contour>
    </TTGlyph>
    <TTGlyph name="Oacute" xMin="96" yMin="-10" xMax="637" yMax="958">
      <component glyphName="acute" x="221" y="184" flags="0x1004"/>
      <component glyphName="O" x="0" y="0" flags="0x1004"/>
    </TTGlyph>
    <TTGlyph name="Obreve" xMin="96" yMin="-10" xMax="637" yMax="847">
      <component glyphName="breve" x="240" y="184" flags="0x1004"/>
      <component glyphName="O" x="0" y="0" flags="0x1004"/>
    </TTGlyph>
    <TTGlyph name="Ocircumflex" xMin="96" yMin="-10" xMax="637" yMax="893">
      <component glyphName="circumflex" x="249" y="184" flags="0x1004"/>
      <component glyphName="O" x="0" y="0" flags="0x1004"/>
    </TTGlyph>
    <TTGlyph name="Odieresis" xMin="96" yMin="-10" xMax="637" yMax="854">
      <component glyphName="dieresis" x="114" y="184" flags="0x1004"/>
      <component glyphName="O" x="0" y="0" flags="0x1004"/>
    </TTGlyph>
    <TTGlyph name="Ograve" xMin="96" yMin="-10" xMax="637" yMax="958">
      <component glyphName="grave" x="222" y="184" flags="0x1004"/>
      <component glyphName="O" x="0" y="0" flags="0x1004"/>
    </TTGlyph>
    <TTGlyph name="Ohungarumlaut" xMin="96" yMin="-10" xMax="637" yMax="968">
      <component glyphName="hungarumlaut" x="147" y="184" flags="0x1004"/>
      <component glyphName="O" x="0" y="0" flags="0x1004"/>
    </TTGlyph>
    <TTGlyph name="Omacron" xMin="96" yMin="-10" xMax="637" yMax="856">
      <component glyphName="macron" x="245" y="184" flags="0x1004"/>
      <component glyphName="O" x="0" y="0" flags="0x1004"/>
    </TTGlyph>
    <TTGlyph name="Oslash" xMin="96" yMin="-68" xMax="637" yMax="781">
      <contour>
        <pt x="370" y="-10" on="1"/>
        <pt x="276" y="-10" on="0"/>
        <pt x="216" y="13" on="1"/>
        <pt x="175" y="-68" on="1"/>
        <pt x="139" y="-47" on="1"/>
        <pt x="179" y="32" on="1"/>
        <pt x="96" y="85" on="0"/>
        <pt x="96" y="233" on="1"/>
        <pt x="96" y="453" on="1"/>
        <pt x="96" y="514" on="0"/>
        <pt x="120" y="601" on="0"/>
        <pt x="178" y="671" on="0"/>
        <pt x="289" y="707" on="0"/>
        <pt x="454" y="707" on="0"/>
        <pt x="511" y="684" on="1"/>
        <pt x="560" y="781" on="1"/>
        <pt x="600" y="764" on="1"/>
        <pt x="549" y="664" on="1"/>
        <pt x="637" y="606" on="0"/>
        <pt x="637" y="447" on="1"/>
        <pt x="637" y="239" on="1"/>
        <pt x="637" y="118" on="0"/>
        <pt x="521" y="-10" on="0"/>
      </contour>
      <contour>
        <pt x="567" y="470" on="1"/>
        <pt x="567" y="572" on="0"/>
        <pt x="522" y="611" on="1"/>
        <pt x="244" y="66" on="1"/>
        <pt x="286" y="49" on="0"/>
        <pt x="478" y="49" on="0"/>
        <pt x="567" y="117" on="0"/>
        <pt x="567" y="218" on="1"/>
      </contour>
      <contour>
        <pt x="167" y="218" on="1"/>
        <pt x="167" y="127" on="0"/>
        <pt x="208" y="89" on="1"/>
        <pt x="485" y="633" on="1"/>
        <pt x="445" y="649" on="0"/>
        <pt x="370" y="649" on="1"/>
        <pt x="264" y="649" on="0"/>
        <pt x="167" y="572" on="0"/>
        <pt x="167" y="470" on="1"/>
      </contour>
    </TTGlyph>
    <TTGlyph name="Oslashacute" xMin="96" yMin="-68" xMax="637" yMax="958">
      <component glyphName="acute" x="221" y="184" flags="0x1004"/>
      <component glyphName="Oslash" x="0" y="0" flags="0x1004"/>
    </TTGlyph>
    <TTGlyph name="Otilde" xMin="96" yMin="-10" xMax="637" yMax="877">
      <component glyphName="tilde" x="283" y="184" flags="0x1004"/>
      <component glyphName="O" x="0" y="0" flags="0x1004"/>
    </TTGlyph>
    <TTGlyph name="P" xMin="108" yMin="0" xMax="563" yMax="697">
      <contour>
        <pt x="179" y="320" on="1"/>
        <pt x="386" y="320" on="1"/>
        <pt x="452" y="320" on="0"/>
        <pt x="472" y="374" on="1"/>
        <pt x="481" y="399" on="0"/>
        <pt x="487" y="443" on="0"/>
        <pt x="487" y="527" on="0"/>
        <pt x="480" y="559" on="1"/>
        <pt x="475" y="586" on="0"/>
        <pt x="456" y="616" on="0"/>
        <pt x="416" y="640" on="0"/>
        <pt x="387" y="640" on="1"/>
        <pt x="179" y="640" on="1"/>
      </contour>
      <contour>
        <pt x="108" y="0" on="1"/>
        <pt x="108" y="697" on="1"/>
        <pt x="390" y="697" on="1"/>
        <pt x="467" y="697" on="0"/>
        <pt x="563" y="593" on="0"/>
        <pt x="563" y="364" on="0"/>
        <pt x="466" y="264" on="0"/>
        <pt x="396" y="264" on="1"/>
        <pt x="179" y="264" on="1"/>
        <pt x="179" y="0" on="1"/>
      </contour>
    </TTGlyph>
    <TTGlyph name="Q" xMin="96" yMin="-192" xMax="637" yMax="707">
      <contour>
        <pt x="370" y="49" on="1"/>
        <pt x="478" y="49" on="0"/>
        <pt x="567" y="117" on="0"/>
        <pt x="567" y="218" on="1"/>
        <pt x="567" y="470" on="1"/>
        <pt x="567" y="573" on="0"/>
        <pt x="476" y="649" on="0"/>
        <pt x="264" y="649" on="0"/>
        <pt x="167" y="572" on="0"/>
        <pt x="167" y="470" on="1"/>
        <pt x="167" y="218" on="1"/>
        <pt x="167" y="118" on="0"/>
        <pt x="261" y="49" on="0"/>
      </contour>
      <contour>
        <pt x="637" y="239" on="1"/>
        <pt x="637" y="127" on="0"/>
        <pt x="546" y="3" on="0"/>
        <pt x="427" y="-8" on="1"/>
        <pt x="523" y="-155" on="1"/>
        <pt x="475" y="-192" on="1"/>
        <pt x="354" y="-10" on="1"/>
        <pt x="207" y="-7" on="0"/>
        <pt x="96" y="114" on="0"/>
        <pt x="96" y="233" on="1"/>
        <pt x="96" y="453" on="1"/>
        <pt x="96" y="514" on="0"/>
        <pt x="120" y="601" on="0"/>
        <pt x="149" y="636" on="1"/>
        <pt x="208" y="707" on="0"/>
        <pt x="370" y="707" on="1"/>
        <pt x="526" y="707" on="0"/>
        <pt x="584" y="632" on="1"/>
        <pt x="637" y="565" on="0"/>
        <pt x="637" y="447" on="1"/>
      </contour>
    </TTGlyph>
    <TTGlyph name="R" xMin="108" yMin="0" xMax="657" yMax="697">
      <contour>
        <pt x="179" y="354" on="1"/>
        <pt x="405" y="354" on="1"/>
        <pt x="472" y="354" on="0"/>
        <pt x="522" y="418" on="0"/>
        <pt x="522" y="571" on="0"/>
        <pt x="479" y="640" on="0"/>
        <pt x="413" y="640" on="1"/>
        <pt x="179" y="640" on="1"/>
      </contour>
      <contour>
        <pt x="108" y="0" on="1"/>
        <pt x="108" y="697" on="1"/>
        <pt x="413" y="697" on="1"/>
        <pt x="457" y="697" on="0"/>
        <pt x="515" y="684" on="0"/>
        <pt x="542" y="664" on="1"/>
        <pt x="597" y="626" on="0"/>
        <pt x="597" y="497" on="1"/>
        <pt x="597" y="356" on="0"/>
        <pt x="501" y="313" on="1"/>
        <pt x="657" y="0" on="1"/>
        <pt x="586" y="0" on="1"/>
        <pt x="438" y="298" on="1"/>
        <pt x="429" y="298" on="0"/>
        <pt x="179" y="297" on="1"/>
        <pt x="179" y="0" on="1"/>
      </contour>
    </TTGlyph>
    <TTGlyph name="Racute" xMin="108" yMin="0" xMax="657" yMax="958">
      <component glyphName="acute" x="200" y="184" flags="0x1004"/>
      <component glyphName="R" x="0" y="0" flags="0x1004"/>
    </TTGlyph>
    <TTGlyph name="Rcaron" xMin="108" yMin="0" xMax="657" yMax="885">
      <component glyphName="caron" x="222" y="184" flags="0x1004"/>
      <component glyphName="R" x="0" y="0" flags="0x1004"/>
    </TTGlyph>
    <TTGlyph name="S" xMin="77" yMin="-10" xMax="567" yMax="707">
      <contour>
        <pt x="338" y="-10" on="1"/>
        <pt x="246" y="-10" on="0"/>
        <pt x="134" y="23" on="0"/>
        <pt x="77" y="57" on="1"/>
        <pt x="103" y="110" on="1"/>
        <pt x="193" y="49" on="0"/>
        <pt x="338" y="49" on="1"/>
        <pt x="430" y="49" on="0"/>
        <pt x="501" y="116" on="0"/>
        <pt x="501" y="198" on="1"/>
        <pt x="501" y="245" on="0"/>
        <pt x="472" y="290" on="0"/>
        <pt x="423" y="307" on="1"/>
        <pt x="225" y="375" on="1"/>
        <pt x="175" y="392" on="0"/>
        <pt x="151" y="406" on="1"/>
        <pt x="94" y="441" on="0"/>
        <pt x="94" y="539" on="1"/>
        <pt x="94" y="633" on="0"/>
        <pt x="217" y="707" on="0"/>
        <pt x="484" y="707" on="0"/>
        <pt x="561" y="664" on="1"/>
        <pt x="543" y="610" on="1"/>
        <pt x="467" y="649" on="0"/>
        <pt x="233" y="649" on="0"/>
        <pt x="163" y="599" on="0"/>
        <pt x="163" y="492" on="0"/>
        <pt x="190" y="455" on="0"/>
        <pt x="235" y="439" on="1"/>
        <pt x="437" y="370" on="1"/>
        <pt x="511" y="344" on="0"/>
        <pt x="567" y="273" on="0"/>
        <pt x="567" y="193" on="1"/>
        <pt x="567" y="89" on="0"/>
        <pt x="460" y="-10" on="0"/>
      </contour>
    </TTGlyph>
    <TTGlyph name="Sacute" xMin="77" yMin="-10" xMax="567" yMax="958">
      <component glyphName="acute" x="183" y="184" flags="0x1004"/>
      <component glyphName="S" x="0" y="0" flags="0x1004"/>
    </TTGlyph>
    <TTGlyph name="Scaron" xMin="77" yMin="-10" xMax="567" yMax="885">
      <component glyphName="caron" x="205" y="184" flags="0x1004"/>
      <component glyphName="S" x="0" y="0" flags="0x1004"/>
    </TTGlyph>
    <TTGlyph name="Scedilla" xMin="77" yMin="-230" xMax="567" yMax="707">
      <component glyphName="cedilla" x="222" y="0" flags="0x1004"/>
      <component glyphName="S" x="0" y="0" flags="0x1004"/>
    </TTGlyph>
    <TTGlyph name="Scircumflex" xMin="77" yMin="-10" xMax="567" yMax="893">
      <component glyphName="circumflex" x="210" y="184" flags="0x1004"/>
      <component glyphName="S" x="0" y="0" flags="0x1004"/>
    </TTGlyph>
    <TTGlyph name="Sigma" xMin="61" yMin="0" xMax="521" yMax="697">
      <contour>
        <pt x="521" y="0" on="1"/>
        <pt x="61" y="0" on="1"/>
        <pt x="61" y="65" on="1"/>
        <pt x="298" y="373" on="1"/>
        <pt x="61" y="636" on="1"/>
        <pt x="61" y="697" on="1"/>
        <pt x="521" y="697" on="1"/>
        <pt x="521" y="638" on="1"/>
        <pt x="116" y="638" on="1"/>
        <pt x="351" y="393" on="1"/>
        <pt x="351" y="361" on="1"/>
        <pt x="120" y="61" on="1"/>
        <pt x="521" y="61" on="1"/>
      </contour>
    </TTGlyph>
    <TTGlyph name="T" xMin="55" yMin="0" xMax="536" yMax="697">
      <contour>
        <pt x="260" y="0" on="1"/>
        <pt x="260" y="635" on="1"/>
        <pt x="55" y="635" on="1"/>
        <pt x="55" y="697" on="1"/>
        <pt x="536" y="697" on="1"/>
        <pt x="536" y="635" on="1"/>
        <pt x="330" y="635" on="1"/>
        <pt x="330" y="0" on="1"/>
      </contour>
    </TTGlyph>
    <TTGlyph name="Tbar" xMin="55" yMin="0" xMax="536" yMax="697">
      <contour>
        <pt x="260" y="0" on="1"/>
        <pt x="260" y="336" on="1"/>
        <pt x="176" y="336" on="1"/>
        <pt x="176" y="390" on="1"/>
        <pt x="260" y="390" on="1"/>
        <pt x="260" y="635" on="1"/>
        <pt x="55" y="635" on="1"/>
        <pt x="55" y="697" on="1"/>
        <pt x="536" y="697" on="1"/>
        <pt x="536" y="635" on="1"/>
        <pt x="330" y="635" on="1"/>
        <pt x="330" y="390" on="1"/>
        <pt x="413" y="390" on="1"/>
        <pt x="413" y="336" on="1"/>
        <pt x="330" y="336" on="1"/>
        <pt x="330" y="0" on="1"/>
      </contour>
    </TTGlyph>
    <TTGlyph name="Tcaron" xMin="55" yMin="0" xMax="536" yMax="885">
      <component glyphName="caron" x="176" y="184" flags="0x1004"/>
      <component glyphName="T" x="0" y="0" flags="0x1004"/>
    </TTGlyph>
    <TTGlyph name="Thorn" xMin="103" yMin="0" xMax="559" yMax="697">
      <contour>
        <pt x="173" y="212" on="1"/>
        <pt x="376" y="212" on="1"/>
        <pt x="443" y="212" on="0"/>
        <pt x="462" y="262" on="1"/>
        <pt x="472" y="286" on="0"/>
        <pt x="479" y="330" on="0"/>
        <pt x="479" y="409" on="0"/>
        <pt x="472" y="444" on="1"/>
        <pt x="466" y="469" on="0"/>
        <pt x="446" y="498" on="0"/>
        <pt x="405" y="521" on="0"/>
        <pt x="376" y="521" on="1"/>
        <pt x="173" y="521" on="1"/>
      </contour>
      <contour>
        <pt x="103" y="0" on="1"/>
        <pt x="103" y="697" on="1"/>
        <pt x="173" y="697" on="1"/>
        <pt x="173" y="581" on="1"/>
        <pt x="379" y="581" on="1"/>
        <pt x="457" y="581" on="0"/>
        <pt x="559" y="478" on="0"/>
        <pt x="559" y="245" on="0"/>
        <pt x="502" y="196" on="1"/>
        <pt x="454" y="154" on="0"/>
        <pt x="387" y="154" on="1"/>
        <pt x="173" y="154" on="1"/>
        <pt x="173" y="0" on="1"/>
      </contour>
    </TTGlyph>
    <TTGlyph name="U" xMin="100" yMin="-10" xMax="631" yMax="697">
      <contour>
        <pt x="371" y="-10" on="1"/>
        <pt x="211" y="-10" on="0"/>
        <pt x="152" y="64" on="1"/>
        <pt x="123" y="99" on="0"/>
        <pt x="100" y="179" on="0"/>
        <pt x="100" y="232" on="1"/>
        <pt x="100" y="697" on="1"/>
        <pt x="171" y="697" on="1"/>
        <pt x="171" y="220" on="1"/>
        <pt x="171" y="166" on="0"/>
        <pt x="188" y="130" on="1"/>
        <pt x="225" y="49" on="0"/>
        <pt x="371" y="49" on="1"/>
        <pt x="452" y="49" on="0"/>
        <pt x="502" y="78" on="1"/>
        <pt x="560" y="111" on="0"/>
        <pt x="560" y="220" on="1"/>
        <pt x="560" y="697" on="1"/>
        <pt x="631" y="697" on="1"/>
        <pt x="631" y="229" on="1"/>
        <pt x="631" y="-10" on="0"/>
      </contour>
    </TTGlyph>
    <TTGlyph name="Uacute" xMin="100" yMin="-10" xMax="631" yMax="958">
      <component glyphName="acute" x="218" y="184" flags="0x1004"/>
      <component glyphName="U" x="0" y="0" flags="0x1004"/>
    </TTGlyph>
    <TTGlyph name="Ubreve" xMin="100" yMin="-10" xMax="631" yMax="847">
      <component glyphName="breve" x="236" y="184" flags="0x1004"/>
      <component glyphName="U" x="0" y="0" flags="0x1004"/>
    </TTGlyph>
    <TTGlyph name="Ucircumflex" xMin="100" yMin="-10" xMax="631" yMax="893">
      <component glyphName="circumflex" x="245" y="184" flags="0x1004"/>
      <component glyphName="U" x="0" y="0" flags="0x1004"/>
    </TTGlyph>
    <TTGlyph name="Udieresis" xMin="100" yMin="-10" xMax="631" yMax="854">
      <component glyphName="dieresis" x="111" y="184" flags="0x1004"/>
      <component glyphName="U" x="0" y="0" flags="0x1004"/>
    </TTGlyph>
    <TTGlyph name="Ugrave" xMin="100" yMin="-10" xMax="631" yMax="958">
      <component glyphName="grave" x="218" y="184" flags="0x1004"/>
      <component glyphName="U" x="0" y="0" flags="0x1004"/>
    </TTGlyph>
    <TTGlyph name="Uhungarumlaut" xMin="100" yMin="-10" xMax="631" yMax="968">
      <component glyphName="hungarumlaut" x="144" y="184" flags="0x1004"/>
      <component glyphName="U" x="0" y="0" flags="0x1004"/>
    </TTGlyph>
    <TTGlyph name="Umacron" xMin="100" yMin="-10" xMax="631" yMax="856">
      <component glyphName="macron" x="241" y="184" flags="0x1004"/>
      <component glyphName="U" x="0" y="0" flags="0x1004"/>
    </TTGlyph>
    <TTGlyph name="Uogonek" xMin="100" yMin="-223" xMax="631" yMax="697">
      <component glyphName="ogonek" x="222" y="0" flags="0x1004"/>
      <component glyphName="U" x="0" y="0" flags="0x1004"/>
    </TTGlyph>
    <TTGlyph name="Uring" xMin="100" yMin="-10" xMax="631" yMax="895">
      <component glyphName="ring" x="254" y="184" flags="0x1004"/>
      <component glyphName="U" x="0" y="0" flags="0x1004"/>
    </TTGlyph>
    <TTGlyph name="Utilde" xMin="100" yMin="-10" xMax="631" yMax="877">
      <component glyphName="tilde" x="280" y="184" flags="0x1004"/>
      <component glyphName="U" x="0" y="0" flags="0x1004"/>
    </TTGlyph>
    <TTGlyph name="V" xMin="56" yMin="0" xMax="593" yMax="697">
      <contour>
        <pt x="305" y="0" on="1"/>
        <pt x="56" y="697" on="1"/>
        <pt x="125" y="697" on="1"/>
        <pt x="321" y="146" on="1"/>
        <pt x="521" y="697" on="1"/>
        <pt x="593" y="697" on="1"/>
        <pt x="338" y="0" on="1"/>
      </contour>
    </TTGlyph>
    <TTGlyph name="W" xMin="67" yMin="0" xMax="943" yMax="697">
      <contour>
        <pt x="277" y="0" on="1"/>
        <pt x="67" y="697" on="1"/>
        <pt x="128" y="697" on="1"/>
        <pt x="295" y="137" on="1"/>
        <pt x="462" y="697" on="1"/>
        <pt x="557" y="697" on="1"/>
        <pt x="722" y="134" on="1"/>
        <pt x="883" y="697" on="1"/>
        <pt x="943" y="697" on="1"/>
        <pt x="745" y="0" on="1"/>
        <pt x="700" y="0" on="1"/>
        <pt x="516" y="654" on="1"/>
        <pt x="318" y="0" on="1"/>
      </contour>
    </TTGlyph>
    <TTGlyph name="Wacute" xMin="67" yMin="0" xMax="943" yMax="958">
      <component glyphName="acute" x="370" y="184" flags="0x1004"/>
      <component glyphName="W" x="0" y="0" flags="0x1004"/>
    </TTGlyph>
    <TTGlyph name="Wcircumflex" xMin="67" yMin="0" xMax="943" yMax="893">
      <component glyphName="circumflex" x="397" y="184" flags="0x1004"/>
      <component glyphName="W" x="0" y="0" flags="0x1004"/>
    </TTGlyph>
    <TTGlyph name="Wdieresis" xMin="67" yMin="0" xMax="943" yMax="854">
      <component glyphName="dieresis" x="263" y="184" flags="0x1004"/>
      <component glyphName="W" x="0" y="0" flags="0x1004"/>
    </TTGlyph>
    <TTGlyph name="Wgrave" xMin="67" yMin="0" xMax="943" yMax="958">
      <component glyphName="grave" x="370" y="184" flags="0x1004"/>
      <component glyphName="W" x="0" y="0" flags="0x1004"/>
    </TTGlyph>
    <TTGlyph name="X" xMin="62" yMin="0" xMax="585" yMax="697">
      <contour>
        <pt x="62" y="0" on="1"/>
        <pt x="291" y="352" on="1"/>
        <pt x="76" y="697" on="1"/>
        <pt x="144" y="697" on="1"/>
        <pt x="327" y="410" on="1"/>
        <pt x="505" y="697" on="1"/>
        <pt x="579" y="697" on="1"/>
        <pt x="361" y="354" on="1"/>
        <pt x="585" y="0" on="1"/>
        <pt x="511" y="0" on="1"/>
        <pt x="325" y="297" on="1"/>
        <pt x="137" y="0" on="1"/>
      </contour>
    </TTGlyph>
    <TTGlyph name="Y" xMin="32" yMin="0" xMax="605" yMax="697">
      <contour>
        <pt x="283" y="0" on="1"/>
        <pt x="283" y="278" on="1"/>
        <pt x="32" y="697" on="1"/>
        <pt x="107" y="697" on="1"/>
        <pt x="318" y="330" on="1"/>
        <pt x="531" y="697" on="1"/>
        <pt x="605" y="697" on="1"/>
        <pt x="354" y="278" on="1"/>
        <pt x="354" y="0" on="1"/>
      </contour>
    </TTGlyph>
    <TTGlyph name="Yacute" xMin="32" yMin="0" xMax="605" yMax="958">
      <component glyphName="acute" x="178" y="184" flags="0x1004"/>
      <component glyphName="Y" x="0" y="0" flags="0x1004"/>
    </TTGlyph>
    <TTGlyph name="Ycircumflex" xMin="32" yMin="0" xMax="605" yMax="893">
      <component glyphName="circumflex" x="206" y="184" flags="0x1004"/>
      <component glyphName="Y" x="0" y="0" flags="0x1004"/>
    </TTGlyph>
    <TTGlyph name="Ydieresis" xMin="32" yMin="0" xMax="605" yMax="854">
      <component glyphName="dieresis" x="71" y="184" flags="0x1004"/>
      <component glyphName="Y" x="0" y="0" flags="0x1004"/>
    </TTGlyph>
    <TTGlyph name="Ygrave" xMin="32" yMin="0" xMax="605" yMax="958">
      <component glyphName="grave" x="179" y="184" flags="0x1004"/>
      <component glyphName="Y" x="0" y="0" flags="0x1004"/>
    </TTGlyph>
    <TTGlyph name="Z" xMin="105" yMin="0" xMax="522" yMax="697">
      <contour>
        <pt x="105" y="0" on="1"/>
        <pt x="105" y="61" on="1"/>
        <pt x="436" y="635" on="1"/>
        <pt x="122" y="635" on="1"/>
        <pt x="122" y="697" on="1"/>
        <pt x="516" y="697" on="1"/>
        <pt x="516" y="644" on="1"/>
        <pt x="185" y="64" on="1"/>
        <pt x="522" y="64" on="1"/>
        <pt x="522" y="0" on="1"/>
      </contour>
    </TTGlyph>
    <TTGlyph name="Zacute" xMin="105" yMin="0" xMax="522" yMax="958">
      <component glyphName="acute" x="166" y="184" flags="0x1004"/>
      <component glyphName="Z" x="0" y="0" flags="0x1004"/>
    </TTGlyph>
    <TTGlyph name="Zcaron" xMin="105" yMin="0" xMax="522" yMax="885">
      <component glyphName="caron" x="187" y="184" flags="0x1004"/>
      <component glyphName="Z" x="0" y="0" flags="0x1004"/>
    </TTGlyph>
    <TTGlyph name="Zdotaccent" xMin="105" yMin="0" xMax="522" yMax="879">
      <component glyphName="dotaccent" x="194" y="184" flags="0x1004"/>
      <component glyphName="Z" x="0" y="0" flags="0x1004"/>
    </TTGlyph>
    <TTGlyph name="a" xMin="79" yMin="-10" xMax="517" yMax="522">
      <contour>
        <pt x="236" y="45" on="1"/>
        <pt x="289" y="45" on="0"/>
        <pt x="389" y="108" on="0"/>
        <pt x="395" y="147" on="1"/>
        <pt x="395" y="279" on="1"/>
        <pt x="271" y="232" on="1"/>
        <pt x="197" y="204" on="0"/>
        <pt x="143" y="164" on="0"/>
        <pt x="143" y="79" on="0"/>
        <pt x="176" y="45" on="0"/>
      </contour>
      <contour>
        <pt x="79" y="129" on="1"/>
        <pt x="79" y="181" on="0"/>
        <pt x="152" y="240" on="0"/>
        <pt x="263" y="281" on="1"/>
        <pt x="377" y="324" on="1"/>
        <pt x="389" y="328" on="0"/>
        <pt x="395" y="350" on="0"/>
        <pt x="395" y="412" on="0"/>
        <pt x="380" y="436" on="1"/>
        <pt x="370" y="450" on="0"/>
        <pt x="326" y="465" on="0"/>
        <pt x="247" y="465" on="0"/>
        <pt x="190" y="453" on="0"/>
        <pt x="160" y="419" on="0"/>
        <pt x="160" y="384" on="1"/>
        <pt x="160" y="359" on="1"/>
        <pt x="94" y="359" on="1"/>
        <pt x="94" y="387" on="1"/>
        <pt x="94" y="461" on="0"/>
        <pt x="192" y="522" on="0"/>
        <pt x="295" y="522" on="1"/>
        <pt x="463" y="522" on="0"/>
        <pt x="463" y="348" on="1"/>
        <pt x="463" y="119" on="1"/>
        <pt x="463" y="76" on="0"/>
        <pt x="484" y="51" on="0"/>
        <pt x="517" y="51" on="1"/>
        <pt x="503" y="-4" on="1"/>
        <pt x="500" y="-4" on="1"/>
        <pt x="456" y="-4" on="0"/>
        <pt x="413" y="36" on="0"/>
        <pt x="400" y="79" on="1"/>
        <pt x="343" y="-10" on="0"/>
        <pt x="229" y="-10" on="1"/>
        <pt x="144" y="-10" on="0"/>
        <pt x="79" y="61" on="0"/>
      </contour>
    </TTGlyph>
    <TTGlyph name="aacute" xMin="79" yMin="-10" xMax="517" yMax="774">
      <component glyphName="acute" x="133" y="0" flags="0x1004"/>
      <component glyphName="a" x="0" y="0" flags="0x1004"/>
    </TTGlyph>
    <TTGlyph name="abreve" xMin="79" yMin="-10" xMax="517" yMax="663">
      <component glyphName="breve" x="152" y="0" flags="0x1004"/>
      <component glyphName="a" x="0" y="0" flags="0x1004"/>
    </TTGlyph>
    <TTGlyph name="acircumflex" xMin="79" yMin="-10" xMax="517" yMax="709">
      <component glyphName="circumflex" x="161" y="0" flags="0x1004"/>
      <component glyphName="a" x="0" y="0" flags="0x1004"/>
    </TTGlyph>
    <TTGlyph name="acute" xMin="128" yMin="584" xMax="300" yMax="774">
      <contour>
        <pt x="128" y="584" on="1"/>
        <pt x="203" y="774" on="1"/>
        <pt x="300" y="774" on="1"/>
        <pt x="185" y="584" on="1"/>
      </contour>
    </TTGlyph>
    <TTGlyph name="adieresis" xMin="79" yMin="-10" xMax="517" yMax="670">
      <component glyphName="dieresis" x="26" y="0" flags="0x1004"/>
      <component glyphName="a" x="0" y="0" flags="0x1004"/>
    </TTGlyph>
    <TTGlyph name="ae" xMin="69" yMin="-10" xMax="781" yMax="522">
      <contour>
        <pt x="460" y="303" on="1"/>
        <pt x="721" y="303" on="1"/>
        <pt x="721" y="384" on="1"/>
        <pt x="721" y="430" on="0"/>
        <pt x="651" y="467" on="0"/>
        <pt x="520" y="467" on="0"/>
        <pt x="460" y="422" on="0"/>
        <pt x="460" y="371" on="1"/>
      </contour>
      <contour>
        <pt x="241" y="48" on="1"/>
        <pt x="294" y="48" on="0"/>
        <pt x="387" y="103" on="0"/>
        <pt x="394" y="142" on="1"/>
        <pt x="394" y="279" on="1"/>
        <pt x="377" y="241" on="0"/>
        <pt x="231" y="206" on="1"/>
        <pt x="192" y="197" on="0"/>
        <pt x="165" y="184" on="1"/>
        <pt x="134" y="169" on="0"/>
        <pt x="134" y="136" on="1"/>
        <pt x="134" y="48" on="0"/>
      </contour>
      <contour>
        <pt x="395" y="386" on="1"/>
        <pt x="395" y="417" on="0"/>
        <pt x="380" y="438" on="1"/>
        <pt x="360" y="465" on="0"/>
        <pt x="286" y="465" on="1"/>
        <pt x="196" y="465" on="0"/>
        <pt x="175" y="437" on="1"/>
        <pt x="164" y="422" on="0"/>
        <pt x="159" y="396" on="0"/>
        <pt x="159" y="371" on="1"/>
        <pt x="159" y="360" on="1"/>
        <pt x="92" y="360" on="1"/>
        <pt x="92" y="375" on="1"/>
        <pt x="92" y="460" on="0"/>
        <pt x="188" y="522" on="0"/>
        <pt x="293" y="522" on="1"/>
        <pt x="347" y="522" on="0"/>
        <pt x="425" y="485" on="0"/>
        <pt x="436" y="450" on="1"/>
        <pt x="474" y="522" on="0"/>
        <pt x="587" y="522" on="1"/>
        <pt x="678" y="522" on="0"/>
        <pt x="781" y="444" on="0"/>
        <pt x="781" y="374" on="1"/>
        <pt x="781" y="249" on="1"/>
        <pt x="460" y="249" on="1"/>
        <pt x="460" y="162" on="1"/>
        <pt x="460" y="46" on="0"/>
        <pt x="580" y="46" on="1"/>
        <pt x="657" y="46" on="0"/>
        <pt x="712" y="79" on="0"/>
        <pt x="718" y="145" on="1"/>
        <pt x="777" y="145" on="1"/>
        <pt x="765" y="59" on="0"/>
        <pt x="685" y="-10" on="0"/>
        <pt x="582" y="-10" on="1"/>
        <pt x="459" y="-10" on="0"/>
        <pt x="422" y="101" on="1"/>
        <pt x="416" y="53" on="0"/>
        <pt x="331" y="-10" on="0"/>
        <pt x="159" y="-10" on="0"/>
        <pt x="69" y="79" on="0"/>
        <pt x="69" y="192" on="0"/>
        <pt x="161" y="252" on="0"/>
        <pt x="282" y="277" on="1"/>
        <pt x="361" y="293" on="0"/>
        <pt x="380" y="320" on="1"/>
        <pt x="390" y="335" on="0"/>
        <pt x="395" y="356" on="0"/>
        <pt x="395" y="375" on="1"/>
      </contour>
    </TTGlyph>
    <TTGlyph name="aeacute" xMin="69" yMin="-10" xMax="781" yMax="774">
      <component glyphName="ae" x="0" y="0" flags="0x1004"/>
      <component glyphName="acute" x="291" y="0" flags="0x1004"/>
    </TTGlyph>
    <TTGlyph name="agrave" xMin="79" yMin="-10" xMax="517" yMax="774">
      <component glyphName="grave" x="134" y="0" flags="0x1004"/>
      <component glyphName="a" x="0" y="0" flags="0x1004"/>
    </TTGlyph>
    <TTGlyph name="amacron" xMin="79" yMin="-10" xMax="517" yMax="672">
      <component glyphName="macron" x="157" y="0" flags="0x1004"/>
      <component glyphName="a" x="0" y="0" flags="0x1004"/>
    </TTGlyph>
    <TTGlyph name="ampersand" xMin="84" yMin="-10" xMax="677" yMax="717">
      <contour>
        <pt x="334" y="48" on="1"/>
        <pt x="424" y="48" on="0"/>
        <pt x="500" y="68" on="0"/>
        <pt x="521" y="103" on="1"/>
        <pt x="246" y="358" on="1"/>
        <pt x="152" y="330" on="0"/>
        <pt x="152" y="211" on="1"/>
        <pt x="152" y="48" on="0"/>
      </contour>
      <contour>
        <pt x="334" y="-10" on="1"/>
        <pt x="273" y="-10" on="0"/>
        <pt x="180" y="20" on="0"/>
        <pt x="127" y="64" on="0"/>
        <pt x="84" y="147" on="0"/>
        <pt x="84" y="208" on="1"/>
        <pt x="84" y="285" on="0"/>
        <pt x="138" y="376" on="0"/>
        <pt x="206" y="396" on="1"/>
        <pt x="160" y="438" on="0"/>
        <pt x="121" y="500" on="0"/>
        <pt x="121" y="551" on="1"/>
        <pt x="121" y="627" on="0"/>
        <pt x="219" y="717" on="0"/>
        <pt x="416" y="717" on="0"/>
        <pt x="505" y="662" on="0"/>
        <pt x="505" y="582" on="1"/>
        <pt x="505" y="537" on="1"/>
        <pt x="445" y="537" on="1"/>
        <pt x="445" y="572" on="1"/>
        <pt x="445" y="622" on="0"/>
        <pt x="395" y="658" on="0"/>
        <pt x="323" y="658" on="1"/>
        <pt x="188" y="658" on="0"/>
        <pt x="188" y="553" on="1"/>
        <pt x="188" y="515" on="0"/>
        <pt x="213" y="470" on="0"/>
        <pt x="250" y="435" on="1"/>
        <pt x="540" y="162" on="1"/>
        <pt x="540" y="367" on="1"/>
        <pt x="597" y="367" on="1"/>
        <pt x="597" y="207" on="1"/>
        <pt x="597" y="148" on="0"/>
        <pt x="589" y="113" on="1"/>
        <pt x="677" y="29" on="1"/>
        <pt x="642" y="-8" on="1"/>
        <pt x="564" y="64" on="1"/>
        <pt x="516" y="-10" on="0"/>
      </contour>
    </TTGlyph>
    <TTGlyph name="aogonek" xMin="79" yMin="-215" xMax="553" yMax="522">
      <component glyphName="ogonek" x="355" y="8" flags="0x1004"/>
      <component glyphName="a" x="0" y="0" flags="0x1004"/>
    </TTGlyph>
    <TTGlyph name="approxequal" xMin="32" yMin="280" xMax="356" yMax="520">
      <contour>
        <pt x="258" y="404" on="1"/>
        <pt x="223" y="404" on="0"/>
        <pt x="139" y="455" on="0"/>
        <pt x="126" y="455" on="1"/>
        <pt x="77" y="455" on="0"/>
        <pt x="77" y="410" on="1"/>
        <pt x="32" y="410" on="1"/>
        <pt x="32" y="463" on="0"/>
        <pt x="87" y="520" on="0"/>
        <pt x="165" y="520" on="0"/>
        <pt x="250" y="469" on="0"/>
        <pt x="262" y="469" on="1"/>
        <pt x="312" y="469" on="0"/>
        <pt x="312" y="514" on="1"/>
        <pt x="356" y="514" on="1"/>
        <pt x="356" y="461" on="0"/>
        <pt x="301" y="404" on="0"/>
      </contour>
      <contour>
        <pt x="258" y="280" on="1"/>
        <pt x="223" y="280" on="0"/>
        <pt x="139" y="331" on="0"/>
        <pt x="126" y="331" on="1"/>
        <pt x="77" y="331" on="0"/>
        <pt x="77" y="286" on="1"/>
        <pt x="32" y="286" on="1"/>
        <pt x="32" y="339" on="0"/>
        <pt x="87" y="396" on="0"/>
        <pt x="165" y="396" on="0"/>
        <pt x="250" y="345" on="0"/>
        <pt x="262" y="345" on="1"/>
        <pt x="312" y="345" on="0"/>
        <pt x="312" y="390" on="1"/>
        <pt x="356" y="390" on="1"/>
        <pt x="356" y="337" on="0"/>
        <pt x="301" y="280" on="0"/>
      </contour>
    </TTGlyph>
    <TTGlyph name="aring" xMin="79" yMin="-10" xMax="517" yMax="711">
      <component glyphName="ring" x="169" y="0" flags="0x1004"/>
      <component glyphName="a" x="0" y="0" flags="0x1004"/>
    </TTGlyph>
    <TTGlyph name="aringacute" xMin="79" yMin="-10" xMax="517" yMax="978">
      <component glyphName="aring" x="0" y="0" flags="0x1004"/>
      <component glyphName="acute" x="126" y="204" flags="0x1004"/>
    </TTGlyph>
    <TTGlyph name="asciicircum" xMin="97" yMin="339" xMax="524" yMax="626">
      <contour>
        <pt x="97" y="339" on="1"/>
        <pt x="258" y="626" on="1"/>
        <pt x="356" y="626" on="1"/>
        <pt x="524" y="339" on="1"/>
        <pt x="439" y="339" on="1"/>
        <pt x="309" y="581" on="1"/>
        <pt x="179" y="339" on="1"/>
      </contour>
    </TTGlyph>
    <TTGlyph name="asciitilde" xMin="23" yMin="585" xMax="365" yMax="716">
      <contour>
        <pt x="267" y="585" on="1"/>
        <pt x="232" y="585" on="0"/>
        <pt x="130" y="650" on="0"/>
        <pt x="117" y="650" on="1"/>
        <pt x="92" y="650" on="0"/>
        <pt x="68" y="615" on="0"/>
        <pt x="68" y="591" on="1"/>
        <pt x="23" y="591" on="1"/>
        <pt x="23" y="646" on="0"/>
        <pt x="81" y="716" on="0"/>
        <pt x="157" y="716" on="0"/>
        <pt x="259" y="650" on="0"/>
        <pt x="271" y="650" on="1"/>
        <pt x="296" y="650" on="0"/>
        <pt x="321" y="685" on="0"/>
        <pt x="321" y="709" on="1"/>
        <pt x="365" y="709" on="1"/>
        <pt x="365" y="654" on="0"/>
        <pt x="308" y="585" on="0"/>
      </contour>
    </TTGlyph>
    <TTGlyph name="asterisk" xMin="52" yMin="292" xMax="456" yMax="706">
      <contour>
        <pt x="210" y="292" on="1"/>
        <pt x="225" y="451" on="1"/>
        <pt x="91" y="366" on="1"/>
        <pt x="52" y="445" on="1"/>
        <pt x="194" y="502" on="1"/>
        <pt x="57" y="571" on="1"/>
        <pt x="104" y="646" on="1"/>
        <pt x="224" y="553" on="1"/>
        <pt x="210" y="706" on="1"/>
        <pt x="297" y="706" on="1"/>
        <pt x="283" y="547" on="1"/>
        <pt x="416" y="632" on="1"/>
        <pt x="456" y="554" on="1"/>
        <pt x="313" y="497" on="1"/>
        <pt x="450" y="427" on="1"/>
        <pt x="404" y="353" on="1"/>
        <pt x="283" y="445" on="1"/>
        <pt x="297" y="292" on="1"/>
      </contour>
    </TTGlyph>
    <TTGlyph name="at" xMin="212" yMin="-62" xMax="853" yMax="712">
      <contour>
        <pt x="553" y="190" on="1"/>
        <pt x="606" y="190" on="0"/>
        <pt x="716" y="248" on="0"/>
        <pt x="732" y="297" on="1"/>
        <pt x="732" y="427" on="1"/>
        <pt x="726" y="424" on="0"/>
        <pt x="507" y="368" on="0"/>
        <pt x="451" y="326" on="0"/>
        <pt x="451" y="291" on="1"/>
        <pt x="451" y="190" on="0"/>
      </contour>
      <contour>
        <pt x="794" y="507" on="1"/>
        <pt x="794" y="382" on="1"/>
        <pt x="793" y="259" on="1"/>
        <pt x="793" y="226" on="0"/>
        <pt x="812" y="206" on="0"/>
        <pt x="853" y="206" on="1"/>
        <pt x="843" y="148" on="1"/>
        <pt x="816" y="148" on="0"/>
        <pt x="797" y="155" on="1"/>
        <pt x="757" y="170" on="0"/>
        <pt x="744" y="233" on="1"/>
        <pt x="687" y="137" on="0"/>
        <pt x="543" y="137" on="1"/>
        <pt x="453" y="137" on="0"/>
        <pt x="368" y="229" on="0"/>
        <pt x="368" y="352" on="0"/>
        <pt x="461" y="421" on="0"/>
        <pt x="731" y="484" on="0"/>
        <pt x="733" y="484" on="1"/>
        <pt x="733" y="516" on="0"/>
        <pt x="728" y="557" on="0"/>
        <pt x="704" y="606" on="0"/>
        <pt x="682" y="620" on="1"/>
        <pt x="630" y="653" on="0"/>
        <pt x="519" y="653" on="1"/>
        <pt x="410" y="653" on="0"/>
        <pt x="286" y="574" on="0"/>
        <pt x="286" y="514" on="1"/>
        <pt x="286" y="126" on="1"/>
        <pt x="286" y="64" on="0"/>
        <pt x="420" y="-12" on="0"/>
        <pt x="538" y="-12" on="1"/>
        <pt x="613" y="-12" on="0"/>
        <pt x="741" y="18" on="0"/>
        <pt x="766" y="37" on="1"/>
        <pt x="789" y="-14" on="1"/>
        <pt x="760" y="-33" on="0"/>
        <pt x="619" y="-62" on="0"/>
        <pt x="545" y="-62" on="1"/>
        <pt x="466" y="-62" on="0"/>
        <pt x="404" y="-46" on="1"/>
        <pt x="297" y="-20" on="0"/>
        <pt x="250" y="46" on="1"/>
        <pt x="212" y="96" on="0"/>
        <pt x="212" y="157" on="1"/>
        <pt x="212" y="474" on="1"/>
        <pt x="212" y="712" on="0"/>
        <pt x="533" y="712" on="1"/>
        <pt x="648" y="712" on="0"/>
        <pt x="706" y="680" on="1"/>
        <pt x="734" y="665" on="0"/>
        <pt x="772" y="632" on="0"/>
        <pt x="796" y="573" on="0"/>
        <pt x="796" y="540" on="1"/>
      </contour>
    </TTGlyph>
    <TTGlyph name="atilde" xMin="79" yMin="-10" xMax="517" yMax="693">
      <component glyphName="tilde" x="195" y="0" flags="0x1004"/>
      <component glyphName="a" x="0" y="0" flags="0x1004"/>
    </TTGlyph>
    <TTGlyph name="b" xMin="96" yMin="-10" xMax="505" yMax="732">
      <contour>
        <pt x="286" y="49" on="1"/>
        <pt x="349" y="49" on="0"/>
        <pt x="438" y="114" on="0"/>
        <pt x="438" y="165" on="1"/>
        <pt x="438" y="364" on="1"/>
        <pt x="438" y="413" on="0"/>
        <pt x="371" y="465" on="0"/>
        <pt x="243" y="465" on="0"/>
        <pt x="163" y="429" on="1"/>
        <pt x="163" y="83" on="1"/>
        <pt x="233" y="49" on="0"/>
      </contour>
      <contour>
        <pt x="294" y="-10" on="1"/>
        <pt x="273" y="-10" on="0"/>
        <pt x="238" y="-3" on="1"/>
        <pt x="218" y="2" on="0"/>
        <pt x="169" y="32" on="1"/>
        <pt x="160" y="37" on="1"/>
        <pt x="149" y="0" on="1"/>
        <pt x="96" y="0" on="1"/>
        <pt x="96" y="732" on="1"/>
        <pt x="163" y="732" on="1"/>
        <pt x="163" y="484" on="1"/>
        <pt x="225" y="522" on="0"/>
        <pt x="400" y="522" on="0"/>
        <pt x="505" y="433" on="0"/>
        <pt x="505" y="354" on="1"/>
        <pt x="505" y="179" on="1"/>
        <pt x="505" y="97" on="0"/>
        <pt x="394" y="-10" on="0"/>
      </contour>
    </TTGlyph>
    <TTGlyph name="backslash" xMin="19" yMin="0" xMax="281" yMax="732">
      <contour>
        <pt x="209" y="0" on="1"/>
        <pt x="19" y="732" on="1"/>
        <pt x="94" y="732" on="1"/>
        <pt x="281" y="0" on="1"/>
      </contour>
    </TTGlyph>
    <TTGlyph name="bar" xMin="123" yMin="-94" xMax="191" yMax="744">
      <contour>
        <pt x="123" y="-94" on="1"/>
        <pt x="123" y="744" on="1"/>
        <pt x="191" y="744" on="1"/>
        <pt x="191" y="-94" on="1"/>
      </contour>
    </TTGlyph>
    <TTGlyph name="braceleft" xMin="48" yMin="-114" xMax="409" yMax="711">
      <contour>
        <pt x="171" y="103" on="1"/>
        <pt x="171" y="110" on="1"/>
        <pt x="171" y="218" on="0"/>
        <pt x="130" y="274" on="0"/>
        <pt x="48" y="274" on="1"/>
        <pt x="48" y="322" on="1"/>
        <pt x="94" y="322" on="0"/>
        <pt x="134" y="327" on="0"/>
        <pt x="165" y="362" on="0"/>
        <pt x="171" y="420" on="0"/>
        <pt x="171" y="481" on="1"/>
        <pt x="171" y="484" on="1"/>
        <pt x="170" y="546" on="1"/>
        <pt x="170" y="586" on="0"/>
        <pt x="184" y="637" on="0"/>
        <pt x="207" y="662" on="1"/>
        <pt x="252" y="711" on="0"/>
        <pt x="409" y="711" on="1"/>
        <pt x="409" y="711" on="0"/>
        <pt x="409" y="654" on="1"/>
        <pt x="340" y="654" on="0"/>
        <pt x="312" y="646" on="1"/>
        <pt x="293" y="640" on="0"/>
        <pt x="269" y="631" on="0"/>
        <pt x="252" y="605" on="0"/>
        <pt x="239" y="574" on="0"/>
        <pt x="239" y="477" on="1"/>
        <pt x="239" y="408" on="1"/>
        <pt x="239" y="316" on="0"/>
        <pt x="180" y="295" on="1"/>
        <pt x="202" y="289" on="0"/>
        <pt x="239" y="234" on="0"/>
        <pt x="239" y="183" on="1"/>
        <pt x="239" y="109" on="1"/>
        <pt x="239" y="59" on="0"/>
        <pt x="242" y="26" on="1"/>
        <pt x="244" y="4" on="0"/>
        <pt x="252" y="-12" on="0"/>
        <pt x="269" y="-37" on="0"/>
        <pt x="292" y="-45" on="0"/>
        <pt x="338" y="-57" on="0"/>
        <pt x="409" y="-57" on="1"/>
        <pt x="409" y="-114" on="1"/>
        <pt x="285" y="-114" on="0"/>
        <pt x="229" y="-87" on="1"/>
        <pt x="204" y="-75" on="0"/>
        <pt x="177" y="-31" on="0"/>
        <pt x="170" y="12" on="0"/>
        <pt x="170" y="46" on="1"/>
      </contour>
    </TTGlyph>
    <TTGlyph name="braceright" xMin="48" yMin="-114" xMax="409" yMax="711">
      <contour>
        <pt x="286" y="484" on="1"/>
        <pt x="286" y="481" on="1"/>
        <pt x="286" y="420" on="0"/>
        <pt x="292" y="362" on="0"/>
        <pt x="323" y="327" on="0"/>
        <pt x="363" y="322" on="0"/>
        <pt x="409" y="322" on="1"/>
        <pt x="409" y="274" on="1"/>
        <pt x="327" y="274" on="0"/>
        <pt x="286" y="218" on="0"/>
        <pt x="286" y="110" on="1"/>
        <pt x="286" y="110" on="0"/>
        <pt x="286" y="103" on="1"/>
        <pt x="287" y="46" on="1"/>
        <pt x="287" y="12" on="0"/>
        <pt x="280" y="-31" on="0"/>
        <pt x="253" y="-75" on="0"/>
        <pt x="228" y="-87" on="1"/>
        <pt x="172" y="-114" on="0"/>
        <pt x="48" y="-114" on="1"/>
        <pt x="48" y="-57" on="1"/>
        <pt x="119" y="-57" on="0"/>
        <pt x="146" y="-50" on="1"/>
        <pt x="165" y="-45" on="0"/>
        <pt x="188" y="-37" on="0"/>
        <pt x="205" y="-12" on="0"/>
        <pt x="218" y="14" on="0"/>
        <pt x="218" y="109" on="1"/>
        <pt x="218" y="183" on="1"/>
        <pt x="218" y="234" on="0"/>
        <pt x="255" y="289" on="0"/>
        <pt x="277" y="295" on="1"/>
        <pt x="218" y="316" on="0"/>
        <pt x="218" y="408" on="1"/>
        <pt x="218" y="477" on="1"/>
        <pt x="218" y="530" on="0"/>
        <pt x="215" y="564" on="1"/>
        <pt x="213" y="586" on="0"/>
        <pt x="205" y="605" on="0"/>
        <pt x="188" y="631" on="0"/>
        <pt x="164" y="640" on="0"/>
        <pt x="117" y="654" on="0"/>
        <pt x="48" y="654" on="1"/>
        <pt x="48" y="711" on="1"/>
        <pt x="205" y="711" on="0"/>
        <pt x="250" y="662" on="1"/>
        <pt x="273" y="637" on="0"/>
        <pt x="287" y="586" on="0"/>
        <pt x="287" y="546" on="1"/>
      </contour>
    </TTGlyph>
    <TTGlyph name="bracketleft" xMin="138" yMin="-33" xMax="292" yMax="728">
      <contour>
        <pt x="138" y="-33" on="1"/>
        <pt x="138" y="728" on="1"/>
        <pt x="292" y="728" on="1"/>
        <pt x="292" y="671" on="1"/>
        <pt x="205" y="671" on="1"/>
        <pt x="205" y="24" on="1"/>
        <pt x="292" y="24" on="1"/>
        <pt x="292" y="-33" on="1"/>
      </contour>
    </TTGlyph>
    <TTGlyph name="bracketright" xMin="109" yMin="-33" xMax="264" yMax="728">
      <contour>
        <pt x="109" y="-33" on="1"/>
        <pt x="109" y="23" on="1"/>
        <pt x="196" y="23" on="1"/>
        <pt x="196" y="670" on="1"/>
        <pt x="109" y="670" on="1"/>
        <pt x="109" y="728" on="1"/>
        <pt x="264" y="728" on="1"/>
        <pt x="264" y="-33" on="1"/>
      </contour>
    </TTGlyph>
    <TTGlyph name="breve" xMin="23" yMin="573" xMax="227" yMax="663">
      <contour>
        <pt x="125" y="573" on="1"/>
        <pt x="77" y="573" on="0"/>
        <pt x="23" y="634" on="0"/>
        <pt x="23" y="663" on="1"/>
        <pt x="80" y="663" on="1"/>
        <pt x="80" y="646" on="0"/>
        <pt x="108" y="622" on="0"/>
        <pt x="142" y="622" on="0"/>
        <pt x="170" y="646" on="0"/>
        <pt x="170" y="663" on="1"/>
        <pt x="227" y="663" on="1"/>
        <pt x="227" y="634" on="0"/>
        <pt x="173" y="573" on="0"/>
      </contour>
    </TTGlyph>
    <TTGlyph name="brokenbar" xMin="116" yMin="-95" xMax="194" yMax="782">
      <contour>
        <pt x="116" y="428" on="1"/>
        <pt x="116" y="782" on="1"/>
        <pt x="194" y="782" on="1"/>
        <pt x="194" y="428" on="1"/>
      </contour>
      <contour>
        <pt x="116" y="-95" on="1"/>
        <pt x="116" y="228" on="1"/>
        <pt x="194" y="228" on="1"/>
        <pt x="194" y="-95" on="1"/>
      </contour>
    </TTGlyph>
    <TTGlyph name="bullet" xMin="84" yMin="119" xMax="377" yMax="404">
      <contour>
        <pt x="230" y="119" on="1"/>
        <pt x="144" y="119" on="0"/>
        <pt x="84" y="184" on="0"/>
        <pt x="84" y="339" on="0"/>
        <pt x="144" y="404" on="0"/>
        <pt x="317" y="404" on="0"/>
        <pt x="377" y="339" on="0"/>
        <pt x="377" y="183" on="0"/>
        <pt x="317" y="119" on="0"/>
      </contour>
    </TTGlyph>
    <TTGlyph name="c" xMin="75" yMin="-10" xMax="474" yMax="522">
      <contour>
        <pt x="280" y="-10" on="1"/>
        <pt x="181" y="-10" on="0"/>
        <pt x="75" y="95" on="0"/>
        <pt x="75" y="173" on="1"/>
        <pt x="75" y="363" on="1"/>
        <pt x="75" y="433" on="0"/>
        <pt x="186" y="522" on="0"/>
        <pt x="372" y="522" on="0"/>
        <pt x="474" y="453" on="0"/>
        <pt x="474" y="361" on="1"/>
        <pt x="409" y="354" on="1"/>
        <pt x="409" y="422" on="0"/>
        <pt x="353" y="465" on="0"/>
        <pt x="207" y="465" on="0"/>
        <pt x="142" y="416" on="0"/>
        <pt x="142" y="359" on="1"/>
        <pt x="142" y="162" on="1"/>
        <pt x="142" y="46" on="0"/>
        <pt x="278" y="46" on="1"/>
        <pt x="355" y="46" on="0"/>
        <pt x="403" y="77" on="0"/>
        <pt x="411" y="131" on="1"/>
        <pt x="473" y="131" on="1"/>
        <pt x="462" y="55" on="0"/>
        <pt x="373" y="-10" on="0"/>
      </contour>
    </TTGlyph>
    <TTGlyph name="cacute" xMin="75" yMin="-10" xMax="474" yMax="774">
      <component glyphName="c" x="0" y="0" flags="0x1004"/>
      <component glyphName="acute" x="136" y="0" flags="0x1004"/>
    </TTGlyph>
    <TTGlyph name="caron" xMin="-2" yMin="581" xMax="251" yMax="701">
      <contour>
        <pt x="152" y="581" on="1"/>
        <pt x="101" y="581" on="1"/>
        <pt x="-2" y="701" on="1"/>
        <pt x="71" y="701" on="1"/>
        <pt x="127" y="630" on="1"/>
        <pt x="180" y="701" on="1"/>
        <pt x="251" y="701" on="1"/>
      </contour>
    </TTGlyph>
    <TTGlyph name="caron.alt" xMin="315" yMin="605" xMax="424" yMax="856">
      <contour>
        <pt x="424" y="779" on="1"/>
        <pt x="424" y="679" on="0"/>
        <pt x="347" y="605" on="1"/>
        <pt x="315" y="626" on="1"/>
        <pt x="332" y="643" on="0"/>
        <pt x="347" y="666" on="1"/>
        <pt x="352" y="673" on="0"/>
        <pt x="379" y="718" on="0"/>
        <pt x="379" y="755" on="1"/>
        <pt x="317" y="755" on="1"/>
        <pt x="317" y="856" on="1"/>
        <pt x="424" y="856" on="1"/>
      </contour>
    </TTGlyph>
    <TTGlyph name="ccaron" xMin="75" yMin="-10" xMax="474" yMax="701">
      <component glyphName="caron" x="157" y="0" flags="0x1004"/>
      <component glyphName="c" x="0" y="0" flags="0x1004"/>
    </TTGlyph>
    <TTGlyph name="ccedilla" xMin="75" yMin="-230" xMax="474" yMax="522">
      <component glyphName="cedilla" x="174" y="0" flags="0x1004"/>
      <component glyphName="c" x="0" y="0" flags="0x1004"/>
    </TTGlyph>
    <TTGlyph name="ccircumflex" xMin="75" yMin="-10" xMax="474" yMax="709">
      <component glyphName="circumflex" x="163" y="0" flags="0x1004"/>
      <component glyphName="c" x="0" y="0" flags="0x1004"/>
    </TTGlyph>
    <TTGlyph name="cdotaccent" xMin="75" yMin="-10" xMax="474" yMax="695">
      <component glyphName="dotaccent" x="165" y="0" flags="0x1004"/>
      <component glyphName="c" x="0" y="0" flags="0x1004"/>
    </TTGlyph>
    <TTGlyph name="cedilla" xMin="51" yMin="-230" xMax="217" yMax="5">
      <contour>
        <pt x="96" y="-230" on="1"/>
        <pt x="75" y="-230" on="0"/>
        <pt x="51" y="-227" on="1"/>
        <pt x="51" y="-186" on="1"/>
        <pt x="70" y="-189" on="0"/>
        <pt x="125" y="-189" on="0"/>
        <pt x="162" y="-158" on="0"/>
        <pt x="162" y="-111" on="0"/>
        <pt x="116" y="-69" on="0"/>
        <pt x="80" y="-68" on="1"/>
        <pt x="80" y="-68" on="0"/>
        <pt x="80" y="5" on="1"/>
        <pt x="97" y="5" on="1"/>
        <pt x="100" y="-39" on="1"/>
        <pt x="152" y="-48" on="0"/>
        <pt x="217" y="-108" on="0"/>
        <pt x="217" y="-178" on="0"/>
        <pt x="154" y="-230" on="0"/>
      </contour>
    </TTGlyph>
    <TTGlyph name="cent" xMin="75" yMin="-98" xMax="474" yMax="620">
      <contour>
        <pt x="264" y="-98" on="1"/>
        <pt x="264" y="25" on="1"/>
        <pt x="317" y="25" on="1"/>
        <pt x="317" y="-98" on="1"/>
      </contour>
      <contour>
        <pt x="264" y="497" on="1"/>
        <pt x="264" y="620" on="1"/>
        <pt x="317" y="620" on="1"/>
        <pt x="317" y="497" on="1"/>
      </contour>
      <contour>
        <pt x="280" y="-10" on="1"/>
        <pt x="373" y="-10" on="0"/>
        <pt x="462" y="55" on="0"/>
        <pt x="473" y="131" on="1"/>
        <pt x="411" y="131" on="1"/>
        <pt x="403" y="77" on="0"/>
        <pt x="355" y="46" on="0"/>
        <pt x="278" y="46" on="1"/>
        <pt x="142" y="46" on="0"/>
        <pt x="142" y="162" on="1"/>
        <pt x="142" y="359" on="1"/>
        <pt x="142" y="416" on="0"/>
        <pt x="207" y="465" on="0"/>
        <pt x="278" y="465" on="1"/>
        <pt x="353" y="465" on="0"/>
        <pt x="409" y="422" on="0"/>
        <pt x="409" y="354" on="1"/>
        <pt x="474" y="361" on="1"/>
        <pt x="474" y="453" on="0"/>
        <pt x="372" y="522" on="0"/>
        <pt x="277" y="522" on="1"/>
        <pt x="186" y="522" on="0"/>
        <pt x="75" y="433" on="0"/>
        <pt x="75" y="363" on="1"/>
        <pt x="75" y="173" on="1"/>
        <pt x="75" y="95" on="0"/>
        <pt x="181" y="-10" on="0"/>
      </contour>
    </TTGlyph>
    <TTGlyph name="circumflex" xMin="-4" yMin="589" xMax="250" yMax="709">
      <contour>
        <pt x="-4" y="589" on="1"/>
        <pt x="100" y="709" on="1"/>
        <pt x="151" y="709" on="1"/>
        <pt x="250" y="589" on="1"/>
        <pt x="179" y="589" on="1"/>
        <pt x="126" y="659" on="1"/>
        <pt x="69" y="589" on="1"/>
      </contour>
    </TTGlyph>
    <TTGlyph name="colon" xMin="150" yMin="20" xMax="263" yMax="495">
      <component glyphName="period" x="53" y="389" flags="0x1004"/>
      <component glyphName="period" x="53" y="20" flags="0x1004"/>
    </TTGlyph>
    <TTGlyph name="comma" xMin="82" yMin="-150" xMax="191" yMax="101">
      <contour>
        <pt x="191" y="23" on="1"/>
        <pt x="191" y="-79" on="0"/>
        <pt x="114" y="-150" on="1"/>
        <pt x="82" y="-129" on="1"/>
        <pt x="90" y="-121" on="0"/>
        <pt x="104" y="-102" on="1"/>
        <pt x="108" y="-98" on="0"/>
        <pt x="124" y="-76" on="0"/>
        <pt x="132" y="-60" on="0"/>
        <pt x="146" y="-28" on="0"/>
        <pt x="146" y="0" on="1"/>
        <pt x="84" y="0" on="1"/>
        <pt x="84" y="101" on="1"/>
        <pt x="191" y="101" on="1"/>
      </contour>
    </TTGlyph>
    <TTGlyph name="copyright" xMin="77" yMin="-7" xMax="796" yMax="711">
      <contour>
        <pt x="437" y="-7" on="1"/>
        <pt x="285" y="-7" on="0"/>
        <pt x="77" y="200" on="0"/>
        <pt x="77" y="505" on="0"/>
        <pt x="285" y="711" on="0"/>
        <pt x="590" y="711" on="0"/>
        <pt x="796" y="506" on="0"/>
        <pt x="796" y="200" on="0"/>
        <pt x="590" y="-7" on="0"/>
      </contour>
      <contour>
        <pt x="438" y="40" on="1"/>
        <pt x="571" y="40" on="0"/>
        <pt x="744" y="219" on="0"/>
        <pt x="744" y="487" on="0"/>
        <pt x="571" y="665" on="0"/>
        <pt x="305" y="665" on="0"/>
        <pt x="130" y="487" on="0"/>
        <pt x="130" y="219" on="0"/>
        <pt x="305" y="40" on="0"/>
      </contour>
      <contour>
        <pt x="442" y="140" on="1"/>
        <pt x="344" y="140" on="0"/>
        <pt x="270" y="216" on="0"/>
        <pt x="270" y="288" on="1"/>
        <pt x="270" y="424" on="1"/>
        <pt x="270" y="499" on="0"/>
        <pt x="343" y="577" on="0"/>
        <pt x="535" y="577" on="0"/>
        <pt x="601" y="496" on="0"/>
        <pt x="601" y="420" on="1"/>
        <pt x="601" y="408" on="1"/>
        <pt x="544" y="403" on="1"/>
        <pt x="544" y="435" on="1"/>
        <pt x="544" y="490" on="0"/>
        <pt x="497" y="533" on="0"/>
        <pt x="383" y="533" on="0"/>
        <pt x="329" y="489" on="0"/>
        <pt x="329" y="435" on="1"/>
        <pt x="329" y="279" on="1"/>
        <pt x="329" y="226" on="0"/>
        <pt x="384" y="184" on="0"/>
        <pt x="499" y="184" on="0"/>
        <pt x="544" y="224" on="0"/>
        <pt x="544" y="279" on="1"/>
        <pt x="544" y="309" on="1"/>
        <pt x="601" y="309" on="1"/>
        <pt x="601" y="292" on="1"/>
        <pt x="601" y="218" on="0"/>
        <pt x="535" y="140" on="0"/>
      </contour>
    </TTGlyph>
    <TTGlyph name="currency" xMin="73" yMin="160" xMax="485" yMax="496">
      <contour>
        <pt x="160" y="328" on="1"/>
        <pt x="160" y="267" on="0"/>
        <pt x="231" y="198" on="0"/>
        <pt x="328" y="198" on="0"/>
        <pt x="399" y="267" on="0"/>
        <pt x="399" y="389" on="0"/>
        <pt x="328" y="458" on="0"/>
        <pt x="231" y="458" on="0"/>
        <pt x="160" y="389" on="0"/>
      </contour>
      <contour>
        <pt x="394" y="430" on="1"/>
        <pt x="466" y="496" on="1"/>
        <pt x="485" y="470" on="1"/>
        <pt x="410" y="405" on="1"/>
        <pt x="429" y="368" on="0"/>
        <pt x="429" y="287" on="0"/>
        <pt x="410" y="250" on="1"/>
        <pt x="480" y="185" on="1"/>
        <pt x="461" y="160" on="1"/>
        <pt x="394" y="225" on="1"/>
        <pt x="346" y="174" on="0"/>
        <pt x="279" y="174" on="1"/>
        <pt x="213" y="174" on="0"/>
        <pt x="165" y="225" on="1"/>
        <pt x="97" y="160" on="1"/>
        <pt x="78" y="185" on="1"/>
        <pt x="149" y="250" on="1"/>
        <pt x="130" y="287" on="0"/>
        <pt x="130" y="368" on="0"/>
        <pt x="149" y="405" on="1"/>
        <pt x="73" y="470" on="1"/>
        <pt x="92" y="496" on="1"/>
        <pt x="165" y="430" on="1"/>
        <pt x="213" y="481" on="0"/>
        <pt x="346" y="481" on="0"/>
      </contour>
    </TTGlyph>
    <TTGlyph name="d" xMin="75" yMin="-10" xMax="482" yMax="732">
      <contour>
        <pt x="278" y="49" on="1"/>
        <pt x="355" y="49" on="0"/>
        <pt x="415" y="86" on="1"/>
        <pt x="415" y="442" on="1"/>
        <pt x="368" y="465" on="0"/>
        <pt x="221" y="465" on="0"/>
        <pt x="142" y="418" on="0"/>
        <pt x="142" y="368" on="1"/>
        <pt x="142" y="157" on="1"/>
        <pt x="142" y="106" on="0"/>
        <pt x="220" y="49" on="0"/>
      </contour>
      <contour>
        <pt x="278" y="-10" on="1"/>
        <pt x="171" y="-10" on="0"/>
        <pt x="75" y="87" on="0"/>
        <pt x="75" y="167" on="1"/>
        <pt x="75" y="354" on="1"/>
        <pt x="75" y="522" on="0"/>
        <pt x="290" y="522" on="1"/>
        <pt x="360" y="522" on="0"/>
        <pt x="415" y="502" on="1"/>
        <pt x="415" y="732" on="1"/>
        <pt x="482" y="732" on="1"/>
        <pt x="482" y="0" on="1"/>
        <pt x="436" y="0" on="1"/>
        <pt x="420" y="36" on="1"/>
        <pt x="398" y="18" on="0"/>
        <pt x="316" y="-10" on="0"/>
      </contour>
    </TTGlyph>
    <TTGlyph name="dagger" xMin="22" yMin="0" xMax="373" yMax="742">
      <contour>
        <pt x="152" y="0" on="1"/>
        <pt x="152" y="476" on="1"/>
        <pt x="22" y="476" on="1"/>
        <pt x="22" y="531" on="1"/>
        <pt x="152" y="531" on="1"/>
        <pt x="152" y="742" on="1"/>
        <pt x="239" y="742" on="1"/>
        <pt x="239" y="531" on="1"/>
        <pt x="373" y="531" on="1"/>
        <pt x="373" y="476" on="1"/>
        <pt x="239" y="476" on="1"/>
        <pt x="239" y="0" on="1"/>
      </contour>
    </TTGlyph>
    <TTGlyph name="daggerdbl" xMin="23" yMin="0" xMax="409" yMax="742">
      <contour>
        <pt x="171" y="0" on="1"/>
        <pt x="171" y="208" on="1"/>
        <pt x="23" y="208" on="1"/>
        <pt x="23" y="253" on="1"/>
        <pt x="171" y="253" on="1"/>
        <pt x="171" y="472" on="1"/>
        <pt x="23" y="472" on="1"/>
        <pt x="23" y="518" on="1"/>
        <pt x="171" y="518" on="1"/>
        <pt x="171" y="742" on="1"/>
        <pt x="258" y="742" on="1"/>
        <pt x="258" y="518" on="1"/>
        <pt x="409" y="518" on="1"/>
        <pt x="409" y="472" on="1"/>
        <pt x="258" y="472" on="1"/>
        <pt x="258" y="253" on="1"/>
        <pt x="409" y="253" on="1"/>
        <pt x="409" y="208" on="1"/>
        <pt x="258" y="208" on="1"/>
        <pt x="258" y="0" on="1"/>
      </contour>
    </TTGlyph>
    <TTGlyph name="dcaron" xMin="75" yMin="-10" xMax="656" yMax="856">
      <component glyphName="d" x="0" y="0" flags="0x1004"/>
      <component glyphName="caron.alt" x="232" y="0" flags="0x1004"/>
    </TTGlyph>
    <TTGlyph name="dcroat" xMin="75" yMin="-10" xMax="557" yMax="732">
      <contour>
        <pt x="278" y="49" on="1"/>
        <pt x="355" y="49" on="0"/>
        <pt x="415" y="86" on="1"/>
        <pt x="415" y="442" on="1"/>
        <pt x="368" y="465" on="0"/>
        <pt x="221" y="465" on="0"/>
        <pt x="142" y="418" on="0"/>
        <pt x="142" y="368" on="1"/>
        <pt x="142" y="157" on="1"/>
        <pt x="142" y="106" on="0"/>
        <pt x="220" y="49" on="0"/>
      </contour>
      <contour>
        <pt x="278" y="-10" on="1"/>
        <pt x="171" y="-10" on="0"/>
        <pt x="75" y="87" on="0"/>
        <pt x="75" y="167" on="1"/>
        <pt x="75" y="354" on="1"/>
        <pt x="75" y="522" on="0"/>
        <pt x="290" y="522" on="1"/>
        <pt x="360" y="522" on="0"/>
        <pt x="415" y="502" on="1"/>
        <pt x="415" y="591" on="1"/>
        <pt x="320" y="591" on="1"/>
        <pt x="320" y="645" on="1"/>
        <pt x="415" y="645" on="1"/>
        <pt x="415" y="732" on="1"/>
        <pt x="482" y="732" on="1"/>
        <pt x="482" y="645" on="1"/>
        <pt x="557" y="645" on="1"/>
        <pt x="557" y="591" on="1"/>
        <pt x="482" y="591" on="1"/>
        <pt x="482" y="0" on="1"/>
        <pt x="436" y="0" on="1"/>
        <pt x="420" y="36" on="1"/>
        <pt x="398" y="18" on="0"/>
        <pt x="316" y="-10" on="0"/>
      </contour>
    </TTGlyph>
    <TTGlyph name="degree" xMin="114" yMin="375" xMax="410" yMax="687">
      <contour>
        <pt x="261" y="375" on="1"/>
        <pt x="207" y="375" on="0"/>
        <pt x="114" y="466" on="0"/>
        <pt x="114" y="595" on="0"/>
        <pt x="207" y="687" on="0"/>
        <pt x="316" y="687" on="0"/>
        <pt x="410" y="595" on="0"/>
        <pt x="410" y="466" on="0"/>
        <pt x="316" y="375" on="0"/>
      </contour>
      <contour>
        <pt x="262" y="401" on="1"/>
        <pt x="310" y="401" on="0"/>
        <pt x="382" y="477" on="0"/>
        <pt x="382" y="585" on="0"/>
        <pt x="310" y="662" on="0"/>
        <pt x="215" y="662" on="0"/>
        <pt x="143" y="586" on="0"/>
        <pt x="143" y="477" on="0"/>
        <pt x="215" y="401" on="0"/>
      </contour>
    </TTGlyph>
    <TTGlyph name="dieresis" xMin="119" yMin="597" xMax="388" yMax="670">
      <contour>
        <pt x="304" y="597" on="1"/>
        <pt x="304" y="670" on="1"/>
        <pt x="388" y="670" on="1"/>
        <pt x="388" y="597" on="1"/>
      </contour>
      <contour>
        <pt x="119" y="597" on="1"/>
        <pt x="119" y="670" on="1"/>
        <pt x="203" y="670" on="1"/>
        <pt x="203" y="597" on="1"/>
      </contour>
    </TTGlyph>
    <TTGlyph name="divide" xMin="45" yMin="43" xMax="461" yMax="479">
      <contour>
        <pt x="208" y="383" on="1"/>
        <pt x="208" y="479" on="1"/>
        <pt x="302" y="479" on="1"/>
        <pt x="302" y="383" on="1"/>
      </contour>
      <contour>
        <pt x="45" y="229" on="1"/>
        <pt x="45" y="288" on="1"/>
        <pt x="461" y="288" on="1"/>
        <pt x="461" y="229" on="1"/>
      </contour>
      <contour>
        <pt x="208" y="43" on="1"/>
        <pt x="208" y="139" on="1"/>
        <pt x="302" y="139" on="1"/>
        <pt x="302" y="43" on="1"/>
      </contour>
    </TTGlyph>
    <TTGlyph name="dollar" xMin="77" yMin="-199" xMax="567" yMax="858">
      <contour>
        <pt x="304" y="-199" on="1"/>
        <pt x="304" y="-9" on="1"/>
        <pt x="228" y="-6" on="0"/>
        <pt x="128" y="26" on="0"/>
        <pt x="77" y="57" on="1"/>
        <pt x="103" y="110" on="1"/>
        <pt x="183" y="55" on="0"/>
        <pt x="304" y="50" on="1"/>
        <pt x="304" y="348" on="1"/>
        <pt x="225" y="375" on="1"/>
        <pt x="175" y="392" on="0"/>
        <pt x="151" y="406" on="1"/>
        <pt x="94" y="441" on="0"/>
        <pt x="94" y="539" on="1"/>
        <pt x="94" y="627" on="0"/>
        <pt x="202" y="702" on="0"/>
        <pt x="304" y="706" on="1"/>
        <pt x="304" y="858" on="1"/>
        <pt x="358" y="858" on="1"/>
        <pt x="358" y="707" on="1"/>
        <pt x="491" y="703" on="0"/>
        <pt x="561" y="664" on="1"/>
        <pt x="543" y="610" on="1"/>
        <pt x="476" y="646" on="0"/>
        <pt x="358" y="649" on="1"/>
        <pt x="358" y="397" on="1"/>
        <pt x="437" y="370" on="1"/>
        <pt x="511" y="344" on="0"/>
        <pt x="567" y="273" on="0"/>
        <pt x="567" y="93" on="0"/>
        <pt x="468" y="-6" on="0"/>
        <pt x="358" y="-10" on="1"/>
        <pt x="358" y="-199" on="1"/>
      </contour>
      <contour>
        <pt x="501" y="198" on="1"/>
        <pt x="501" y="245" on="0"/>
        <pt x="472" y="290" on="0"/>
        <pt x="423" y="307" on="1"/>
        <pt x="423" y="307" on="0"/>
        <pt x="358" y="329" on="1"/>
        <pt x="358" y="49" on="1"/>
        <pt x="437" y="52" on="0"/>
        <pt x="501" y="120" on="0"/>
      </contour>
      <contour>
        <pt x="163" y="492" on="0"/>
        <pt x="190" y="455" on="0"/>
        <pt x="235" y="439" on="1"/>
        <pt x="235" y="439" on="0"/>
        <pt x="304" y="415" on="1"/>
        <pt x="304" y="648" on="1"/>
        <pt x="221" y="644" on="0"/>
        <pt x="163" y="594" on="0"/>
      </contour>
    </TTGlyph>
    <TTGlyph name="dotaccent" xMin="85" yMin="607" xMax="152" yMax="695">
      <contour>
        <pt x="85" y="607" on="1"/>
        <pt x="85" y="695" on="1"/>
        <pt x="152" y="695" on="1"/>
        <pt x="152" y="607" on="1"/>
      </contour>
    </TTGlyph>
    <TTGlyph name="dotlessi" xMin="100" yMin="0" xMax="173" yMax="514">
      <contour>
        <pt x="100" y="0" on="1"/>
        <pt x="100" y="514" on="1"/>
        <pt x="173" y="514" on="1"/>
        <pt x="173" y="0" on="1"/>
      </contour>
    </TTGlyph>
    <TTGlyph name="e" xMin="75" yMin="-10" xMax="477" yMax="522">
      <contour>
        <pt x="142" y="304" on="1"/>
        <pt x="410" y="304" on="1"/>
        <pt x="410" y="380" on="1"/>
        <pt x="410" y="426" on="0"/>
        <pt x="342" y="465" on="0"/>
        <pt x="277" y="465" on="1"/>
        <pt x="142" y="465" on="0"/>
        <pt x="142" y="368" on="1"/>
      </contour>
      <contour>
        <pt x="276" y="-10" on="1"/>
        <pt x="156" y="-10" on="0"/>
        <pt x="75" y="87" on="0"/>
        <pt x="75" y="194" on="1"/>
        <pt x="75" y="359" on="1"/>
        <pt x="75" y="522" on="0"/>
        <pt x="279" y="522" on="1"/>
        <pt x="376" y="522" on="0"/>
        <pt x="477" y="445" on="0"/>
        <pt x="477" y="374" on="1"/>
        <pt x="477" y="253" on="1"/>
        <pt x="142" y="253" on="1"/>
        <pt x="142" y="188" on="1"/>
        <pt x="142" y="109" on="0"/>
        <pt x="191" y="47" on="0"/>
        <pt x="355" y="47" on="0"/>
        <pt x="409" y="72" on="0"/>
        <pt x="415" y="124" on="1"/>
        <pt x="472" y="124" on="1"/>
        <pt x="464" y="46" on="0"/>
        <pt x="384" y="-10" on="0"/>
      </contour>
    </TTGlyph>
    <TTGlyph name="eacute" xMin="75" yMin="-10" xMax="477" yMax="774">
      <component glyphName="e" x="0" y="0" flags="0x1004"/>
      <component glyphName="acute" x="126" y="0" flags="0x1004"/>
    </TTGlyph>
    <TTGlyph name="ebreve" xMin="75" yMin="-10" xMax="477" yMax="663">
      <component glyphName="e" x="0" y="0" flags="0x1004"/>
      <component glyphName="breve" x="145" y="0" flags="0x1004"/>
    </TTGlyph>
    <TTGlyph name="ecaron" xMin="75" yMin="-10" xMax="477" yMax="701">
      <component glyphName="e" x="0" y="0" flags="0x1004"/>
      <component glyphName="caron" x="153" y="0" flags="0x1004"/>
    </TTGlyph>
    <TTGlyph name="ecircumflex" xMin="75" yMin="-10" xMax="477" yMax="709">
      <component glyphName="e" x="0" y="0" flags="0x1004"/>
      <component glyphName="circumflex" x="153" y="0" flags="0x1004"/>
    </TTGlyph>
    <TTGlyph name="edieresis" xMin="75" yMin="-10" xMax="477" yMax="670">
      <component glyphName="e" x="0" y="0" flags="0x1004"/>
      <component glyphName="dieresis" x="20" y="0" flags="0x1004"/>
    </TTGlyph>
    <TTGlyph name="edotaccent" xMin="75" yMin="-10" xMax="477" yMax="695">
      <component glyphName="e" x="0" y="0" flags="0x1004"/>
      <component glyphName="dotaccent" x="151" y="0" flags="0x1004"/>
    </TTGlyph>
    <TTGlyph name="egrave" xMin="75" yMin="-10" xMax="477" yMax="774">
      <component glyphName="grave" x="127" y="0" flags="0x1004"/>
      <component glyphName="e" x="0" y="0" flags="0x1004"/>
    </TTGlyph>
    <TTGlyph name="eight" xMin="55" yMin="-10" xMax="505" yMax="708">
      <contour>
        <pt x="139" y="537" on="1"/>
        <pt x="139" y="512" on="0"/>
        <pt x="151" y="490" on="1"/>
        <pt x="175" y="447" on="0"/>
        <pt x="281" y="396" on="1"/>
        <pt x="339" y="423" on="0"/>
        <pt x="376" y="451" on="1"/>
        <pt x="423" y="486" on="0"/>
        <pt x="423" y="537" on="1"/>
        <pt x="423" y="646" on="0"/>
        <pt x="139" y="646" on="0"/>
      </contour>
      <contour>
        <pt x="280" y="49" on="1"/>
        <pt x="356" y="49" on="0"/>
        <pt x="438" y="102" on="0"/>
        <pt x="438" y="241" on="0"/>
        <pt x="379" y="289" on="1"/>
        <pt x="346" y="316" on="0"/>
        <pt x="281" y="351" on="1"/>
        <pt x="218" y="318" on="0"/>
        <pt x="177" y="284" on="1"/>
        <pt x="125" y="240" on="0"/>
        <pt x="125" y="176" on="1"/>
        <pt x="125" y="102" on="0"/>
        <pt x="205" y="49" on="0"/>
      </contour>
      <contour>
        <pt x="280" y="-10" on="1"/>
        <pt x="55" y="-10" on="0"/>
        <pt x="55" y="178" on="1"/>
        <pt x="55" y="251" on="0"/>
        <pt x="142" y="348" on="0"/>
        <pt x="203" y="375" on="1"/>
        <pt x="148" y="402" on="0"/>
        <pt x="114" y="430" on="1"/>
        <pt x="69" y="465" on="0"/>
        <pt x="69" y="533" on="1"/>
        <pt x="69" y="708" on="0"/>
        <pt x="281" y="708" on="1"/>
        <pt x="360" y="708" on="0"/>
        <pt x="420" y="678" on="1"/>
        <pt x="455" y="660" on="0"/>
        <pt x="495" y="587" on="0"/>
        <pt x="495" y="490" on="0"/>
        <pt x="474" y="456" on="1"/>
        <pt x="466" y="443" on="0"/>
        <pt x="434" y="416" on="0"/>
        <pt x="410" y="401" on="0"/>
        <pt x="363" y="375" on="1"/>
        <pt x="505" y="299" on="0"/>
        <pt x="505" y="177" on="1"/>
        <pt x="505" y="-10" on="0"/>
      </contour>
    </TTGlyph>
    <TTGlyph name="ellipsis" xMin="114" yMin="0" xMax="857" yMax="106">
      <component glyphName="period" x="647" y="0" flags="0x1004"/>
      <component glyphName="period" x="332" y="0" flags="0x1004"/>
      <component glyphName="period" x="17" y="0" flags="0x1004"/>
    </TTGlyph>
    <TTGlyph name="emacron" xMin="75" yMin="-10" xMax="477" yMax="672">
      <component glyphName="macron" x="150" y="0" flags="0x1004"/>
      <component glyphName="e" x="0" y="0" flags="0x1004"/>
    </TTGlyph>
    <TTGlyph name="emdash" xMin="0" yMin="202" xMax="578" yMax="265">
      <contour>
        <pt x="0" y="202" on="1"/>
        <pt x="0" y="265" on="1"/>
        <pt x="578" y="265" on="1"/>
        <pt x="578" y="202" on="1"/>
      </contour>
    </TTGlyph>
    <TTGlyph name="emptyset" xMin="78" yMin="0" xMax="680" yMax="648">
      <contour>
        <pt x="379" y="32" on="1"/>
        <pt x="280" y="32" on="0"/>
        <pt x="203" y="87" on="1"/>
        <pt x="203" y="87" on="0"/>
        <pt x="130" y="0" on="1"/>
        <pt x="104" y="21" on="1"/>
        <pt x="177" y="108" on="1"/>
        <pt x="78" y="196" on="0"/>
        <pt x="78" y="460" on="0"/>
        <pt x="252" y="633" on="0"/>
        <pt x="379" y="633" on="1"/>
        <pt x="484" y="633" on="0"/>
        <pt x="565" y="571" on="1"/>
        <pt x="565" y="571" on="0"/>
        <pt x="629" y="648" on="1"/>
        <pt x="656" y="626" on="1"/>
        <pt x="591" y="549" on="1"/>
        <pt x="680" y="462" on="0"/>
        <pt x="680" y="205" on="0"/>
        <pt x="507" y="32" on="0"/>
      </contour>
      <contour>
        <pt x="566" y="519" on="1"/>
        <pt x="566" y="519" on="0"/>
        <pt x="228" y="117" on="1"/>
        <pt x="294" y="70" on="0"/>
        <pt x="380" y="70" on="1"/>
        <pt x="492" y="70" on="0"/>
        <pt x="638" y="220" on="0"/>
        <pt x="638" y="444" on="0"/>
      </contour>
      <contour>
        <pt x="202" y="138" on="1"/>
        <pt x="540" y="542" on="1"/>
        <pt x="471" y="595" on="0"/>
        <pt x="380" y="595" on="1"/>
        <pt x="269" y="595" on="0"/>
        <pt x="121" y="445" on="0"/>
        <pt x="121" y="213" on="0"/>
      </contour>
    </TTGlyph>
    <TTGlyph name="endash" xMin="-36" yMin="343" xMax="246" yMax="393">
      <contour>
        <pt x="-36" y="343" on="1"/>
        <pt x="-36" y="393" on="1"/>
        <pt x="246" y="393" on="1"/>
        <pt x="246" y="343" on="1"/>
      </contour>
    </TTGlyph>
    <TTGlyph name="eng" xMin="99" yMin="-140" xMax="498" yMax="522">
      <contour>
        <pt x="431" y="115" on="1"/>
        <pt x="431" y="385" on="1"/>
        <pt x="431" y="422" on="0"/>
        <pt x="370" y="465" on="0"/>
        <pt x="312" y="465" on="1"/>
        <pt x="166" y="465" on="0"/>
        <pt x="166" y="368" on="1"/>
        <pt x="166" y="0" on="1"/>
        <pt x="99" y="0" on="1"/>
        <pt x="99" y="514" on="1"/>
        <pt x="166" y="514" on="1"/>
        <pt x="166" y="470" on="1"/>
        <pt x="223" y="522" on="0"/>
        <pt x="316" y="522" on="1"/>
        <pt x="498" y="522" on="0"/>
        <pt x="498" y="369" on="1"/>
        <pt x="498" y="119" on="1"/>
        <pt x="498" y="58" on="0"/>
        <pt x="495" y="20" on="1"/>
        <pt x="488" y="-73" on="0"/>
        <pt x="456" y="-104" on="1"/>
        <pt x="418" y="-140" on="0"/>
        <pt x="339" y="-140" on="1"/>
        <pt x="325" y="-85" on="1"/>
        <pt x="328" y="-85" on="0"/>
        <pt x="341" y="-86" on="0"/>
        <pt x="343" y="-86" on="1"/>
        <pt x="400" y="-86" on="0"/>
        <pt x="432" y="-36" on="0"/>
        <pt x="432" y="31" on="1"/>
      </contour>
    </TTGlyph>
    <TTGlyph name="eogonek" xMin="75" yMin="-223" xMax="477" yMax="522">
      <component glyphName="ogonek" x="164" y="0" flags="0x1004"/>
      <component glyphName="e" x="0" y="0" flags="0x1004"/>
    </TTGlyph>
    <TTGlyph name="equal" xMin="142" yMin="256" xMax="577" yMax="477">
      <contour>
        <pt x="142" y="412" on="1"/>
        <pt x="142" y="477" on="1"/>
        <pt x="577" y="477" on="1"/>
        <pt x="577" y="412" on="1"/>
      </contour>
      <contour>
        <pt x="142" y="256" on="1"/>
        <pt x="142" y="321" on="1"/>
        <pt x="577" y="321" on="1"/>
        <pt x="577" y="256" on="1"/>
      </contour>
    </TTGlyph>
    <TTGlyph name="estimated" xMin="46" yMin="87" xMax="542" yMax="625">
      <contour>
        <pt x="46" y="356" on="1"/>
        <pt x="46" y="471" on="0"/>
        <pt x="195" y="625" on="0"/>
        <pt x="424" y="625" on="0"/>
        <pt x="542" y="474" on="0"/>
        <pt x="542" y="349" on="1"/>
        <pt x="145" y="349" on="1"/>
        <pt x="145" y="193" on="1"/>
        <pt x="176" y="157" on="0"/>
        <pt x="272" y="117" on="0"/>
        <pt x="371" y="117" on="0"/>
        <pt x="481" y="162" on="0"/>
        <pt x="522" y="205" on="1"/>
        <pt x="538" y="188" on="1"/>
        <pt x="454" y="87" on="0"/>
        <pt x="188" y="87" on="0"/>
        <pt x="46" y="235" on="0"/>
      </contour>
      <contour>
        <pt x="312" y="602" on="1"/>
        <pt x="264" y="602" on="0"/>
        <pt x="175" y="561" on="0"/>
        <pt x="147" y="524" on="1"/>
        <pt x="147" y="380" on="1"/>
        <pt x="470" y="380" on="1"/>
        <pt x="470" y="523" on="1"/>
        <pt x="444" y="561" on="0"/>
        <pt x="360" y="602" on="0"/>
      </contour>
    </TTGlyph>
    <TTGlyph name="eth" xMin="68" yMin="-9" xMax="443" yMax="778">
      <contour>
        <pt x="260" y="42" on="1"/>
        <pt x="331" y="42" on="0"/>
        <pt x="378" y="93" on="0"/>
        <pt x="378" y="136" on="1"/>
        <pt x="378" y="155" on="1"/>
        <pt x="378" y="384" on="0"/>
        <pt x="384" y="397" on="1"/>
        <pt x="367" y="406" on="0"/>
        <pt x="287" y="418" on="0"/>
        <pt x="260" y="418" on="1"/>
        <pt x="203" y="418" on="0"/>
        <pt x="133" y="375" on="0"/>
        <pt x="133" y="330" on="1"/>
        <pt x="133" y="143" on="1"/>
        <pt x="133" y="42" on="0"/>
      </contour>
      <contour>
        <pt x="260" y="-9" on="1"/>
        <pt x="68" y="-9" on="0"/>
        <pt x="68" y="145" on="1"/>
        <pt x="68" y="324" on="1"/>
        <pt x="68" y="392" on="0"/>
        <pt x="175" y="476" on="0"/>
        <pt x="349" y="476" on="0"/>
        <pt x="389" y="442" on="1"/>
        <pt x="389" y="446" on="0"/>
        <pt x="390" y="461" on="0"/>
        <pt x="390" y="465" on="1"/>
        <pt x="390" y="582" on="0"/>
        <pt x="302" y="643" on="1"/>
        <pt x="218" y="534" on="1"/>
        <pt x="178" y="558" on="1"/>
        <pt x="257" y="662" on="1"/>
        <pt x="216" y="669" on="0"/>
        <pt x="134" y="669" on="0"/>
        <pt x="96" y="663" on="1"/>
        <pt x="111" y="714" on="1"/>
        <pt x="159" y="726" on="0"/>
        <pt x="252" y="726" on="0"/>
        <pt x="304" y="713" on="1"/>
        <pt x="357" y="778" on="1"/>
        <pt x="396" y="754" on="1"/>
        <pt x="341" y="690" on="1"/>
        <pt x="376" y="668" on="0"/>
        <pt x="398" y="638" on="1"/>
        <pt x="443" y="575" on="0"/>
        <pt x="443" y="440" on="1"/>
        <pt x="443" y="142" on="1"/>
        <pt x="443" y="100" on="0"/>
        <pt x="436" y="72" on="1"/>
        <pt x="431" y="51" on="0"/>
        <pt x="407" y="27" on="0"/>
        <pt x="388" y="14" on="1"/>
        <pt x="351" y="-9" on="0"/>
      </contour>
    </TTGlyph>
    <TTGlyph name="exclam" xMin="98" yMin="0" xMax="184" yMax="697">
      <contour>
        <pt x="183" y="697" on="1"/>
        <pt x="183" y="431" on="0"/>
        <pt x="150" y="170" on="1"/>
        <pt x="129" y="170" on="1"/>
        <pt x="122" y="242" on="1"/>
        <pt x="101" y="460" on="0"/>
        <pt x="101" y="697" on="1"/>
      </contour>
      <contour>
        <pt x="98" y="0" on="1"/>
        <pt x="98" y="89" on="1"/>
        <pt x="184" y="89" on="1"/>
        <pt x="184" y="0" on="1"/>
      </contour>
    </TTGlyph>
    <TTGlyph name="exclamdown" xMin="97" yMin="-150" xMax="183" yMax="547">
      <component glyphName="exclam" x="281" y="547" scale="-1.0" flags="0x1004"/>
    </TTGlyph>
    <TTGlyph name="f" xMin="55" yMin="0" xMax="363" yMax="731">
      <contour>
        <pt x="151" y="0" on="1"/>
        <pt x="151" y="459" on="1"/>
        <pt x="55" y="459" on="1"/>
        <pt x="55" y="514" on="1"/>
        <pt x="151" y="514" on="1"/>
        <pt x="151" y="625" on="1"/>
        <pt x="151" y="683" on="0"/>
        <pt x="224" y="731" on="0"/>
        <pt x="299" y="731" on="1"/>
        <pt x="355" y="731" on="1"/>
        <pt x="363" y="683" on="1"/>
        <pt x="297" y="683" on="1"/>
        <pt x="218" y="683" on="0"/>
        <pt x="218" y="621" on="1"/>
        <pt x="218" y="514" on="1"/>
        <pt x="356" y="514" on="1"/>
        <pt x="356" y="459" on="1"/>
        <pt x="218" y="459" on="1"/>
        <pt x="218" y="0" on="1"/>
      </contour>
    </TTGlyph>
    <TTGlyph name="f_f" xMin="55" yMin="0" xMax="758" yMax="731">
      <component glyphName="f" x="395" y="0" flags="0x1004"/>
      <component glyphName="f" x="0" y="0" flags="0x1004"/>
    </TTGlyph>
    <TTGlyph name="f_f_i" xMin="55" yMin="0" xMax="950" yMax="731">
      <component glyphName="i" x="777" y="0" flags="0x1004"/>
      <component glyphName="f" x="395" y="0" flags="0x1004"/>
      <component glyphName="f" x="0" y="0" flags="0x1004"/>
    </TTGlyph>
    <TTGlyph name="f_f_l" xMin="55" yMin="-3" xMax="1055" yMax="732">
      <component glyphName="l" x="777" y="0" flags="0x1004"/>
      <component glyphName="f" x="395" y="0" flags="0x1004"/>
      <component glyphName="f" x="0" y="0" flags="0x1004"/>
    </TTGlyph>
    <TTGlyph name="five" xMin="69" yMin="-10" xMax="488" yMax="697">
      <contour>
        <pt x="267" y="-10" on="1"/>
        <pt x="189" y="-10" on="0"/>
        <pt x="127" y="18" on="1"/>
        <pt x="104" y="29" on="0"/>
        <pt x="69" y="47" on="1"/>
        <pt x="87" y="108" on="1"/>
        <pt x="177" y="50" on="0"/>
        <pt x="343" y="50" on="0"/>
        <pt x="426" y="134" on="0"/>
        <pt x="426" y="291" on="0"/>
        <pt x="351" y="371" on="0"/>
        <pt x="292" y="371" on="1"/>
        <pt x="211" y="371" on="0"/>
        <pt x="155" y="323" on="1"/>
        <pt x="104" y="338" on="1"/>
        <pt x="120" y="697" on="1"/>
        <pt x="449" y="697" on="1"/>
        <pt x="449" y="641" on="1"/>
        <pt x="180" y="641" on="1"/>
        <pt x="159" y="386" on="1"/>
        <pt x="212" y="431" on="0"/>
        <pt x="378" y="431" on="0"/>
        <pt x="488" y="324" on="0"/>
        <pt x="488" y="109" on="0"/>
        <pt x="374" y="-10" on="0"/>
      </contour>
    </TTGlyph>
    <TTGlyph name="florin" xMin="37" yMin="-91" xMax="327" yMax="709">
      <contour>
        <pt x="84" y="-91" on="1"/>
        <pt x="61" y="-91" on="0"/>
        <pt x="37" y="-88" on="1"/>
        <pt x="37" y="-48" on="1"/>
        <pt x="43" y="-48" on="1"/>
        <pt x="96" y="-48" on="0"/>
        <pt x="152" y="-16" on="0"/>
        <pt x="152" y="27" on="1"/>
        <pt x="152" y="330" on="1"/>
        <pt x="55" y="330" on="1"/>
        <pt x="55" y="369" on="1"/>
        <pt x="152" y="369" on="1"/>
        <pt x="152" y="556" on="1"/>
        <pt x="152" y="644" on="0"/>
        <pt x="221" y="709" on="0"/>
        <pt x="281" y="709" on="1"/>
        <pt x="297" y="709" on="0"/>
        <pt x="327" y="707" on="1"/>
        <pt x="327" y="669" on="1"/>
        <pt x="319" y="670" on="0"/>
        <pt x="304" y="670" on="1"/>
        <pt x="256" y="670" on="0"/>
        <pt x="216" y="619" on="0"/>
        <pt x="216" y="566" on="1"/>
        <pt x="216" y="369" on="1"/>
        <pt x="318" y="369" on="1"/>
        <pt x="318" y="330" on="1"/>
        <pt x="216" y="330" on="1"/>
        <pt x="216" y="42" on="1"/>
        <pt x="216" y="-91" on="0"/>
      </contour>
    </TTGlyph>
    <TTGlyph name="foundryicon" xMin="17" yMin="1" xMax="641" yMax="593">
      <contour>
        <pt x="137" y="1" on="1"/>
        <pt x="207" y="225" on="1"/>
        <pt x="17" y="369" on="1"/>
        <pt x="253" y="369" on="1"/>
        <pt x="327" y="593" on="1"/>
        <pt x="404" y="369" on="1"/>
        <pt x="641" y="369" on="1"/>
        <pt x="450" y="225" on="1"/>
        <pt x="521" y="1" on="1"/>
        <pt x="327" y="136" on="1"/>
      </contour>
      <contour>
        <pt x="237" y="198" on="1"/>
        <pt x="289" y="198" on="1"/>
        <pt x="289" y="270" on="1"/>
        <pt x="372" y="198" on="1"/>
        <pt x="423" y="198" on="1"/>
        <pt x="423" y="328" on="1"/>
        <pt x="372" y="328" on="1"/>
        <pt x="372" y="255" on="1"/>
        <pt x="289" y="328" on="1"/>
        <pt x="237" y="328" on="1"/>
      </contour>
    </TTGlyph>
    <TTGlyph name="four" xMin="49" yMin="0" xMax="516" yMax="697">
      <contour>
        <pt x="353" y="0" on="1"/>
        <pt x="353" y="188" on="1"/>
        <pt x="49" y="188" on="1"/>
        <pt x="49" y="241" on="1"/>
        <pt x="292" y="697" on="1"/>
        <pt x="361" y="697" on="1"/>
        <pt x="124" y="241" on="1"/>
        <pt x="353" y="241" on="1"/>
        <pt x="353" y="401" on="1"/>
        <pt x="414" y="401" on="1"/>
        <pt x="414" y="241" on="1"/>
        <pt x="516" y="241" on="1"/>
        <pt x="516" y="188" on="1"/>
        <pt x="414" y="188" on="1"/>
        <pt x="414" y="0" on="1"/>
      </contour>
    </TTGlyph>
    <TTGlyph name="fraction" xMin="-3" yMin="0" xMax="334" yMax="732">
      <contour>
        <pt x="-3" y="0" on="1"/>
        <pt x="267" y="732" on="1"/>
        <pt x="334" y="732" on="1"/>
        <pt x="66" y="0" on="1"/>
      </contour>
    </TTGlyph>
    <TTGlyph name="g" xMin="75" yMin="-189" xMax="474" yMax="522">
      <contour>
        <pt x="275" y="82" on="1"/>
        <pt x="355" y="82" on="0"/>
        <pt x="407" y="130" on="1"/>
        <pt x="407" y="374" on="1"/>
        <pt x="407" y="422" on="0"/>
        <pt x="345" y="465" on="0"/>
        <pt x="213" y="465" on="0"/>
        <pt x="142" y="414" on="0"/>
        <pt x="142" y="363" on="1"/>
        <pt x="142" y="169" on="1"/>
        <pt x="142" y="82" on="0"/>
      </contour>
      <contour>
        <pt x="298" y="-189" on="1"/>
        <pt x="174" y="-189" on="0"/>
        <pt x="129" y="-175" on="1"/>
        <pt x="145" y="-119" on="1"/>
        <pt x="179" y="-136" on="0"/>
        <pt x="343" y="-136" on="0"/>
        <pt x="407" y="-77" on="0"/>
        <pt x="407" y="-16" on="1"/>
        <pt x="407" y="65" on="1"/>
        <pt x="388" y="43" on="0"/>
        <pt x="300" y="22" on="0"/>
        <pt x="266" y="22" on="1"/>
        <pt x="166" y="22" on="0"/>
        <pt x="75" y="105" on="0"/>
        <pt x="75" y="189" on="1"/>
        <pt x="75" y="349" on="1"/>
        <pt x="75" y="434" on="0"/>
        <pt x="174" y="522" on="0"/>
        <pt x="368" y="522" on="0"/>
        <pt x="408" y="474" on="1"/>
        <pt x="416" y="513" on="1"/>
        <pt x="474" y="513" on="1"/>
        <pt x="474" y="23" on="1"/>
        <pt x="474" y="-69" on="0"/>
        <pt x="383" y="-189" on="0"/>
      </contour>
    </TTGlyph>
    <TTGlyph name="gbreve" xMin="75" yMin="-189" xMax="474" yMax="663">
      <component glyphName="g" x="0" y="0" flags="0x1004"/>
      <component glyphName="breve" x="142" y="0" flags="0x1004"/>
    </TTGlyph>
    <TTGlyph name="gcaron" xMin="75" yMin="-189" xMax="474" yMax="701">
      <component glyphName="g" x="0" y="0" flags="0x1004"/>
      <component glyphName="caron" x="150" y="0" flags="0x1004"/>
    </TTGlyph>
    <TTGlyph name="gcircumflex" xMin="75" yMin="-189" xMax="474" yMax="709">
      <component glyphName="g" x="0" y="0" flags="0x1004"/>
      <component glyphName="circumflex" x="150" y="0" flags="0x1004"/>
    </TTGlyph>
    <TTGlyph name="gdotaccent" xMin="75" yMin="-189" xMax="474" yMax="695">
      <component glyphName="g" x="0" y="0" flags="0x1004"/>
      <component glyphName="dotaccent" x="147" y="0" flags="0x1004"/>
    </TTGlyph>
    <TTGlyph name="germandbls" xMin="107" yMin="0" xMax="556" yMax="717">
      <contour>
        <pt x="107" y="0" on="1"/>
        <pt x="107" y="534" on="1"/>
        <pt x="107" y="626" on="0"/>
        <pt x="154" y="670" on="1"/>
        <pt x="205" y="717" on="0"/>
        <pt x="330" y="717" on="1"/>
        <pt x="412" y="717" on="0"/>
        <pt x="499" y="635" on="0"/>
        <pt x="499" y="499" on="0"/>
        <pt x="476" y="454" on="0"/>
        <pt x="447" y="446" on="1"/>
        <pt x="449" y="441" on="0"/>
        <pt x="473" y="434" on="0"/>
        <pt x="504" y="419" on="0"/>
        <pt x="535" y="389" on="0"/>
        <pt x="556" y="317" on="0"/>
        <pt x="556" y="264" on="1"/>
        <pt x="556" y="106" on="0"/>
        <pt x="467" y="53" on="1"/>
        <pt x="422" y="26" on="0"/>
        <pt x="314" y="6" on="0"/>
        <pt x="236" y="6" on="1"/>
        <pt x="228" y="66" on="1"/>
        <pt x="267" y="70" on="0"/>
        <pt x="329" y="76" on="1"/>
        <pt x="449" y="85" on="0"/>
        <pt x="480" y="148" on="1"/>
        <pt x="504" y="193" on="0"/>
        <pt x="504" y="255" on="1"/>
        <pt x="504" y="337" on="0"/>
        <pt x="418" y="396" on="0"/>
        <pt x="333" y="396" on="1"/>
        <pt x="288" y="396" on="1"/>
        <pt x="288" y="451" on="1"/>
        <pt x="373" y="451" on="0"/>
        <pt x="434" y="495" on="0"/>
        <pt x="434" y="549" on="1"/>
        <pt x="434" y="585" on="0"/>
        <pt x="426" y="608" on="1"/>
        <pt x="410" y="654" on="0"/>
        <pt x="329" y="654" on="1"/>
        <pt x="313" y="654" on="1"/>
        <pt x="258" y="654" on="0"/>
        <pt x="230" y="648" on="1"/>
        <pt x="207" y="642" on="0"/>
        <pt x="195" y="632" on="1"/>
        <pt x="164" y="606" on="0"/>
        <pt x="164" y="553" on="1"/>
        <pt x="164" y="0" on="1"/>
      </contour>
    </TTGlyph>
    <TTGlyph name="grave" xMin="-3" yMin="584" xMax="169" yMax="774">
      <contour>
        <pt x="-3" y="774" on="1"/>
        <pt x="95" y="774" on="1"/>
        <pt x="169" y="584" on="1"/>
        <pt x="113" y="584" on="1"/>
      </contour>
    </TTGlyph>
    <TTGlyph name="greater" xMin="118" yMin="-9" xMax="592" yMax="577">
      <contour>
        <pt x="118" y="-9" on="1"/>
        <pt x="118" y="83" on="1"/>
        <pt x="524" y="283" on="1"/>
        <pt x="118" y="482" on="1"/>
        <pt x="118" y="577" on="1"/>
        <pt x="592" y="331" on="1"/>
        <pt x="592" y="238" on="1"/>
      </contour>
    </TTGlyph>
    <TTGlyph name="guillemotleft" xMin="85" yMin="39" xMax="435" yMax="479">
      <contour>
        <pt x="217" y="39" on="1"/>
        <pt x="85" y="259" on="1"/>
        <pt x="213" y="479" on="1"/>
        <pt x="261" y="454" on="1"/>
        <pt x="160" y="259" on="1"/>
        <pt x="261" y="63" on="1"/>
      </contour>
      <contour>
        <pt x="391" y="39" on="1"/>
        <pt x="259" y="259" on="1"/>
        <pt x="387" y="479" on="1"/>
        <pt x="435" y="454" on="1"/>
        <pt x="333" y="259" on="1"/>
        <pt x="435" y="63" on="1"/>
      </contour>
    </TTGlyph>
    <TTGlyph name="guillemotright" xMin="100" yMin="39" xMax="449" yMax="479">
      <contour>
        <pt x="321" y="479" on="1"/>
        <pt x="449" y="259" on="1"/>
        <pt x="317" y="39" on="1"/>
        <pt x="273" y="63" on="1"/>
        <pt x="375" y="259" on="1"/>
        <pt x="273" y="454" on="1"/>
      </contour>
      <contour>
        <pt x="147" y="479" on="1"/>
        <pt x="275" y="259" on="1"/>
        <pt x="144" y="39" on="1"/>
        <pt x="100" y="63" on="1"/>
        <pt x="201" y="259" on="1"/>
        <pt x="100" y="454" on="1"/>
      </contour>
    </TTGlyph>
    <TTGlyph name="guilsinglleft" xMin="80" yMin="39" xMax="256" yMax="479">
      <contour>
        <pt x="212" y="39" on="1"/>
        <pt x="80" y="259" on="1"/>
        <pt x="208" y="479" on="1"/>
        <pt x="256" y="454" on="1"/>
        <pt x="155" y="259" on="1"/>
        <pt x="256" y="63" on="1"/>
      </contour>
    </TTGlyph>
    <TTGlyph name="guilsinglright" xMin="104" yMin="39" xMax="280" yMax="479">
      <contour>
        <pt x="152" y="479" on="1"/>
        <pt x="280" y="259" on="1"/>
        <pt x="148" y="39" on="1"/>
        <pt x="104" y="63" on="1"/>
        <pt x="206" y="259" on="1"/>
        <pt x="104" y="454" on="1"/>
      </contour>
    </TTGlyph>
    <TTGlyph name="h" xMin="96" yMin="0" xMax="495" yMax="732">
      <contour>
        <pt x="96" y="0" on="1"/>
        <pt x="96" y="732" on="1"/>
        <pt x="163" y="732" on="1"/>
        <pt x="163" y="461" on="1"/>
        <pt x="208" y="522" on="0"/>
        <pt x="421" y="522" on="0"/>
        <pt x="495" y="440" on="0"/>
        <pt x="495" y="371" on="1"/>
        <pt x="495" y="0" on="1"/>
        <pt x="428" y="0" on="1"/>
        <pt x="428" y="390" on="1"/>
        <pt x="428" y="469" on="0"/>
        <pt x="321" y="469" on="1"/>
        <pt x="241" y="469" on="0"/>
        <pt x="163" y="414" on="0"/>
        <pt x="163" y="373" on="1"/>
        <pt x="163" y="0" on="1"/>
      </contour>
    </TTGlyph>
    <TTGlyph name="hbar" xMin="16" yMin="0" xMax="495" yMax="732">
      <contour>
        <pt x="96" y="0" on="1"/>
        <pt x="96" y="613" on="1"/>
        <pt x="16" y="613" on="1"/>
        <pt x="16" y="663" on="1"/>
        <pt x="96" y="663" on="1"/>
        <pt x="96" y="732" on="1"/>
        <pt x="163" y="732" on="1"/>
        <pt x="163" y="663" on="1"/>
        <pt x="283" y="663" on="1"/>
        <pt x="283" y="613" on="1"/>
        <pt x="163" y="613" on="1"/>
        <pt x="163" y="461" on="1"/>
        <pt x="208" y="522" on="0"/>
        <pt x="421" y="522" on="0"/>
        <pt x="495" y="440" on="0"/>
        <pt x="495" y="371" on="1"/>
        <pt x="495" y="0" on="1"/>
        <pt x="428" y="0" on="1"/>
        <pt x="428" y="390" on="1"/>
        <pt x="428" y="469" on="0"/>
        <pt x="321" y="469" on="1"/>
        <pt x="241" y="469" on="0"/>
        <pt x="163" y="414" on="0"/>
        <pt x="163" y="373" on="1"/>
        <pt x="163" y="0" on="1"/>
      </contour>
    </TTGlyph>
    <TTGlyph name="hcircumflex" xMin="96" yMin="0" xMax="495" yMax="846">
      <component glyphName="h" x="0" y="0" flags="0x1004"/>
      <component glyphName="circumflex" x="206" y="137" flags="0x1004"/>
    </TTGlyph>
    <TTGlyph name="hungarumlaut" xMin="107" yMin="593" xMax="461" yMax="784">
      <contour>
        <pt x="273" y="593" on="1"/>
        <pt x="372" y="784" on="1"/>
        <pt x="461" y="784" on="1"/>
        <pt x="322" y="593" on="1"/>
      </contour>
      <contour>
        <pt x="107" y="593" on="1"/>
        <pt x="181" y="784" on="1"/>
        <pt x="269" y="784" on="1"/>
        <pt x="153" y="593" on="1"/>
      </contour>
    </TTGlyph>
    <TTGlyph name="hyphen" xMin="96" yMin="254" xMax="396" yMax="304">
      <contour>
        <pt x="96" y="254" on="1"/>
        <pt x="96" y="304" on="1"/>
        <pt x="396" y="304" on="1"/>
        <pt x="396" y="254" on="1"/>
      </contour>
    </TTGlyph>
    <TTGlyph name="i" xMin="100" yMin="0" xMax="173" yMax="695">
      <component glyphName="dotlessi" x="0" y="0" flags="0x1004"/>
      <component glyphName="dotaccent" x="17" y="0" flags="0x1004"/>
    </TTGlyph>
    <TTGlyph name="iacute" xMin="100" yMin="0" xMax="293" yMax="774">
      <component glyphName="dotlessi" x="0" y="0" flags="0x1004"/>
      <component glyphName="acute" x="-7" y="0" flags="0x1004"/>
    </TTGlyph>
    <TTGlyph name="ibreve" xMin="34" yMin="0" xMax="238" yMax="663">
      <component glyphName="dotlessi" x="0" y="0" flags="0x1004"/>
      <component glyphName="breve" x="11" y="0" flags="0x1004"/>
    </TTGlyph>
    <TTGlyph name="icircumflex" xMin="16" yMin="0" xMax="270" yMax="709">
      <component glyphName="dotlessi" x="0" y="0" flags="0x1004"/>
      <component glyphName="circumflex" x="20" y="0" flags="0x1004"/>
    </TTGlyph>
    <TTGlyph name="idieresis" xMin="5" yMin="0" xMax="274" yMax="670">
      <component glyphName="dotlessi" x="0" y="0" flags="0x1004"/>
      <component glyphName="dieresis" x="-114" y="0" flags="0x1004"/>
    </TTGlyph>
    <TTGlyph name="igrave" xMin="-10" yMin="0" xMax="173" yMax="774">
      <component glyphName="grave" x="-7" y="0" flags="0x1004"/>
      <component glyphName="dotlessi" x="0" y="0" flags="0x1004"/>
    </TTGlyph>
    <TTGlyph name="ij" xMin="100" yMin="-175" xMax="446" yMax="695">
      <component glyphName="j" x="267" y="0" flags="0x1004"/>
      <component glyphName="i" x="0" y="0" flags="0x1004"/>
    </TTGlyph>
    <TTGlyph name="imacron" xMin="23" yMin="0" xMax="260" yMax="672">
      <component glyphName="macron" x="16" y="0" flags="0x1004"/>
      <component glyphName="dotlessi" x="0" y="0" flags="0x1004"/>
    </TTGlyph>
    <TTGlyph name="infinity" xMin="12" yMin="275" xMax="677" yMax="564">
      <contour>
        <pt x="541" y="522" on="1"/>
        <pt x="461" y="522" on="0"/>
        <pt x="368" y="427" on="1"/>
        <pt x="470" y="319" on="0"/>
        <pt x="548" y="319" on="1"/>
        <pt x="582" y="319" on="0"/>
        <pt x="622" y="370" on="0"/>
        <pt x="622" y="470" on="0"/>
        <pt x="578" y="522" on="0"/>
      </contour>
      <contour>
        <pt x="67" y="419" on="1"/>
        <pt x="67" y="370" on="0"/>
        <pt x="107" y="319" on="0"/>
        <pt x="141" y="319" on="1"/>
        <pt x="219" y="319" on="0"/>
        <pt x="321" y="427" on="1"/>
        <pt x="228" y="522" on="0"/>
        <pt x="148" y="522" on="1"/>
        <pt x="111" y="522" on="0"/>
        <pt x="67" y="470" on="0"/>
      </contour>
      <contour>
        <pt x="549" y="564" on="1"/>
        <pt x="616" y="564" on="0"/>
        <pt x="677" y="480" on="0"/>
        <pt x="677" y="360" on="0"/>
        <pt x="616" y="275" on="0"/>
        <pt x="549" y="275" on="1"/>
        <pt x="518" y="275" on="0"/>
        <pt x="489" y="286" on="1"/>
        <pt x="475" y="292" on="0"/>
        <pt x="447" y="307" on="0"/>
        <pt x="423" y="323" on="0"/>
        <pt x="398" y="341" on="0"/>
        <pt x="380" y="357" on="0"/>
        <pt x="363" y="373" on="0"/>
        <pt x="353" y="384" on="0"/>
        <pt x="344" y="393" on="1"/>
        <pt x="322" y="368" on="0"/>
        <pt x="280" y="332" on="1"/>
        <pt x="251" y="308" on="0"/>
        <pt x="175" y="275" on="0"/>
        <pt x="140" y="275" on="1"/>
        <pt x="73" y="275" on="0"/>
        <pt x="12" y="360" on="0"/>
        <pt x="12" y="480" on="0"/>
        <pt x="73" y="564" on="0"/>
        <pt x="140" y="564" on="1"/>
        <pt x="169" y="564" on="0"/>
        <pt x="200" y="554" on="1"/>
        <pt x="280" y="527" on="0"/>
        <pt x="344" y="463" on="1"/>
        <pt x="456" y="564" on="0"/>
      </contour>
    </TTGlyph>
    <TTGlyph name="integral" xMin="95" yMin="-220" xMax="381" yMax="725">
      <contour>
        <pt x="375" y="667" on="1"/>
        <pt x="321" y="667" on="0"/>
        <pt x="283" y="624" on="0"/>
        <pt x="283" y="585" on="1"/>
        <pt x="283" y="-90" on="1"/>
        <pt x="283" y="-162" on="0"/>
        <pt x="216" y="-220" on="0"/>
        <pt x="145" y="-220" on="1"/>
        <pt x="119" y="-220" on="0"/>
        <pt x="95" y="-217" on="1"/>
        <pt x="95" y="-163" on="1"/>
        <pt x="114" y="-163" on="1"/>
        <pt x="159" y="-163" on="0"/>
        <pt x="196" y="-136" on="0"/>
        <pt x="196" y="-104" on="1"/>
        <pt x="196" y="576" on="1"/>
        <pt x="196" y="661" on="0"/>
        <pt x="261" y="725" on="0"/>
        <pt x="335" y="725" on="1"/>
        <pt x="339" y="725" on="0"/>
        <pt x="381" y="722" on="1"/>
        <pt x="381" y="668" on="1"/>
      </contour>
    </TTGlyph>
    <TTGlyph name="iogonek" xMin="44" yMin="-223" xMax="173" yMax="695">
      <component glyphName="ogonek" x="-27" y="0" flags="0x1004"/>
      <component glyphName="dotlessi" x="0" y="0" flags="0x1004"/>
      <component glyphName="dotaccent" x="17" y="0" flags="0x1004"/>
    </TTGlyph>
    <TTGlyph name="itilde" xMin="8" yMin="0" xMax="279" yMax="693">
      <component glyphName="tilde" x="55" y="0" flags="0x1004"/>
      <component glyphName="dotlessi" x="0" y="0" flags="0x1004"/>
    </TTGlyph>
    <TTGlyph name="j" xMin="19" yMin="-175" xMax="179" yMax="695">
      <component glyphName="uni0237" x="0" y="0" flags="0x1004"/>
      <component glyphName="dotaccent" x="26" y="0" flags="0x1004"/>
    </TTGlyph>
    <TTGlyph name="jcircumflex" xMin="19" yMin="-175" xMax="279" yMax="709">
      <component glyphName="uni0237" x="0" y="0" flags="0x1004"/>
      <component glyphName="circumflex" x="29" y="0" flags="0x1004"/>
    </TTGlyph>
    <TTGlyph name="k" xMin="96" yMin="0" xMax="533" yMax="732">
      <contour>
        <pt x="96" y="0" on="1"/>
        <pt x="96" y="732" on="1"/>
        <pt x="163" y="732" on="1"/>
        <pt x="163" y="237" on="1"/>
        <pt x="434" y="514" on="1"/>
        <pt x="504" y="514" on="1"/>
        <pt x="286" y="285" on="1"/>
        <pt x="533" y="0" on="1"/>
        <pt x="450" y="0" on="1"/>
        <pt x="242" y="251" on="1"/>
        <pt x="163" y="171" on="1"/>
        <pt x="163" y="0" on="1"/>
      </contour>
    </TTGlyph>
    <TTGlyph name="kgreenlandic" xMin="95" yMin="0" xMax="528" yMax="514">
      <contour>
        <pt x="95" y="0" on="1"/>
        <pt x="95" y="514" on="1"/>
        <pt x="162" y="514" on="1"/>
        <pt x="162" y="222" on="1"/>
        <pt x="284" y="353" on="0"/>
        <pt x="433" y="514" on="1"/>
        <pt x="500" y="514" on="1"/>
        <pt x="293" y="278" on="1"/>
        <pt x="528" y="0" on="1"/>
        <pt x="454" y="0" on="1"/>
        <pt x="249" y="248" on="1"/>
        <pt x="162" y="164" on="1"/>
        <pt x="162" y="0" on="1"/>
      </contour>
    </TTGlyph>
    <TTGlyph name="l" xMin="99" yMin="-3" xMax="278" yMax="732">
      <contour>
        <pt x="258" y="-3" on="1"/>
        <pt x="212" y="-3" on="0"/>
        <pt x="159" y="8" on="0"/>
        <pt x="116" y="44" on="0"/>
        <pt x="99" y="116" on="0"/>
        <pt x="99" y="176" on="1"/>
        <pt x="99" y="732" on="1"/>
        <pt x="166" y="732" on="1"/>
        <pt x="166" y="173" on="1"/>
        <pt x="166" y="99" on="0"/>
        <pt x="200" y="62" on="0"/>
        <pt x="262" y="62" on="1"/>
        <pt x="278" y="62" on="1"/>
        <pt x="267" y="-3" on="1"/>
      </contour>
    </TTGlyph>
    <TTGlyph name="lacute" xMin="99" yMin="-3" xMax="288" yMax="994">
      <component glyphName="l" x="0" y="0" flags="0x1004"/>
      <component glyphName="acute" x="-12" y="220" flags="0x1004"/>
    </TTGlyph>
    <TTGlyph name="lcaron" xMin="99" yMin="-3" xMax="380" yMax="856">
      <component glyphName="l" x="0" y="0" flags="0x1004"/>
      <component glyphName="caron.alt" x="-44" y="0" flags="0x1004"/>
    </TTGlyph>
    <TTGlyph name="ldot" xMin="99" yMin="-3" xMax="361" yMax="732">
      <component glyphName="periodcentered" x="16" y="104" flags="0x1004"/>
      <component glyphName="l" x="0" y="0" flags="0x1004"/>
    </TTGlyph>
    <TTGlyph name="less" xMin="89" yMin="-9" xMax="563" yMax="577">
      <contour>
        <pt x="563" y="-9" on="1"/>
        <pt x="89" y="238" on="1"/>
        <pt x="89" y="331" on="1"/>
        <pt x="563" y="577" on="1"/>
        <pt x="563" y="486" on="1"/>
        <pt x="157" y="285" on="1"/>
        <pt x="563" y="86" on="1"/>
      </contour>
    </TTGlyph>
    <TTGlyph name="logicalnot" xMin="39" yMin="194" xMax="313" yMax="319">
      <contour>
        <pt x="253" y="194" on="1"/>
        <pt x="253" y="262" on="1"/>
        <pt x="39" y="262" on="1"/>
        <pt x="39" y="319" on="1"/>
        <pt x="313" y="319" on="1"/>
        <pt x="313" y="194" on="1"/>
      </contour>
    </TTGlyph>
    <TTGlyph name="lozenge" xMin="61" yMin="0" xMax="479" yMax="689">
      <contour>
        <pt x="277" y="70" on="1"/>
        <pt x="404" y="346" on="1"/>
        <pt x="277" y="614" on="1"/>
        <pt x="138" y="346" on="1"/>
      </contour>
      <contour>
        <pt x="238" y="0" on="1"/>
        <pt x="61" y="346" on="1"/>
        <pt x="238" y="689" on="1"/>
        <pt x="313" y="689" on="1"/>
        <pt x="479" y="346" on="1"/>
        <pt x="313" y="0" on="1"/>
      </contour>
    </TTGlyph>
    <TTGlyph name="lslash" xMin="31" yMin="-3" xMax="278" yMax="732">
      <contour>
        <pt x="258" y="-3" on="1"/>
        <pt x="212" y="-3" on="0"/>
        <pt x="159" y="8" on="0"/>
        <pt x="116" y="44" on="0"/>
        <pt x="99" y="116" on="0"/>
        <pt x="99" y="176" on="1"/>
        <pt x="99" y="363" on="1"/>
        <pt x="31" y="321" on="1"/>
        <pt x="31" y="381" on="1"/>
        <pt x="99" y="423" on="1"/>
        <pt x="99" y="732" on="1"/>
        <pt x="166" y="732" on="1"/>
        <pt x="166" y="464" on="1"/>
        <pt x="255" y="519" on="1"/>
        <pt x="255" y="459" on="1"/>
        <pt x="166" y="404" on="1"/>
        <pt x="166" y="173" on="1"/>
        <pt x="166" y="99" on="0"/>
        <pt x="200" y="62" on="0"/>
        <pt x="262" y="62" on="1"/>
        <pt x="278" y="62" on="1"/>
        <pt x="267" y="-3" on="1"/>
      </contour>
    </TTGlyph>
    <TTGlyph name="m" xMin="96" yMin="0" xMax="803" yMax="522">
      <contour>
        <pt x="96" y="0" on="1"/>
        <pt x="96" y="514" on="1"/>
        <pt x="163" y="514" on="1"/>
        <pt x="163" y="461" on="1"/>
        <pt x="185" y="495" on="0"/>
        <pt x="254" y="522" on="0"/>
        <pt x="310" y="522" on="1"/>
        <pt x="422" y="522" on="0"/>
        <pt x="464" y="453" on="1"/>
        <pt x="505" y="522" on="0"/>
        <pt x="632" y="522" on="1"/>
        <pt x="739" y="522" on="0"/>
        <pt x="774" y="474" on="1"/>
        <pt x="803" y="435" on="0"/>
        <pt x="803" y="369" on="1"/>
        <pt x="803" y="0" on="1"/>
        <pt x="736" y="0" on="1"/>
        <pt x="736" y="387" on="1"/>
        <pt x="736" y="425" on="0"/>
        <pt x="684" y="468" on="0"/>
        <pt x="632" y="468" on="1"/>
        <pt x="485" y="468" on="0"/>
        <pt x="485" y="376" on="1"/>
        <pt x="485" y="0" on="1"/>
        <pt x="417" y="0" on="1"/>
        <pt x="417" y="387" on="1"/>
        <pt x="417" y="425" on="0"/>
        <pt x="363" y="468" on="0"/>
        <pt x="310" y="468" on="1"/>
        <pt x="163" y="468" on="0"/>
        <pt x="163" y="374" on="1"/>
        <pt x="163" y="0" on="1"/>
      </contour>
    </TTGlyph>
    <TTGlyph name="macron" xMin="7" yMin="618" xMax="244" yMax="672">
      <contour>
        <pt x="7" y="618" on="1"/>
        <pt x="7" y="672" on="1"/>
        <pt x="244" y="672" on="1"/>
        <pt x="244" y="618" on="1"/>
      </contour>
    </TTGlyph>
    <TTGlyph name="minus" xMin="75" yMin="214" xMax="406" yMax="294">
      <contour>
        <pt x="75" y="214" on="1"/>
        <pt x="75" y="294" on="1"/>
        <pt x="406" y="294" on="1"/>
        <pt x="406" y="214" on="1"/>
      </contour>
    </TTGlyph>
    <TTGlyph name="multiply" xMin="56" yMin="105" xMax="404" yMax="458">
      <contour>
        <pt x="109" y="105" on="1"/>
        <pt x="56" y="168" on="1"/>
        <pt x="171" y="281" on="1"/>
        <pt x="56" y="394" on="1"/>
        <pt x="109" y="458" on="1"/>
        <pt x="230" y="339" on="1"/>
        <pt x="351" y="458" on="1"/>
        <pt x="404" y="394" on="1"/>
        <pt x="289" y="281" on="1"/>
        <pt x="404" y="168" on="1"/>
        <pt x="351" y="105" on="1"/>
        <pt x="230" y="224" on="1"/>
      </contour>
    </TTGlyph>
    <TTGlyph name="n" xMin="96" yMin="0" xMax="495" yMax="522">
      <contour>
        <pt x="96" y="0" on="1"/>
        <pt x="96" y="514" on="1"/>
        <pt x="164" y="514" on="1"/>
        <pt x="164" y="461" on="1"/>
        <pt x="213" y="522" on="0"/>
        <pt x="416" y="522" on="0"/>
        <pt x="495" y="450" on="0"/>
        <pt x="495" y="386" on="1"/>
        <pt x="495" y="0" on="1"/>
        <pt x="428" y="0" on="1"/>
        <pt x="428" y="389" on="1"/>
        <pt x="428" y="428" on="0"/>
        <pt x="379" y="469" on="0"/>
        <pt x="243" y="469" on="0"/>
        <pt x="164" y="415" on="0"/>
        <pt x="164" y="375" on="1"/>
        <pt x="164" y="0" on="1"/>
      </contour>
    </TTGlyph>
    <TTGlyph name="nacute" xMin="96" yMin="0" xMax="495" yMax="774">
      <component glyphName="n" x="0" y="0" flags="0x1004"/>
      <component glyphName="acute" x="187" y="0" flags="0x1004"/>
    </TTGlyph>
    <TTGlyph name="napostrophe" xMin="68" yMin="0" xMax="495" yMax="888">
      <component glyphName="uni02BC" x="84" y="0" flags="0x1004"/>
      <component glyphName="n" x="0" y="0" flags="0x1004"/>
    </TTGlyph>
    <TTGlyph name="ncaron" xMin="96" yMin="0" xMax="495" yMax="701">
      <component glyphName="n" x="0" y="0" flags="0x1004"/>
      <component glyphName="caron" x="214" y="0" flags="0x1004"/>
    </TTGlyph>
    <TTGlyph name="nine" xMin="65" yMin="0" xMax="500" yMax="707">
      <contour>
        <pt x="286" y="648" on="1"/>
        <pt x="201" y="648" on="0"/>
        <pt x="131" y="578" on="0"/>
        <pt x="131" y="424" on="0"/>
        <pt x="205" y="352" on="0"/>
        <pt x="362" y="352" on="0"/>
        <pt x="436" y="424" on="0"/>
        <pt x="436" y="578" on="0"/>
        <pt x="368" y="648" on="0"/>
      </contour>
      <contour>
        <pt x="286" y="707" on="1"/>
        <pt x="396" y="707" on="0"/>
        <pt x="500" y="607" on="0"/>
        <pt x="500" y="400" on="0"/>
        <pt x="430" y="279" on="1"/>
        <pt x="268" y="0" on="1"/>
        <pt x="189" y="0" on="1"/>
        <pt x="378" y="315" on="1"/>
        <pt x="342" y="296" on="0"/>
        <pt x="283" y="296" on="1"/>
        <pt x="174" y="296" on="0"/>
        <pt x="65" y="395" on="0"/>
        <pt x="65" y="607" on="0"/>
        <pt x="172" y="707" on="0"/>
      </contour>
    </TTGlyph>
    <TTGlyph name="notequal" xMin="-46" yMin="116" xMax="389" yMax="606">
      <contour>
        <pt x="63" y="116" on="1"/>
        <pt x="232" y="606" on="1"/>
        <pt x="293" y="606" on="1"/>
        <pt x="127" y="116" on="1"/>
      </contour>
      <contour>
        <pt x="-46" y="412" on="1"/>
        <pt x="389" y="412" on="1"/>
        <pt x="389" y="477" on="1"/>
        <pt x="-46" y="477" on="1"/>
      </contour>
      <contour>
        <pt x="-46" y="256" on="1"/>
        <pt x="389" y="256" on="1"/>
        <pt x="389" y="321" on="1"/>
        <pt x="-46" y="321" on="1"/>
      </contour>
    </TTGlyph>
    <TTGlyph name="ntilde" xMin="96" yMin="0" xMax="495" yMax="693">
      <component glyphName="tilde" x="216" y="0" flags="0x1004"/>
      <component glyphName="n" x="0" y="0" flags="0x1004"/>
    </TTGlyph>
    <TTGlyph name="numbersign" xMin="37" yMin="0" xMax="564" yMax="697">
      <contour>
        <pt x="201" y="283" on="1"/>
        <pt x="363" y="283" on="1"/>
        <pt x="393" y="448" on="1"/>
        <pt x="231" y="448" on="1"/>
      </contour>
      <contour>
        <pt x="553" y="231" on="1"/>
        <pt x="411" y="231" on="1"/>
        <pt x="369" y="0" on="1"/>
        <pt x="310" y="0" on="1"/>
        <pt x="353" y="231" on="1"/>
        <pt x="192" y="231" on="1"/>
        <pt x="150" y="0" on="1"/>
        <pt x="91" y="0" on="1"/>
        <pt x="134" y="231" on="1"/>
        <pt x="37" y="231" on="1"/>
        <pt x="37" y="283" on="1"/>
        <pt x="144" y="283" on="1"/>
        <pt x="174" y="448" on="1"/>
        <pt x="48" y="448" on="1"/>
        <pt x="48" y="500" on="1"/>
        <pt x="184" y="500" on="1"/>
        <pt x="220" y="697" on="1"/>
        <pt x="275" y="697" on="1"/>
        <pt x="240" y="500" on="1"/>
        <pt x="403" y="500" on="1"/>
        <pt x="439" y="697" on="1"/>
        <pt x="494" y="697" on="1"/>
        <pt x="458" y="500" on="1"/>
        <pt x="564" y="500" on="1"/>
        <pt x="564" y="448" on="1"/>
        <pt x="450" y="448" on="1"/>
        <pt x="420" y="283" on="1"/>
        <pt x="553" y="283" on="1"/>
      </contour>
    </TTGlyph>
    <TTGlyph name="o" xMin="75" yMin="-10" xMax="482" yMax="522">
      <contour>
        <pt x="415" y="167" on="1"/>
        <pt x="415" y="167" on="0"/>
        <pt x="415" y="361" on="1"/>
        <pt x="415" y="418" on="0"/>
        <pt x="352" y="465" on="0"/>
        <pt x="204" y="465" on="0"/>
        <pt x="142" y="418" on="0"/>
        <pt x="142" y="361" on="1"/>
        <pt x="142" y="167" on="1"/>
        <pt x="142" y="100" on="0"/>
        <pt x="204" y="46" on="0"/>
        <pt x="352" y="46" on="0"/>
        <pt x="415" y="100" on="0"/>
      </contour>
      <contour>
        <pt x="75" y="361" on="1"/>
        <pt x="75" y="440" on="0"/>
        <pt x="179" y="522" on="0"/>
        <pt x="377" y="522" on="0"/>
        <pt x="482" y="440" on="0"/>
        <pt x="482" y="361" on="1"/>
        <pt x="482" y="361" on="0"/>
        <pt x="482" y="167" on="1"/>
        <pt x="482" y="-10" on="0"/>
        <pt x="75" y="-10" on="0"/>
        <pt x="75" y="167" on="1"/>
      </contour>
    </TTGlyph>
    <TTGlyph name="oacute" xMin="258" yMin="584" xMax="430" yMax="774">
      <component glyphName="acute" x="130" y="0" flags="0x1004"/>
    </TTGlyph>
    <TTGlyph name="obreve" xMin="171" yMin="573" xMax="375" yMax="663">
      <component glyphName="breve" x="148" y="0" flags="0x1004"/>
    </TTGlyph>
    <TTGlyph name="ocircumflex" xMin="153" yMin="589" xMax="407" yMax="709">
      <component glyphName="circumflex" x="157" y="0" flags="0x1004"/>
    </TTGlyph>
    <TTGlyph name="odieresis" xMin="142" yMin="597" xMax="411" yMax="670">
      <component glyphName="dieresis" x="23" y="0" flags="0x1004"/>
    </TTGlyph>
    <TTGlyph name="oe" xMin="81" yMin="-9" xMax="764" yMax="522">
      <contour>
        <pt x="459" y="303" on="1"/>
        <pt x="697" y="303" on="1"/>
        <pt x="697" y="384" on="1"/>
        <pt x="697" y="431" on="0"/>
        <pt x="640" y="467" on="0"/>
        <pt x="513" y="467" on="0"/>
        <pt x="459" y="423" on="0"/>
        <pt x="459" y="371" on="1"/>
      </contour>
      <contour>
        <pt x="273" y="46" on="1"/>
        <pt x="393" y="46" on="0"/>
        <pt x="393" y="143" on="1"/>
        <pt x="393" y="373" on="1"/>
        <pt x="393" y="467" on="0"/>
        <pt x="148" y="467" on="0"/>
        <pt x="148" y="373" on="1"/>
        <pt x="148" y="143" on="1"/>
        <pt x="148" y="46" on="0"/>
      </contour>
      <contour>
        <pt x="273" y="-9" on="1"/>
        <pt x="81" y="-9" on="0"/>
        <pt x="81" y="152" on="1"/>
        <pt x="81" y="364" on="1"/>
        <pt x="81" y="434" on="0"/>
        <pt x="182" y="522" on="0"/>
        <pt x="273" y="522" on="1"/>
        <pt x="381" y="522" on="0"/>
        <pt x="425" y="456" on="1"/>
        <pt x="465" y="522" on="0"/>
        <pt x="579" y="522" on="1"/>
        <pt x="669" y="522" on="0"/>
        <pt x="764" y="445" on="0"/>
        <pt x="764" y="374" on="1"/>
        <pt x="764" y="245" on="1"/>
        <pt x="459" y="245" on="1"/>
        <pt x="459" y="162" on="1"/>
        <pt x="459" y="46" on="0"/>
        <pt x="577" y="46" on="1"/>
        <pt x="649" y="46" on="0"/>
        <pt x="698" y="86" on="0"/>
        <pt x="705" y="154" on="1"/>
        <pt x="763" y="154" on="1"/>
        <pt x="751" y="64" on="0"/>
        <pt x="678" y="-9" on="0"/>
        <pt x="468" y="-9" on="0"/>
        <pt x="425" y="69" on="1"/>
        <pt x="382" y="-9" on="0"/>
      </contour>
    </TTGlyph>
    <TTGlyph name="ogonek" xMin="71" yMin="-223" xMax="198" yMax="5">
      <contour>
        <pt x="114" y="-125" on="1"/>
        <pt x="114" y="-188" on="0"/>
        <pt x="194" y="-188" on="1"/>
        <pt x="198" y="-223" on="1"/>
        <pt x="134" y="-223" on="0"/>
        <pt x="71" y="-170" on="0"/>
        <pt x="71" y="-103" on="0"/>
        <pt x="117" y="-26" on="0"/>
        <pt x="168" y="5" on="1"/>
        <pt x="198" y="5" on="1"/>
        <pt x="165" y="-17" on="0"/>
        <pt x="114" y="-90" on="0"/>
      </contour>
    </TTGlyph>
    <TTGlyph name="ograve" xMin="127" yMin="584" xMax="299" yMax="774">
      <component glyphName="grave" x="130" y="0" flags="0x1004"/>
    </TTGlyph>
    <TTGlyph name="ohungarumlaut" xMin="164" yMin="593" xMax="518" yMax="784">
      <component glyphName="hungarumlaut" x="57" y="0" flags="0x1004"/>
    </TTGlyph>
    <TTGlyph name="omacron" xMin="160" yMin="618" xMax="397" yMax="672">
      <component glyphName="macron" x="153" y="0" flags="0x1004"/>
    </TTGlyph>
    <TTGlyph name="one" xMin="86" yMin="0" xMax="516" yMax="697">
      <contour>
        <pt x="86" y="0" on="1"/>
        <pt x="86" y="60" on="1"/>
        <pt x="279" y="60" on="1"/>
        <pt x="279" y="634" on="1"/>
        <pt x="116" y="619" on="1"/>
        <pt x="109" y="679" on="1"/>
        <pt x="281" y="697" on="1"/>
        <pt x="350" y="697" on="1"/>
        <pt x="350" y="60" on="1"/>
        <pt x="516" y="60" on="1"/>
        <pt x="516" y="0" on="1"/>
      </contour>
    </TTGlyph>
    <TTGlyph name="onehalf" xMin="90" yMin="0" xMax="782" yMax="743">
      <contour>
        <pt x="260" y="0" on="1"/>
        <pt x="614" y="697" on="1"/>
        <pt x="654" y="697" on="1"/>
        <pt x="302" y="0" on="1"/>
      </contour>
      <contour>
        <pt x="90" y="387" on="1"/>
        <pt x="90" y="423" on="1"/>
        <pt x="226" y="423" on="1"/>
        <pt x="226" y="703" on="1"/>
        <pt x="100" y="694" on="1"/>
        <pt x="95" y="733" on="1"/>
        <pt x="225" y="743" on="1"/>
        <pt x="266" y="743" on="1"/>
        <pt x="266" y="423" on="1"/>
        <pt x="374" y="423" on="1"/>
        <pt x="374" y="387" on="1"/>
      </contour>
      <contour>
        <pt x="559" y="0" on="1"/>
        <pt x="559" y="28" on="1"/>
        <pt x="694" y="164" on="1"/>
        <pt x="724" y="194" on="0"/>
        <pt x="741" y="230" on="0"/>
        <pt x="741" y="259" on="1"/>
        <pt x="741" y="329" on="0"/>
        <pt x="677" y="329" on="1"/>
        <pt x="635" y="329" on="0"/>
        <pt x="595" y="306" on="0"/>
        <pt x="595" y="264" on="1"/>
        <pt x="552" y="264" on="1"/>
        <pt x="552" y="317" on="0"/>
        <pt x="608" y="364" on="0"/>
        <pt x="676" y="364" on="1"/>
        <pt x="782" y="364" on="0"/>
        <pt x="782" y="259" on="1"/>
        <pt x="782" y="221" on="0"/>
        <pt x="751" y="168" on="0"/>
        <pt x="719" y="136" on="1"/>
        <pt x="616" y="34" on="1"/>
        <pt x="782" y="34" on="1"/>
        <pt x="782" y="0" on="1"/>
      </contour>
    </TTGlyph>
    <TTGlyph name="onequarter" xMin="90" yMin="0" xMax="818" yMax="743">
      <contour>
        <pt x="260" y="0" on="1"/>
        <pt x="614" y="697" on="1"/>
        <pt x="654" y="697" on="1"/>
        <pt x="302" y="0" on="1"/>
      </contour>
      <contour>
        <pt x="90" y="387" on="1"/>
        <pt x="90" y="423" on="1"/>
        <pt x="226" y="423" on="1"/>
        <pt x="226" y="703" on="1"/>
        <pt x="100" y="694" on="1"/>
        <pt x="95" y="733" on="1"/>
        <pt x="225" y="743" on="1"/>
        <pt x="266" y="743" on="1"/>
        <pt x="266" y="423" on="1"/>
        <pt x="374" y="423" on="1"/>
        <pt x="374" y="387" on="1"/>
      </contour>
      <contour>
        <pt x="713" y="0" on="1"/>
        <pt x="713" y="100" on="1"/>
        <pt x="521" y="100" on="1"/>
        <pt x="521" y="125" on="1"/>
        <pt x="651" y="382" on="1"/>
        <pt x="694" y="382" on="1"/>
        <pt x="572" y="133" on="1"/>
        <pt x="713" y="133" on="1"/>
        <pt x="713" y="236" on="1"/>
        <pt x="755" y="236" on="1"/>
        <pt x="755" y="133" on="1"/>
        <pt x="818" y="133" on="1"/>
        <pt x="818" y="100" on="1"/>
        <pt x="755" y="100" on="1"/>
        <pt x="755" y="0" on="1"/>
      </contour>
    </TTGlyph>
    <TTGlyph name="ordfeminine" xMin="63" yMin="-9" xMax="419" yMax="423">
      <component glyphName="a" x="0" y="0" scale="0.81" flags="0x1004"/>
    </TTGlyph>
    <TTGlyph name="ordmasculine" xMin="75" yMin="-10" xMax="482" yMax="522">
      <component glyphName="o" x="0" y="0" flags="0x1004"/>
    </TTGlyph>
    <TTGlyph name="oslash" xMin="75" yMin="-73" xMax="482" yMax="595">
      <contour>
        <pt x="415" y="167" on="1"/>
        <pt x="415" y="167" on="0"/>
        <pt x="415" y="361" on="1"/>
        <pt x="415" y="416" on="0"/>
        <pt x="385" y="440" on="1"/>
        <pt x="197" y="58" on="1"/>
        <pt x="227" y="46" on="0"/>
        <pt x="352" y="46" on="0"/>
        <pt x="415" y="100" on="0"/>
      </contour>
      <contour>
        <pt x="75" y="361" on="1"/>
        <pt x="75" y="440" on="0"/>
        <pt x="179" y="522" on="0"/>
        <pt x="278" y="522" on="1"/>
        <pt x="337" y="522" on="0"/>
        <pt x="381" y="507" on="1"/>
        <pt x="424" y="595" on="1"/>
        <pt x="454" y="582" on="1"/>
        <pt x="411" y="494" on="1"/>
        <pt x="482" y="455" on="0"/>
        <pt x="482" y="361" on="1"/>
        <pt x="482" y="167" on="1"/>
        <pt x="482" y="-10" on="0"/>
        <pt x="278" y="-10" on="1"/>
        <pt x="215" y="-10" on="0"/>
        <pt x="172" y="7" on="1"/>
        <pt x="133" y="-73" on="1"/>
        <pt x="104" y="-59" on="1"/>
        <pt x="143" y="21" on="1"/>
        <pt x="75" y="63" on="0"/>
        <pt x="75" y="167" on="1"/>
      </contour>
      <contour>
        <pt x="142" y="167" on="1"/>
        <pt x="142" y="104" on="0"/>
        <pt x="170" y="76" on="1"/>
        <pt x="356" y="455" on="1"/>
        <pt x="327" y="465" on="0"/>
        <pt x="204" y="465" on="0"/>
        <pt x="142" y="418" on="0"/>
        <pt x="142" y="361" on="1"/>
      </contour>
    </TTGlyph>
    <TTGlyph name="oslashacute" xMin="75" yMin="-73" xMax="482" yMax="774">
      <component glyphName="oslash" x="0" y="0" flags="0x1004"/>
      <component glyphName="acute" x="134" y="0" flags="0x1004"/>
    </TTGlyph>
    <TTGlyph name="otilde" xMin="145" yMin="592" xMax="416" yMax="693">
      <component glyphName="tilde" x="192" y="0" flags="0x1004"/>
    </TTGlyph>
    <TTGlyph name="p" xMin="96" yMin="-199" xMax="502" yMax="522">
      <contour>
        <pt x="296" y="47" on="1"/>
        <pt x="356" y="47" on="0"/>
        <pt x="435" y="108" on="0"/>
        <pt x="435" y="159" on="1"/>
        <pt x="435" y="360" on="1"/>
        <pt x="435" y="409" on="0"/>
        <pt x="357" y="465" on="0"/>
        <pt x="263" y="465" on="0"/>
        <pt x="197" y="434" on="0"/>
        <pt x="166" y="405" on="0"/>
        <pt x="163" y="397" on="1"/>
        <pt x="163" y="78" on="1"/>
        <pt x="217" y="47" on="0"/>
      </contour>
      <contour>
        <pt x="96" y="-199" on="1"/>
        <pt x="96" y="514" on="1"/>
        <pt x="156" y="514" on="1"/>
        <pt x="166" y="472" on="1"/>
        <pt x="185" y="491" on="0"/>
        <pt x="265" y="522" on="0"/>
        <pt x="308" y="522" on="1"/>
        <pt x="405" y="522" on="0"/>
        <pt x="502" y="428" on="0"/>
        <pt x="502" y="350" on="1"/>
        <pt x="502" y="350" on="0"/>
        <pt x="502" y="173" on="1"/>
        <pt x="502" y="88" on="0"/>
        <pt x="393" y="-10" on="0"/>
        <pt x="218" y="-10" on="0"/>
        <pt x="163" y="21" on="1"/>
        <pt x="163" y="-199" on="1"/>
      </contour>
    </TTGlyph>
    <TTGlyph name="paragraph" xMin="104" yMin="-164" xMax="451" yMax="697">
      <contour>
        <pt x="255" y="-164" on="1"/>
        <pt x="255" y="428" on="1"/>
        <pt x="194" y="430" on="0"/>
        <pt x="104" y="503" on="0"/>
        <pt x="104" y="560" on="1"/>
        <pt x="104" y="697" on="0"/>
        <pt x="268" y="697" on="1"/>
        <pt x="451" y="697" on="1"/>
        <pt x="451" y="-164" on="1"/>
        <pt x="396" y="-164" on="1"/>
        <pt x="396" y="654" on="1"/>
        <pt x="311" y="654" on="1"/>
        <pt x="311" y="-164" on="1"/>
      </contour>
    </TTGlyph>
    <TTGlyph name="parenleft" xMin="71" yMin="-71" xMax="274" yMax="763">
      <contour>
        <pt x="73" y="221" on="1"/>
        <pt x="73" y="460" on="1"/>
        <pt x="71" y="561" on="1"/>
        <pt x="71" y="606" on="0"/>
        <pt x="84" y="669" on="0"/>
        <pt x="104" y="700" on="1"/>
        <pt x="145" y="763" on="0"/>
        <pt x="274" y="763" on="1"/>
        <pt x="274" y="708" on="1"/>
        <pt x="192" y="708" on="0"/>
        <pt x="140" y="635" on="0"/>
        <pt x="140" y="562" on="1"/>
        <pt x="142" y="479" on="1"/>
        <pt x="142" y="205" on="1"/>
        <pt x="140" y="125" on="1"/>
        <pt x="140" y="60" on="0"/>
        <pt x="162" y="24" on="1"/>
        <pt x="187" y="-17" on="0"/>
        <pt x="274" y="-17" on="1"/>
        <pt x="274" y="-71" on="1"/>
        <pt x="144" y="-71" on="0"/>
        <pt x="104" y="-12" on="1"/>
        <pt x="84" y="18" on="0"/>
        <pt x="71" y="78" on="0"/>
        <pt x="71" y="122" on="1"/>
      </contour>
    </TTGlyph>
    <TTGlyph name="parenright" xMin="44" yMin="-71" xMax="247" yMax="763">
      <contour>
        <pt x="176" y="213" on="1"/>
        <pt x="176" y="487" on="1"/>
        <pt x="178" y="568" on="1"/>
        <pt x="178" y="634" on="0"/>
        <pt x="156" y="668" on="1"/>
        <pt x="130" y="709" on="0"/>
        <pt x="44" y="709" on="1"/>
        <pt x="44" y="763" on="1"/>
        <pt x="174" y="763" on="0"/>
        <pt x="214" y="704" on="1"/>
        <pt x="234" y="674" on="0"/>
        <pt x="247" y="614" on="0"/>
        <pt x="247" y="570" on="1"/>
        <pt x="247" y="570" on="0"/>
        <pt x="245" y="472" on="1"/>
        <pt x="245" y="232" on="1"/>
        <pt x="247" y="131" on="1"/>
        <pt x="247" y="86" on="0"/>
        <pt x="234" y="23" on="0"/>
        <pt x="214" y="-8" on="1"/>
        <pt x="173" y="-71" on="0"/>
        <pt x="44" y="-71" on="1"/>
        <pt x="44" y="-16" on="1"/>
        <pt x="126" y="-16" on="0"/>
        <pt x="178" y="56" on="0"/>
        <pt x="178" y="130" on="1"/>
      </contour>
    </TTGlyph>
    <TTGlyph name="partialdiff" xMin="86" yMin="-10" xMax="500" yMax="739">
      <contour>
        <pt x="234" y="39" on="1"/>
        <pt x="282" y="39" on="0"/>
        <pt x="358" y="113" on="0"/>
        <pt x="380" y="172" on="1"/>
        <pt x="423" y="288" on="0"/>
        <pt x="431" y="414" on="1"/>
        <pt x="381" y="414" on="0"/>
        <pt x="292" y="374" on="0"/>
        <pt x="232" y="311" on="0"/>
        <pt x="188" y="234" on="0"/>
        <pt x="167" y="158" on="0"/>
        <pt x="167" y="87" on="0"/>
        <pt x="200" y="39" on="0"/>
      </contour>
      <contour>
        <pt x="228" y="-10" on="1"/>
        <pt x="160" y="-10" on="0"/>
        <pt x="86" y="73" on="0"/>
        <pt x="86" y="191" on="0"/>
        <pt x="132" y="300" on="0"/>
        <pt x="216" y="394" on="0"/>
        <pt x="349" y="454" on="0"/>
        <pt x="427" y="454" on="1"/>
        <pt x="433" y="454" on="1"/>
        <pt x="434" y="462" on="0"/>
        <pt x="434" y="477" on="1"/>
        <pt x="434" y="587" on="0"/>
        <pt x="325" y="700" on="0"/>
        <pt x="241" y="700" on="1"/>
        <pt x="187" y="700" on="0"/>
        <pt x="139" y="681" on="1"/>
        <pt x="132" y="699" on="1"/>
        <pt x="209" y="739" on="0"/>
        <pt x="282" y="739" on="1"/>
        <pt x="377" y="739" on="0"/>
        <pt x="500" y="594" on="0"/>
        <pt x="500" y="449" on="1"/>
        <pt x="500" y="251" on="0"/>
        <pt x="347" y="-10" on="0"/>
      </contour>
    </TTGlyph>
    <TTGlyph name="percent" xMin="77" yMin="-9" xMax="904" yMax="727">
      <contour>
        <pt x="318" y="0" on="1"/>
        <pt x="583" y="706" on="1"/>
        <pt x="649" y="706" on="1"/>
        <pt x="387" y="0" on="1"/>
      </contour>
      <contour>
        <pt x="757" y="-9" on="1"/>
        <pt x="677" y="-9" on="0"/>
        <pt x="612" y="86" on="0"/>
        <pt x="612" y="176" on="1"/>
        <pt x="612" y="202" on="1"/>
        <pt x="612" y="293" on="0"/>
        <pt x="676" y="383" on="0"/>
        <pt x="837" y="383" on="0"/>
        <pt x="903" y="293" on="0"/>
        <pt x="904" y="202" on="1"/>
        <pt x="904" y="176" on="1"/>
        <pt x="904" y="86" on="0"/>
        <pt x="837" y="-9" on="0"/>
      </contour>
      <contour>
        <pt x="757" y="43" on="1"/>
        <pt x="806" y="43" on="0"/>
        <pt x="838" y="106" on="0"/>
        <pt x="838" y="167" on="1"/>
        <pt x="838" y="214" on="1"/>
        <pt x="838" y="274" on="0"/>
        <pt x="808" y="330" on="0"/>
        <pt x="707" y="330" on="0"/>
        <pt x="677" y="274" on="0"/>
        <pt x="677" y="215" on="1"/>
        <pt x="677" y="167" on="1"/>
        <pt x="677" y="106" on="0"/>
        <pt x="709" y="43" on="0"/>
      </contour>
      <contour>
        <pt x="222" y="335" on="1"/>
        <pt x="142" y="335" on="0"/>
        <pt x="77" y="430" on="0"/>
        <pt x="77" y="520" on="1"/>
        <pt x="77" y="546" on="1"/>
        <pt x="77" y="637" on="0"/>
        <pt x="141" y="727" on="0"/>
        <pt x="302" y="727" on="0"/>
        <pt x="368" y="637" on="0"/>
        <pt x="369" y="546" on="1"/>
        <pt x="369" y="520" on="1"/>
        <pt x="369" y="430" on="0"/>
        <pt x="302" y="335" on="0"/>
      </contour>
      <contour>
        <pt x="222" y="388" on="1"/>
        <pt x="271" y="388" on="0"/>
        <pt x="303" y="450" on="0"/>
        <pt x="303" y="511" on="1"/>
        <pt x="303" y="558" on="1"/>
        <pt x="303" y="618" on="0"/>
        <pt x="273" y="675" on="0"/>
        <pt x="172" y="675" on="0"/>
        <pt x="142" y="619" on="0"/>
        <pt x="142" y="559" on="1"/>
        <pt x="142" y="511" on="1"/>
        <pt x="142" y="450" on="0"/>
        <pt x="174" y="388" on="0"/>
      </contour>
    </TTGlyph>
    <TTGlyph name="period" xMin="97" yMin="0" xMax="210" yMax="106">
      <contour>
        <pt x="97" y="0" on="1"/>
        <pt x="97" y="106" on="1"/>
        <pt x="210" y="106" on="1"/>
        <pt x="210" y="0" on="1"/>
      </contour>
    </TTGlyph>
    <TTGlyph name="periodcentered" xMin="258" yMin="257" xMax="345" yMax="347">
      <contour>
        <pt x="258" y="257" on="1"/>
        <pt x="258" y="347" on="1"/>
        <pt x="345" y="347" on="1"/>
        <pt x="345" y="257" on="1"/>
      </contour>
    </TTGlyph>
    <TTGlyph name="perthousand" xMin="126" yMin="-9" xMax="1340" yMax="713">
      <contour>
        <pt x="367" y="0" on="1"/>
        <pt x="632" y="706" on="1"/>
        <pt x="698" y="706" on="1"/>
        <pt x="436" y="0" on="1"/>
      </contour>
      <contour>
        <pt x="1193" y="-9" on="1"/>
        <pt x="1114" y="-9" on="0"/>
        <pt x="1049" y="86" on="0"/>
        <pt x="1049" y="176" on="1"/>
        <pt x="1049" y="202" on="1"/>
        <pt x="1049" y="293" on="0"/>
        <pt x="1112" y="383" on="0"/>
        <pt x="1273" y="383" on="0"/>
        <pt x="1339" y="293" on="0"/>
        <pt x="1340" y="202" on="1"/>
        <pt x="1340" y="176" on="1"/>
        <pt x="1340" y="86" on="0"/>
        <pt x="1273" y="-9" on="0"/>
      </contour>
      <contour>
        <pt x="1193" y="43" on="1"/>
        <pt x="1242" y="43" on="0"/>
        <pt x="1274" y="106" on="0"/>
        <pt x="1274" y="167" on="1"/>
        <pt x="1274" y="214" on="1"/>
        <pt x="1274" y="274" on="0"/>
        <pt x="1244" y="330" on="0"/>
        <pt x="1143" y="330" on="0"/>
        <pt x="1114" y="275" on="0"/>
        <pt x="1114" y="215" on="1"/>
        <pt x="1114" y="167" on="1"/>
        <pt x="1114" y="106" on="0"/>
        <pt x="1145" y="43" on="0"/>
      </contour>
      <contour>
        <pt x="806" y="-9" on="1"/>
        <pt x="726" y="-9" on="0"/>
        <pt x="661" y="86" on="0"/>
        <pt x="661" y="176" on="1"/>
        <pt x="661" y="202" on="1"/>
        <pt x="661" y="293" on="0"/>
        <pt x="725" y="383" on="0"/>
        <pt x="886" y="383" on="0"/>
        <pt x="951" y="293" on="0"/>
        <pt x="952" y="202" on="1"/>
        <pt x="952" y="176" on="1"/>
        <pt x="952" y="86" on="0"/>
        <pt x="886" y="-9" on="0"/>
      </contour>
      <contour>
        <pt x="806" y="43" on="1"/>
        <pt x="855" y="43" on="0"/>
        <pt x="887" y="106" on="0"/>
        <pt x="887" y="167" on="1"/>
        <pt x="887" y="214" on="1"/>
        <pt x="887" y="274" on="0"/>
        <pt x="857" y="330" on="0"/>
        <pt x="756" y="330" on="0"/>
        <pt x="726" y="274" on="0"/>
        <pt x="726" y="215" on="1"/>
        <pt x="726" y="167" on="1"/>
        <pt x="726" y="106" on="0"/>
        <pt x="758" y="43" on="0"/>
      </contour>
      <contour>
        <pt x="271" y="321" on="1"/>
        <pt x="191" y="321" on="0"/>
        <pt x="126" y="416" on="0"/>
        <pt x="126" y="506" on="1"/>
        <pt x="126" y="532" on="1"/>
        <pt x="126" y="623" on="0"/>
        <pt x="190" y="713" on="0"/>
        <pt x="351" y="713" on="0"/>
        <pt x="416" y="624" on="0"/>
        <pt x="417" y="533" on="1"/>
        <pt x="417" y="506" on="1"/>
        <pt x="417" y="416" on="0"/>
        <pt x="351" y="321" on="0"/>
      </contour>
      <contour>
        <pt x="271" y="374" on="1"/>
        <pt x="319" y="374" on="0"/>
        <pt x="352" y="437" on="0"/>
        <pt x="352" y="497" on="1"/>
        <pt x="352" y="544" on="1"/>
        <pt x="352" y="604" on="0"/>
        <pt x="322" y="661" on="0"/>
        <pt x="221" y="661" on="0"/>
        <pt x="190" y="604" on="0"/>
        <pt x="190" y="545" on="1"/>
        <pt x="190" y="545" on="0"/>
        <pt x="190" y="497" on="1"/>
        <pt x="190" y="437" on="0"/>
        <pt x="223" y="374" on="0"/>
      </contour>
    </TTGlyph>
    <TTGlyph name="pi" xMin="11" yMin="-11" xMax="523" yMax="514">
      <contour>
        <pt x="12" y="446" on="1"/>
        <pt x="11" y="446" on="1"/>
        <pt x="14" y="449" on="1"/>
        <pt x="14" y="490" on="1"/>
        <pt x="52" y="514" on="0"/>
        <pt x="101" y="514" on="1"/>
        <pt x="523" y="514" on="1"/>
        <pt x="523" y="469" on="1"/>
        <pt x="434" y="469" on="1"/>
        <pt x="434" y="160" on="1"/>
        <pt x="434" y="99" on="0"/>
        <pt x="462" y="63" on="0"/>
        <pt x="515" y="51" on="1"/>
        <pt x="490" y="-11" on="1"/>
        <pt x="419" y="-10" on="0"/>
        <pt x="361" y="44" on="0"/>
        <pt x="361" y="122" on="1"/>
        <pt x="361" y="469" on="1"/>
        <pt x="199" y="469" on="1"/>
        <pt x="199" y="0" on="1"/>
        <pt x="126" y="0" on="1"/>
        <pt x="126" y="469" on="1"/>
        <pt x="120" y="469" on="1"/>
        <pt x="80" y="469" on="0"/>
        <pt x="30" y="452" on="1"/>
        <pt x="13" y="446" on="0"/>
      </contour>
      <contour>
        <pt x="14" y="490" on="1"/>
        <pt x="12" y="489" on="1"/>
        <pt x="12" y="490" on="0"/>
        <pt x="14" y="492" on="1"/>
      </contour>
    </TTGlyph>
    <TTGlyph name="plus" xMin="88" yMin="76" xMax="429" yMax="473">
      <contour>
        <pt x="229" y="76" on="1"/>
        <pt x="229" y="250" on="1"/>
        <pt x="88" y="250" on="1"/>
        <pt x="88" y="302" on="1"/>
        <pt x="229" y="302" on="1"/>
        <pt x="229" y="473" on="1"/>
        <pt x="289" y="473" on="1"/>
        <pt x="289" y="302" on="1"/>
        <pt x="429" y="302" on="1"/>
        <pt x="429" y="250" on="1"/>
        <pt x="289" y="250" on="1"/>
        <pt x="289" y="76" on="1"/>
      </contour>
    </TTGlyph>
    <TTGlyph name="plusminus" xMin="112" yMin="0" xMax="402" yMax="477">
      <contour>
        <pt x="112" y="0" on="1"/>
        <pt x="112" y="45" on="1"/>
        <pt x="402" y="45" on="1"/>
        <pt x="402" y="0" on="1"/>
      </contour>
      <contour>
        <pt x="234" y="166" on="1"/>
        <pt x="234" y="304" on="1"/>
        <pt x="112" y="304" on="1"/>
        <pt x="112" y="346" on="1"/>
        <pt x="234" y="346" on="1"/>
        <pt x="234" y="477" on="1"/>
        <pt x="280" y="477" on="1"/>
        <pt x="280" y="346" on="1"/>
        <pt x="402" y="346" on="1"/>
        <pt x="402" y="304" on="1"/>
        <pt x="280" y="304" on="1"/>
        <pt x="280" y="166" on="1"/>
      </contour>
    </TTGlyph>
    <TTGlyph name="product" xMin="81" yMin="-7" xMax="799" yMax="711">
      <contour>
        <pt x="440" y="-7" on="1"/>
        <pt x="288" y="-7" on="0"/>
        <pt x="81" y="200" on="0"/>
        <pt x="81" y="506" on="0"/>
        <pt x="288" y="711" on="0"/>
        <pt x="593" y="711" on="0"/>
        <pt x="799" y="506" on="0"/>
        <pt x="799" y="200" on="0"/>
        <pt x="592" y="-7" on="0"/>
      </contour>
      <contour>
        <pt x="441" y="40" on="1"/>
        <pt x="574" y="40" on="0"/>
        <pt x="748" y="219" on="0"/>
        <pt x="748" y="487" on="0"/>
        <pt x="575" y="665" on="0"/>
        <pt x="308" y="665" on="0"/>
        <pt x="134" y="487" on="0"/>
        <pt x="134" y="219" on="0"/>
        <pt x="308" y="40" on="0"/>
      </contour>
      <contour>
        <pt x="389" y="362" on="1"/>
        <pt x="479" y="362" on="1"/>
        <pt x="546" y="362" on="0"/>
        <pt x="546" y="428" on="1"/>
        <pt x="546" y="440" on="1"/>
        <pt x="546" y="519" on="0"/>
        <pt x="484" y="519" on="1"/>
        <pt x="389" y="519" on="1"/>
      </contour>
      <contour>
        <pt x="325" y="156" on="1"/>
        <pt x="325" y="563" on="1"/>
        <pt x="482" y="563" on="1"/>
        <pt x="607" y="563" on="0"/>
        <pt x="610" y="443" on="1"/>
        <pt x="610" y="437" on="1"/>
        <pt x="610" y="318" on="0"/>
        <pt x="476" y="318" on="1"/>
        <pt x="389" y="318" on="1"/>
        <pt x="389" y="156" on="1"/>
      </contour>
    </TTGlyph>
    <TTGlyph name="q" xMin="79" yMin="-199" xMax="487" yMax="522">
      <contour>
        <pt x="421" y="396" on="1"/>
        <pt x="421" y="424" on="0"/>
        <pt x="353" y="465" on="0"/>
        <pt x="223" y="465" on="0"/>
        <pt x="146" y="414" on="0"/>
        <pt x="146" y="363" on="1"/>
        <pt x="146" y="132" on="1"/>
        <pt x="146" y="47" on="0"/>
        <pt x="285" y="47" on="1"/>
        <pt x="336" y="47" on="0"/>
        <pt x="413" y="79" on="0"/>
        <pt x="420" y="93" on="1"/>
        <pt x="420" y="387" on="1"/>
      </contour>
      <contour>
        <pt x="420" y="-199" on="1"/>
        <pt x="420" y="27" on="1"/>
        <pt x="398" y="8" on="0"/>
        <pt x="322" y="-10" on="0"/>
        <pt x="291" y="-10" on="1"/>
        <pt x="195" y="-10" on="0"/>
        <pt x="79" y="74" on="0"/>
        <pt x="79" y="152" on="1"/>
        <pt x="79" y="349" on="1"/>
        <pt x="79" y="431" on="0"/>
        <pt x="177" y="522" on="0"/>
        <pt x="278" y="522" on="1"/>
        <pt x="317" y="522" on="0"/>
        <pt x="400" y="485" on="0"/>
        <pt x="405" y="467" on="1"/>
        <pt x="399" y="514" on="1"/>
        <pt x="487" y="514" on="1"/>
        <pt x="487" y="-199" on="1"/>
      </contour>
    </TTGlyph>
    <TTGlyph name="question" xMin="76" yMin="0" xMax="464" yMax="707">
      <contour>
        <pt x="174" y="0" on="1"/>
        <pt x="174" y="89" on="1"/>
        <pt x="260" y="89" on="1"/>
        <pt x="260" y="0" on="1"/>
      </contour>
      <contour>
        <pt x="464" y="502" on="0"/>
        <pt x="403" y="393" on="0"/>
        <pt x="341" y="318" on="1"/>
        <pt x="341" y="318" on="0"/>
        <pt x="253" y="210" on="1"/>
        <pt x="195" y="210" on="1"/>
        <pt x="315" y="385" on="1"/>
        <pt x="317" y="388" on="0"/>
        <pt x="337" y="417" on="0"/>
        <pt x="340" y="422" on="1"/>
        <pt x="352" y="440" on="1"/>
        <pt x="361" y="453" on="0"/>
        <pt x="367" y="465" on="0"/>
        <pt x="380" y="488" on="0"/>
        <pt x="385" y="504" on="0"/>
        <pt x="395" y="533" on="0"/>
        <pt x="395" y="552" on="1"/>
        <pt x="395" y="646" on="0"/>
        <pt x="273" y="646" on="1"/>
        <pt x="202" y="646" on="0"/>
        <pt x="141" y="595" on="0"/>
        <pt x="141" y="546" on="1"/>
        <pt x="141" y="530" on="1"/>
        <pt x="76" y="530" on="1"/>
        <pt x="76" y="551" on="1"/>
        <pt x="76" y="707" on="0"/>
        <pt x="273" y="707" on="1"/>
        <pt x="375" y="707" on="0"/>
        <pt x="464" y="621" on="0"/>
      </contour>
    </TTGlyph>
    <TTGlyph name="questiondown" xMin="65" yMin="-163" xMax="453" yMax="544">
      <component glyphName="question" x="529" y="544" scale="-1.0" flags="0x1004"/>
    </TTGlyph>
    <TTGlyph name="quotedbl" xMin="80" yMin="471" xMax="316" yMax="732">
      <contour>
        <pt x="248" y="471" on="1"/>
        <pt x="230" y="732" on="1"/>
        <pt x="316" y="732" on="1"/>
        <pt x="300" y="471" on="1"/>
      </contour>
      <contour>
        <pt x="91" y="471" on="1"/>
        <pt x="80" y="732" on="1"/>
        <pt x="166" y="732" on="1"/>
        <pt x="144" y="471" on="1"/>
      </contour>
    </TTGlyph>
    <TTGlyph name="quotedblbase" xMin="61" yMin="-150" xMax="345" yMax="101">
      <contour>
        <pt x="170" y="23" on="1"/>
        <pt x="170" y="-79" on="0"/>
        <pt x="93" y="-150" on="1"/>
        <pt x="61" y="-129" on="1"/>
        <pt x="75" y="-112" on="1"/>
        <pt x="91" y="-93" on="0"/>
        <pt x="112" y="-59" on="1"/>
        <pt x="125" y="-37" on="0"/>
        <pt x="125" y="0" on="1"/>
        <pt x="63" y="0" on="1"/>
        <pt x="63" y="101" on="1"/>
        <pt x="170" y="101" on="1"/>
      </contour>
      <contour>
        <pt x="345" y="23" on="1"/>
        <pt x="345" y="-80" on="0"/>
        <pt x="269" y="-150" on="1"/>
        <pt x="236" y="-129" on="1"/>
        <pt x="243" y="-122" on="0"/>
        <pt x="263" y="-97" on="1"/>
        <pt x="301" y="-50" on="0"/>
        <pt x="301" y="0" on="1"/>
        <pt x="301" y="0" on="0"/>
        <pt x="239" y="0" on="1"/>
        <pt x="239" y="101" on="1"/>
        <pt x="345" y="101" on="1"/>
      </contour>
    </TTGlyph>
    <TTGlyph name="quotedblleft" xMin="175" yMin="452" xMax="466" yMax="703">
      <contour>
        <pt x="357" y="529" on="1"/>
        <pt x="357" y="628" on="0"/>
        <pt x="435" y="703" on="1"/>
        <pt x="466" y="682" on="1"/>
        <pt x="454" y="668" on="1"/>
        <pt x="442" y="655" on="0"/>
        <pt x="436" y="646" on="0"/>
        <pt x="426" y="632" on="1"/>
        <pt x="402" y="596" on="0"/>
        <pt x="402" y="553" on="1"/>
        <pt x="464" y="553" on="1"/>
        <pt x="464" y="452" on="1"/>
        <pt x="357" y="452" on="1"/>
      </contour>
      <contour>
        <pt x="175" y="529" on="1"/>
        <pt x="175" y="629" on="0"/>
        <pt x="252" y="703" on="1"/>
        <pt x="284" y="682" on="1"/>
        <pt x="267" y="665" on="0"/>
        <pt x="252" y="642" on="1"/>
        <pt x="247" y="635" on="0"/>
        <pt x="220" y="590" on="0"/>
        <pt x="220" y="553" on="1"/>
        <pt x="281" y="553" on="1"/>
        <pt x="281" y="452" on="1"/>
        <pt x="175" y="452" on="1"/>
      </contour>
    </TTGlyph>
    <TTGlyph name="quotedblright" xMin="61" yMin="452" xMax="352" yMax="703">
      <contour>
        <pt x="352" y="625" on="1"/>
        <pt x="352" y="523" on="0"/>
        <pt x="275" y="452" on="1"/>
        <pt x="243" y="472" on="1"/>
        <pt x="244" y="474" on="0"/>
        <pt x="262" y="494" on="0"/>
        <pt x="269" y="503" on="0"/>
        <pt x="286" y="525" on="0"/>
        <pt x="294" y="542" on="0"/>
        <pt x="308" y="574" on="0"/>
        <pt x="308" y="602" on="1"/>
        <pt x="246" y="602" on="1"/>
        <pt x="246" y="703" on="1"/>
        <pt x="352" y="703" on="1"/>
      </contour>
      <contour>
        <pt x="170" y="625" on="1"/>
        <pt x="170" y="523" on="0"/>
        <pt x="93" y="452" on="1"/>
        <pt x="61" y="472" on="1"/>
        <pt x="63" y="474" on="0"/>
        <pt x="73" y="486" on="1"/>
        <pt x="125" y="548" on="0"/>
        <pt x="125" y="602" on="1"/>
        <pt x="125" y="602" on="0"/>
        <pt x="63" y="602" on="1"/>
        <pt x="63" y="703" on="1"/>
        <pt x="170" y="703" on="1"/>
      </contour>
    </TTGlyph>
    <TTGlyph name="quoteleft" xMin="163" yMin="455" xMax="272" yMax="707">
      <contour>
        <pt x="163" y="533" on="1"/>
        <pt x="163" y="633" on="0"/>
        <pt x="240" y="707" on="1"/>
        <pt x="272" y="686" on="1"/>
        <pt x="258" y="670" on="1"/>
        <pt x="242" y="650" on="0"/>
        <pt x="222" y="616" on="1"/>
        <pt x="208" y="594" on="0"/>
        <pt x="208" y="557" on="1"/>
        <pt x="270" y="557" on="1"/>
        <pt x="270" y="455" on="1"/>
        <pt x="163" y="455" on="1"/>
      </contour>
    </TTGlyph>
    <TTGlyph name="quoteright" xMin="73" yMin="455" xMax="182" yMax="706">
      <contour>
        <pt x="182" y="628" on="1"/>
        <pt x="182" y="530" on="0"/>
        <pt x="104" y="455" on="1"/>
        <pt x="73" y="476" on="1"/>
        <pt x="87" y="492" on="1"/>
        <pt x="103" y="512" on="0"/>
        <pt x="124" y="546" on="1"/>
        <pt x="137" y="568" on="0"/>
        <pt x="137" y="605" on="1"/>
        <pt x="75" y="605" on="1"/>
        <pt x="75" y="706" on="1"/>
        <pt x="182" y="706" on="1"/>
      </contour>
    </TTGlyph>
    <TTGlyph name="quotesinglbase" xMin="61" yMin="-150" xMax="170" yMax="101">
      <contour>
        <pt x="170" y="23" on="1"/>
        <pt x="170" y="-79" on="0"/>
        <pt x="93" y="-150" on="1"/>
        <pt x="61" y="-129" on="1"/>
        <pt x="75" y="-112" on="1"/>
        <pt x="91" y="-93" on="0"/>
        <pt x="112" y="-59" on="1"/>
        <pt x="125" y="-37" on="0"/>
        <pt x="125" y="0" on="1"/>
        <pt x="63" y="0" on="1"/>
        <pt x="63" y="101" on="1"/>
        <pt x="170" y="101" on="1"/>
      </contour>
    </TTGlyph>
    <TTGlyph name="quotesingle" xMin="64" yMin="471" xMax="150" yMax="732">
      <contour>
        <pt x="76" y="471" on="1"/>
        <pt x="64" y="732" on="1"/>
        <pt x="150" y="732" on="1"/>
        <pt x="128" y="471" on="1"/>
      </contour>
    </TTGlyph>
    <TTGlyph name="r" xMin="99" yMin="0" xMax="342" yMax="521">
      <contour>
        <pt x="166" y="353" on="1"/>
        <pt x="166" y="0" on="1"/>
        <pt x="99" y="0" on="1"/>
        <pt x="99" y="514" on="1"/>
        <pt x="166" y="514" on="1"/>
        <pt x="166" y="418" on="1"/>
        <pt x="197" y="516" on="0"/>
        <pt x="342" y="521" on="1"/>
        <pt x="339" y="462" on="1"/>
        <pt x="334" y="462" on="1"/>
        <pt x="264" y="462" on="0"/>
        <pt x="165" y="400" on="0"/>
        <pt x="165" y="359" on="1"/>
      </contour>
    </TTGlyph>
    <TTGlyph name="racute" xMin="99" yMin="0" xMax="365" yMax="774">
      <component glyphName="r" x="0" y="0" flags="0x1004"/>
      <component glyphName="acute" x="65" y="0" flags="0x1004"/>
    </TTGlyph>
    <TTGlyph name="radical" xMin="77" yMin="0" xMax="596" yMax="735">
      <contour>
        <pt x="77" y="195" on="1"/>
        <pt x="77" y="250" on="1"/>
        <pt x="181" y="250" on="1"/>
        <pt x="263" y="57" on="1"/>
        <pt x="547" y="735" on="1"/>
        <pt x="596" y="735" on="1"/>
        <pt x="290" y="0" on="1"/>
        <pt x="224" y="0" on="1"/>
        <pt x="135" y="195" on="1"/>
      </contour>
    </TTGlyph>
    <TTGlyph name="rcaron" xMin="90" yMin="0" xMax="343" yMax="701">
      <component glyphName="r" x="0" y="0" flags="0x1004"/>
      <component glyphName="caron" x="92" y="0" flags="0x1004"/>
    </TTGlyph>
    <TTGlyph name="registered" xMin="77" yMin="-7" xMax="796" yMax="711">
      <contour>
        <pt x="437" y="-7" on="1"/>
        <pt x="285" y="-7" on="0"/>
        <pt x="77" y="200" on="0"/>
        <pt x="77" y="505" on="0"/>
        <pt x="285" y="711" on="0"/>
        <pt x="590" y="711" on="0"/>
        <pt x="796" y="506" on="0"/>
        <pt x="796" y="200" on="0"/>
        <pt x="590" y="-7" on="0"/>
      </contour>
      <contour>
        <pt x="438" y="40" on="1"/>
        <pt x="571" y="40" on="0"/>
        <pt x="744" y="219" on="0"/>
        <pt x="744" y="487" on="0"/>
        <pt x="571" y="665" on="0"/>
        <pt x="305" y="665" on="0"/>
        <pt x="130" y="487" on="0"/>
        <pt x="130" y="219" on="0"/>
        <pt x="305" y="40" on="0"/>
      </contour>
      <contour>
        <pt x="356" y="362" on="1"/>
        <pt x="486" y="362" on="1"/>
        <pt x="553" y="362" on="0"/>
        <pt x="553" y="428" on="1"/>
        <pt x="553" y="440" on="1"/>
        <pt x="553" y="519" on="0"/>
        <pt x="491" y="519" on="1"/>
        <pt x="356" y="519" on="1"/>
      </contour>
      <contour>
        <pt x="292" y="156" on="1"/>
        <pt x="292" y="563" on="1"/>
        <pt x="489" y="563" on="1"/>
        <pt x="614" y="563" on="0"/>
        <pt x="617" y="443" on="1"/>
        <pt x="617" y="437" on="1"/>
        <pt x="617" y="345" on="0"/>
        <pt x="543" y="325" on="1"/>
        <pt x="633" y="156" on="1"/>
        <pt x="570" y="156" on="1"/>
        <pt x="482" y="318" on="1"/>
        <pt x="356" y="318" on="1"/>
        <pt x="356" y="156" on="1"/>
      </contour>
    </TTGlyph>
    <TTGlyph name="ring" xMin="29" yMin="558" xMax="197" yMax="711">
      <contour>
        <pt x="113" y="558" on="1"/>
        <pt x="81" y="558" on="0"/>
        <pt x="29" y="596" on="0"/>
        <pt x="29" y="672" on="0"/>
        <pt x="81" y="711" on="0"/>
        <pt x="145" y="711" on="0"/>
        <pt x="197" y="672" on="0"/>
        <pt x="197" y="596" on="0"/>
        <pt x="145" y="558" on="0"/>
      </contour>
      <contour>
        <pt x="113" y="582" on="1"/>
        <pt x="164" y="582" on="0"/>
        <pt x="164" y="634" on="1"/>
        <pt x="164" y="662" on="0"/>
        <pt x="135" y="687" on="0"/>
        <pt x="93" y="687" on="0"/>
        <pt x="62" y="662" on="0"/>
        <pt x="62" y="607" on="0"/>
        <pt x="92" y="582" on="0"/>
      </contour>
    </TTGlyph>
    <TTGlyph name="s" xMin="63" yMin="-10" xMax="403" yMax="522">
      <contour>
        <pt x="251" y="522" on="1"/>
        <pt x="339" y="522" on="0"/>
        <pt x="393" y="495" on="1"/>
        <pt x="375" y="444" on="1"/>
        <pt x="331" y="466" on="0"/>
        <pt x="194" y="466" on="0"/>
        <pt x="142" y="435" on="0"/>
        <pt x="142" y="361" on="0"/>
        <pt x="159" y="334" on="0"/>
        <pt x="190" y="322" on="1"/>
        <pt x="310" y="280" on="1"/>
        <pt x="372" y="258" on="0"/>
        <pt x="403" y="198" on="0"/>
        <pt x="403" y="132" on="1"/>
        <pt x="403" y="-10" on="0"/>
        <pt x="230" y="-10" on="1"/>
        <pt x="127" y="-10" on="0"/>
        <pt x="63" y="28" on="1"/>
        <pt x="83" y="81" on="1"/>
        <pt x="144" y="46" on="0"/>
        <pt x="290" y="46" on="0"/>
        <pt x="340" y="85" on="0"/>
        <pt x="340" y="167" on="0"/>
        <pt x="333" y="186" on="1"/>
        <pt x="328" y="199" on="0"/>
        <pt x="304" y="215" on="0"/>
        <pt x="282" y="223" on="1"/>
        <pt x="174" y="262" on="1"/>
        <pt x="117" y="282" on="0"/>
        <pt x="75" y="335" on="0"/>
        <pt x="75" y="457" on="0"/>
        <pt x="157" y="522" on="0"/>
      </contour>
    </TTGlyph>
    <TTGlyph name="sacute" xMin="63" yMin="-10" xMax="403" yMax="774">
      <component glyphName="s" x="0" y="0" flags="0x1004"/>
      <component glyphName="acute" x="89" y="0" flags="0x1004"/>
    </TTGlyph>
    <TTGlyph name="scaron" xMin="63" yMin="-10" xMax="403" yMax="701">
      <component glyphName="s" x="0" y="0" flags="0x1004"/>
      <component glyphName="caron" x="116" y="0" flags="0x1004"/>
    </TTGlyph>
    <TTGlyph name="scedilla" xMin="63" yMin="-230" xMax="403" yMax="522">
      <component glyphName="s" x="0" y="0" flags="0x1004"/>
      <component glyphName="cedilla" x="143" y="0" flags="0x1004"/>
    </TTGlyph>
    <TTGlyph name="scircumflex" xMin="63" yMin="-10" xMax="403" yMax="709">
      <component glyphName="s" x="0" y="0" flags="0x1004"/>
      <component glyphName="circumflex" x="116" y="0" flags="0x1004"/>
    </TTGlyph>
    <TTGlyph name="section" xMin="74" yMin="-11" xMax="430" yMax="713">
      <contour>
        <pt x="355" y="354" on="1"/>
        <pt x="355" y="402" on="0"/>
        <pt x="308" y="416" on="1"/>
        <pt x="157" y="464" on="1"/>
        <pt x="143" y="428" on="0"/>
        <pt x="143" y="394" on="1"/>
        <pt x="143" y="345" on="0"/>
        <pt x="177" y="332" on="1"/>
        <pt x="336" y="274" on="1"/>
        <pt x="355" y="329" on="0"/>
      </contour>
      <contour>
        <pt x="76" y="17" on="1"/>
        <pt x="76" y="17" on="0"/>
        <pt x="85" y="76" on="1"/>
        <pt x="86" y="76" on="0"/>
        <pt x="122" y="63" on="0"/>
        <pt x="188" y="44" on="0"/>
        <pt x="250" y="44" on="1"/>
        <pt x="322" y="44" on="0"/>
        <pt x="373" y="92" on="0"/>
        <pt x="373" y="177" on="0"/>
        <pt x="355" y="212" on="0"/>
        <pt x="315" y="226" on="1"/>
        <pt x="170" y="276" on="1"/>
        <pt x="83" y="307" on="0"/>
        <pt x="83" y="391" on="1"/>
        <pt x="83" y="426" on="0"/>
        <pt x="104" y="486" on="1"/>
        <pt x="74" y="512" on="0"/>
        <pt x="74" y="571" on="1"/>
        <pt x="74" y="713" on="0"/>
        <pt x="258" y="713" on="1"/>
        <pt x="328" y="713" on="0"/>
        <pt x="412" y="692" on="1"/>
        <pt x="401" y="632" on="1"/>
        <pt x="316" y="658" on="0"/>
        <pt x="253" y="658" on="1"/>
        <pt x="141" y="658" on="0"/>
        <pt x="141" y="572" on="1"/>
        <pt x="141" y="546" on="0"/>
        <pt x="158" y="524" on="0"/>
        <pt x="189" y="513" on="1"/>
        <pt x="313" y="473" on="1"/>
        <pt x="413" y="439" on="0"/>
        <pt x="413" y="357" on="1"/>
        <pt x="413" y="328" on="0"/>
        <pt x="390" y="238" on="1"/>
        <pt x="406" y="223" on="0"/>
        <pt x="430" y="160" on="0"/>
        <pt x="430" y="126" on="1"/>
        <pt x="430" y="68" on="0"/>
        <pt x="351" y="-11" on="0"/>
        <pt x="153" y="-11" on="0"/>
      </contour>
    </TTGlyph>
    <TTGlyph name="semicolon" xMin="134" yMin="-44" xMax="257" yMax="495">
      <component glyphName="period" x="47" y="389" flags="0x1004"/>
      <component glyphName="comma" x="52" y="106" flags="0x1004"/>
    </TTGlyph>
    <TTGlyph name="seven" xMin="82" yMin="0" xMax="478" yMax="697">
      <contour>
        <pt x="478" y="697" on="1"/>
        <pt x="478" y="635" on="1"/>
        <pt x="257" y="0" on="1"/>
        <pt x="185" y="0" on="1"/>
        <pt x="416" y="644" on="1"/>
        <pt x="82" y="644" on="1"/>
        <pt x="82" y="697" on="1"/>
      </contour>
    </TTGlyph>
    <TTGlyph name="six" xMin="71" yMin="-10" xMax="506" yMax="697">
      <contour>
        <pt x="285" y="49" on="1"/>
        <pt x="370" y="49" on="0"/>
        <pt x="440" y="119" on="0"/>
        <pt x="440" y="273" on="0"/>
        <pt x="366" y="346" on="0"/>
        <pt x="209" y="346" on="0"/>
        <pt x="136" y="274" on="0"/>
        <pt x="136" y="119" on="0"/>
        <pt x="203" y="49" on="0"/>
      </contour>
      <contour>
        <pt x="285" y="-10" on="1"/>
        <pt x="175" y="-10" on="0"/>
        <pt x="71" y="90" on="0"/>
        <pt x="71" y="295" on="0"/>
        <pt x="142" y="418" on="1"/>
        <pt x="304" y="697" on="1"/>
        <pt x="382" y="697" on="1"/>
        <pt x="194" y="382" on="1"/>
        <pt x="230" y="401" on="0"/>
        <pt x="288" y="401" on="1"/>
        <pt x="397" y="401" on="0"/>
        <pt x="506" y="302" on="0"/>
        <pt x="506" y="90" on="0"/>
        <pt x="399" y="-10" on="0"/>
      </contour>
    </TTGlyph>
    <TTGlyph name="slash" xMin="19" yMin="0" xMax="281" yMax="732">
      <contour>
        <pt x="19" y="0" on="1"/>
        <pt x="209" y="732" on="1"/>
        <pt x="281" y="732" on="1"/>
        <pt x="94" y="0" on="1"/>
      </contour>
    </TTGlyph>
    <TTGlyph name="sterling" xMin="90" yMin="0" xMax="513" yMax="715">
      <contour>
        <pt x="513" y="0" on="1"/>
        <pt x="144" y="0" on="1"/>
        <pt x="177" y="340" on="1"/>
        <pt x="90" y="340" on="1"/>
        <pt x="90" y="394" on="1"/>
        <pt x="183" y="394" on="1"/>
        <pt x="202" y="568" on="1"/>
        <pt x="209" y="624" on="0"/>
        <pt x="297" y="715" on="0"/>
        <pt x="422" y="715" on="0"/>
        <pt x="510" y="678" on="1"/>
        <pt x="489" y="628" on="1"/>
        <pt x="490" y="629" on="0"/>
        <pt x="472" y="637" on="1"/>
        <pt x="418" y="662" on="0"/>
        <pt x="369" y="662" on="1"/>
        <pt x="277" y="662" on="0"/>
        <pt x="265" y="557" on="1"/>
        <pt x="247" y="394" on="1"/>
        <pt x="485" y="394" on="1"/>
        <pt x="485" y="340" on="1"/>
        <pt x="240" y="340" on="1"/>
        <pt x="210" y="61" on="1"/>
        <pt x="513" y="61" on="1"/>
      </contour>
    </TTGlyph>
    <TTGlyph name="summation" xMin="50" yMin="0" xMax="523" yMax="697">
      <contour>
        <pt x="523" y="0" on="1"/>
        <pt x="50" y="0" on="1"/>
        <pt x="50" y="52" on="1"/>
        <pt x="292" y="372" on="1"/>
        <pt x="50" y="650" on="1"/>
        <pt x="50" y="697" on="1"/>
        <pt x="523" y="697" on="1"/>
        <pt x="523" y="640" on="1"/>
        <pt x="110" y="640" on="1"/>
        <pt x="342" y="391" on="1"/>
        <pt x="342" y="366" on="1"/>
        <pt x="117" y="59" on="1"/>
        <pt x="523" y="59" on="1"/>
      </contour>
    </TTGlyph>
    <TTGlyph name="t" xMin="48" yMin="-3" xMax="354" yMax="668">
      <contour>
        <pt x="338" y="-3" on="1"/>
        <pt x="237" y="-3" on="0"/>
        <pt x="136" y="63" on="0"/>
        <pt x="136" y="137" on="1"/>
        <pt x="136" y="459" on="1"/>
        <pt x="48" y="459" on="1"/>
        <pt x="48" y="514" on="1"/>
        <pt x="140" y="514" on="1"/>
        <pt x="150" y="668" on="1"/>
        <pt x="204" y="668" on="1"/>
        <pt x="204" y="514" on="1"/>
        <pt x="336" y="514" on="1"/>
        <pt x="336" y="459" on="1"/>
        <pt x="204" y="459" on="1"/>
        <pt x="204" y="141" on="1"/>
        <pt x="204" y="90" on="0"/>
        <pt x="269" y="51" on="0"/>
        <pt x="347" y="51" on="1"/>
        <pt x="354" y="51" on="1"/>
        <pt x="348" y="-3" on="1"/>
      </contour>
    </TTGlyph>
    <TTGlyph name="tbar" xMin="48" yMin="-3" xMax="354" yMax="668">
      <contour>
        <pt x="338" y="-3" on="1"/>
        <pt x="237" y="-3" on="0"/>
        <pt x="136" y="63" on="0"/>
        <pt x="136" y="137" on="1"/>
        <pt x="136" y="285" on="1"/>
        <pt x="70" y="285" on="1"/>
        <pt x="70" y="339" on="1"/>
        <pt x="136" y="339" on="1"/>
        <pt x="136" y="459" on="1"/>
        <pt x="48" y="459" on="1"/>
        <pt x="48" y="514" on="1"/>
        <pt x="140" y="514" on="1"/>
        <pt x="150" y="668" on="1"/>
        <pt x="204" y="668" on="1"/>
        <pt x="204" y="514" on="1"/>
        <pt x="336" y="514" on="1"/>
        <pt x="336" y="459" on="1"/>
        <pt x="204" y="459" on="1"/>
        <pt x="204" y="339" on="1"/>
        <pt x="307" y="339" on="1"/>
        <pt x="307" y="285" on="1"/>
        <pt x="204" y="285" on="1"/>
        <pt x="204" y="141" on="1"/>
        <pt x="204" y="90" on="0"/>
        <pt x="269" y="51" on="0"/>
        <pt x="347" y="51" on="1"/>
        <pt x="354" y="51" on="1"/>
        <pt x="348" y="-3" on="1"/>
      </contour>
    </TTGlyph>
    <TTGlyph name="tcaron" xMin="48" yMin="-3" xMax="368" yMax="856">
      <component glyphName="t" x="0" y="0" flags="0x1004"/>
      <component glyphName="caron.alt" x="-56" y="0" flags="0x1004"/>
    </TTGlyph>
    <TTGlyph name="thorn" xMin="92" yMin="-199" xMax="499" yMax="732">
      <contour>
        <pt x="291" y="43" on="1"/>
        <pt x="352" y="43" on="0"/>
        <pt x="432" y="108" on="0"/>
        <pt x="432" y="159" on="1"/>
        <pt x="432" y="358" on="1"/>
        <pt x="432" y="407" on="0"/>
        <pt x="353" y="464" on="0"/>
        <pt x="294" y="464" on="1"/>
        <pt x="259" y="464" on="0"/>
        <pt x="193" y="434" on="0"/>
        <pt x="162" y="405" on="0"/>
        <pt x="159" y="397" on="1"/>
        <pt x="159" y="78" on="1"/>
        <pt x="220" y="43" on="0"/>
      </contour>
      <contour>
        <pt x="159" y="-199" on="1"/>
        <pt x="92" y="-199" on="1"/>
        <pt x="94" y="732" on="1"/>
        <pt x="159" y="732" on="1"/>
        <pt x="159" y="473" on="1"/>
        <pt x="182" y="493" on="0"/>
        <pt x="262" y="520" on="0"/>
        <pt x="304" y="520" on="1"/>
        <pt x="401" y="520" on="0"/>
        <pt x="499" y="428" on="0"/>
        <pt x="499" y="350" on="1"/>
        <pt x="499" y="173" on="1"/>
        <pt x="499" y="88" on="0"/>
        <pt x="389" y="-12" on="0"/>
        <pt x="216" y="-12" on="0"/>
        <pt x="159" y="21" on="1"/>
      </contour>
    </TTGlyph>
    <TTGlyph name="three" xMin="74" yMin="-10" xMax="498" yMax="708">
      <contour>
        <pt x="302" y="-10" on="1"/>
        <pt x="175" y="-10" on="0"/>
        <pt x="84" y="75" on="0"/>
        <pt x="74" y="209" on="1"/>
        <pt x="142" y="209" on="1"/>
        <pt x="144" y="153" on="0"/>
        <pt x="162" y="89" on="0"/>
        <pt x="207" y="58" on="0"/>
        <pt x="255" y="51" on="0"/>
        <pt x="302" y="51" on="1"/>
        <pt x="372" y="51" on="0"/>
        <pt x="429" y="117" on="0"/>
        <pt x="429" y="236" on="0"/>
        <pt x="419" y="290" on="0"/>
        <pt x="379" y="329" on="0"/>
        <pt x="309" y="341" on="0"/>
        <pt x="246" y="341" on="1"/>
        <pt x="246" y="399" on="1"/>
        <pt x="332" y="399" on="0"/>
        <pt x="372" y="416" on="1"/>
        <pt x="390" y="424" on="0"/>
        <pt x="407" y="456" on="0"/>
        <pt x="411" y="485" on="0"/>
        <pt x="411" y="512" on="1"/>
        <pt x="411" y="532" on="1"/>
        <pt x="411" y="591" on="0"/>
        <pt x="364" y="646" on="0"/>
        <pt x="294" y="646" on="1"/>
        <pt x="290" y="646" on="1"/>
        <pt x="254" y="646" on="0"/>
        <pt x="237" y="644" on="1"/>
        <pt x="184" y="640" on="0"/>
        <pt x="170" y="614" on="1"/>
        <pt x="148" y="574" on="0"/>
        <pt x="148" y="498" on="1"/>
        <pt x="80" y="498" on="1"/>
        <pt x="80" y="608" on="0"/>
        <pt x="120" y="658" on="1"/>
        <pt x="137" y="680" on="0"/>
        <pt x="199" y="703" on="0"/>
        <pt x="251" y="708" on="0"/>
        <pt x="294" y="708" on="1"/>
        <pt x="380" y="708" on="0"/>
        <pt x="479" y="630" on="0"/>
        <pt x="479" y="530" on="1"/>
        <pt x="479" y="454" on="0"/>
        <pt x="431" y="381" on="0"/>
        <pt x="367" y="372" on="1"/>
        <pt x="436" y="361" on="0"/>
        <pt x="498" y="283" on="0"/>
        <pt x="498" y="186" on="1"/>
        <pt x="498" y="-10" on="0"/>
      </contour>
    </TTGlyph>
    <TTGlyph name="threequarters" xMin="94" yMin="0" xMax="818" yMax="745">
      <contour>
        <pt x="260" y="0" on="1"/>
        <pt x="614" y="697" on="1"/>
        <pt x="654" y="697" on="1"/>
        <pt x="302" y="0" on="1"/>
      </contour>
      <contour>
        <pt x="713" y="0" on="1"/>
        <pt x="713" y="100" on="1"/>
        <pt x="521" y="100" on="1"/>
        <pt x="521" y="125" on="1"/>
        <pt x="651" y="382" on="1"/>
        <pt x="694" y="382" on="1"/>
        <pt x="572" y="133" on="1"/>
        <pt x="713" y="133" on="1"/>
        <pt x="713" y="236" on="1"/>
        <pt x="755" y="236" on="1"/>
        <pt x="755" y="133" on="1"/>
        <pt x="818" y="133" on="1"/>
        <pt x="818" y="100" on="1"/>
        <pt x="755" y="100" on="1"/>
        <pt x="755" y="0" on="1"/>
      </contour>
      <contour>
        <pt x="231" y="382" on="1"/>
        <pt x="161" y="382" on="0"/>
        <pt x="104" y="434" on="0"/>
        <pt x="94" y="501" on="1"/>
        <pt x="135" y="501" on="1"/>
        <pt x="140" y="450" on="0"/>
        <pt x="181" y="417" on="0"/>
        <pt x="231" y="417" on="1"/>
        <pt x="320" y="417" on="0"/>
        <pt x="320" y="480" on="1"/>
        <pt x="320" y="529" on="0"/>
        <pt x="274" y="562" on="0"/>
        <pt x="202" y="562" on="1"/>
        <pt x="202" y="594" on="1"/>
        <pt x="268" y="594" on="0"/>
        <pt x="303" y="621" on="0"/>
        <pt x="303" y="658" on="1"/>
        <pt x="303" y="711" on="0"/>
        <pt x="231" y="711" on="1"/>
        <pt x="182" y="711" on="0"/>
        <pt x="140" y="685" on="0"/>
        <pt x="137" y="640" on="1"/>
        <pt x="98" y="640" on="1"/>
        <pt x="100" y="707" on="0"/>
        <pt x="162" y="745" on="0"/>
        <pt x="281" y="745" on="0"/>
        <pt x="352" y="703" on="0"/>
        <pt x="352" y="656" on="1"/>
        <pt x="352" y="584" on="0"/>
        <pt x="285" y="577" on="1"/>
        <pt x="308" y="573" on="0"/>
        <pt x="339" y="560" on="0"/>
        <pt x="365" y="517" on="0"/>
        <pt x="365" y="434" on="0"/>
        <pt x="287" y="382" on="0"/>
      </contour>
    </TTGlyph>
    <TTGlyph name="tilde" xMin="-47" yMin="592" xMax="224" yMax="693">
      <contour>
        <pt x="143" y="693" on="1"/>
        <pt x="224" y="693" on="0"/>
        <pt x="224" y="598" on="1"/>
        <pt x="183" y="598" on="1"/>
        <pt x="183" y="619" on="0"/>
        <pt x="165" y="646" on="0"/>
        <pt x="151" y="646" on="1"/>
        <pt x="145" y="646" on="1"/>
        <pt x="136" y="644" on="0"/>
        <pt x="105" y="616" on="0"/>
        <pt x="62" y="592" on="0"/>
        <pt x="-7" y="592" on="0"/>
        <pt x="-47" y="635" on="0"/>
        <pt x="-47" y="688" on="1"/>
        <pt x="-6" y="688" on="1"/>
        <pt x="-6" y="666" on="0"/>
        <pt x="12" y="640" on="0"/>
        <pt x="41" y="640" on="0"/>
        <pt x="107" y="693" on="0"/>
      </contour>
    </TTGlyph>
    <TTGlyph name="trademark" xMin="65" yMin="374" xMax="780" yMax="706">
      <contour>
        <pt x="177" y="374" on="1"/>
        <pt x="177" y="659" on="1"/>
        <pt x="65" y="659" on="1"/>
        <pt x="65" y="706" on="1"/>
        <pt x="338" y="706" on="1"/>
        <pt x="338" y="659" on="1"/>
        <pt x="226" y="659" on="1"/>
        <pt x="226" y="374" on="1"/>
      </contour>
      <contour>
        <pt x="418" y="374" on="1"/>
        <pt x="418" y="706" on="1"/>
        <pt x="509" y="706" on="1"/>
        <pt x="599" y="484" on="1"/>
        <pt x="690" y="706" on="1"/>
        <pt x="780" y="706" on="1"/>
        <pt x="780" y="374" on="1"/>
        <pt x="729" y="374" on="1"/>
        <pt x="729" y="675" on="1"/>
        <pt x="640" y="455" on="1"/>
        <pt x="561" y="455" on="1"/>
        <pt x="468" y="675" on="1"/>
        <pt x="468" y="374" on="1"/>
      </contour>
    </TTGlyph>
    <TTGlyph name="two" xMin="58" yMin="0" xMax="500" yMax="708">
      <contour>
        <pt x="497" y="0" on="1"/>
        <pt x="88" y="0" on="1"/>
        <pt x="84" y="61" on="1"/>
        <pt x="320" y="322" on="1"/>
        <pt x="328" y="331" on="0"/>
        <pt x="372" y="378" on="0"/>
        <pt x="382" y="391" on="0"/>
        <pt x="411" y="426" on="0"/>
        <pt x="417" y="441" on="0"/>
        <pt x="433" y="478" on="0"/>
        <pt x="433" y="516" on="1"/>
        <pt x="433" y="586" on="0"/>
        <pt x="366" y="646" on="0"/>
        <pt x="195" y="646" on="0"/>
        <pt x="125" y="589" on="0"/>
        <pt x="125" y="509" on="1"/>
        <pt x="58" y="509" on="1"/>
        <pt x="58" y="617" on="0"/>
        <pt x="168" y="708" on="0"/>
        <pt x="405" y="708" on="0"/>
        <pt x="500" y="606" on="0"/>
        <pt x="500" y="517" on="1"/>
        <pt x="500" y="473" on="0"/>
        <pt x="484" y="425" on="1"/>
        <pt x="469" y="383" on="0"/>
        <pt x="380" y="294" on="1"/>
        <pt x="165" y="57" on="1"/>
        <pt x="497" y="57" on="1"/>
      </contour>
    </TTGlyph>
    <TTGlyph name="u" xMin="88" yMin="-10" xMax="487" yMax="514">
      <contour>
        <pt x="487" y="514" on="1"/>
        <pt x="487" y="6" on="1"/>
        <pt x="429" y="6" on="1"/>
        <pt x="419" y="59" on="1"/>
        <pt x="372" y="-10" on="0"/>
        <pt x="262" y="-10" on="1"/>
        <pt x="88" y="-10" on="0"/>
        <pt x="88" y="131" on="1"/>
        <pt x="88" y="514" on="1"/>
        <pt x="155" y="514" on="1"/>
        <pt x="155" y="127" on="1"/>
        <pt x="155" y="43" on="0"/>
        <pt x="262" y="43" on="1"/>
        <pt x="341" y="43" on="0"/>
        <pt x="419" y="95" on="0"/>
        <pt x="419" y="135" on="1"/>
        <pt x="419" y="514" on="1"/>
      </contour>
    </TTGlyph>
    <TTGlyph name="uacute" xMin="88" yMin="-10" xMax="487" yMax="774">
      <component glyphName="u" x="0" y="0" flags="0x1004"/>
      <component glyphName="acute" x="149" y="0" flags="0x1004"/>
    </TTGlyph>
    <TTGlyph name="ubreve" xMin="88" yMin="-10" xMax="487" yMax="663">
      <component glyphName="u" x="0" y="0" flags="0x1004"/>
      <component glyphName="breve" x="167" y="0" flags="0x1004"/>
    </TTGlyph>
    <TTGlyph name="ucircumflex" xMin="88" yMin="-10" xMax="487" yMax="709">
      <component glyphName="u" x="0" y="0" flags="0x1004"/>
      <component glyphName="circumflex" x="176" y="0" flags="0x1004"/>
    </TTGlyph>
    <TTGlyph name="udieresis" xMin="88" yMin="-10" xMax="487" yMax="670">
      <component glyphName="u" x="0" y="0" flags="0x1004"/>
      <component glyphName="dieresis" x="42" y="0" flags="0x1004"/>
    </TTGlyph>
    <TTGlyph name="ugrave" xMin="88" yMin="-10" xMax="487" yMax="774">
      <component glyphName="u" x="0" y="0" flags="0x1004"/>
      <component glyphName="grave" x="149" y="0" flags="0x1004"/>
    </TTGlyph>
    <TTGlyph name="uhungarumlaut" xMin="88" yMin="-10" xMax="536" yMax="784">
      <component glyphName="u" x="0" y="0" flags="0x1004"/>
      <component glyphName="hungarumlaut" x="75" y="0" flags="0x1004"/>
    </TTGlyph>
    <TTGlyph name="umacron" xMin="88" yMin="-10" xMax="487" yMax="672">
      <component glyphName="u" x="0" y="0" flags="0x1004"/>
      <component glyphName="macron" x="172" y="0" flags="0x1004"/>
    </TTGlyph>
    <TTGlyph name="underscore" xMin="9" yMin="-72" xMax="454" yMax="-6">
      <contour>
        <pt x="9" y="-72" on="1"/>
        <pt x="9" y="-6" on="1"/>
        <pt x="454" y="-6" on="1"/>
        <pt x="454" y="-72" on="1"/>
      </contour>
    </TTGlyph>
    <TTGlyph name="uni00AD" xMin="96" yMin="254" xMax="396" yMax="304">
      <contour>
        <pt x="96" y="254" on="1"/>
        <pt x="96" y="304" on="1"/>
        <pt x="396" y="304" on="1"/>
        <pt x="396" y="254" on="1"/>
      </contour>
    </TTGlyph>
    <TTGlyph name="uni00B2" xMin="104" yMin="372" xMax="359" yMax="774">
      <contour>
        <pt x="113" y="372" on="1"/>
        <pt x="113" y="403" on="1"/>
        <pt x="262" y="553" on="1"/>
        <pt x="295" y="586" on="0"/>
        <pt x="314" y="626" on="0"/>
        <pt x="314" y="658" on="1"/>
        <pt x="314" y="735" on="0"/>
        <pt x="243" y="735" on="1"/>
        <pt x="196" y="735" on="0"/>
        <pt x="152" y="710" on="0"/>
        <pt x="152" y="664" on="1"/>
        <pt x="104" y="664" on="1"/>
        <pt x="104" y="723" on="0"/>
        <pt x="166" y="774" on="0"/>
        <pt x="242" y="774" on="1"/>
        <pt x="359" y="774" on="0"/>
        <pt x="359" y="658" on="1"/>
        <pt x="359" y="616" on="0"/>
        <pt x="325" y="557" on="0"/>
        <pt x="290" y="522" on="1"/>
        <pt x="175" y="409" on="1"/>
        <pt x="359" y="409" on="1"/>
        <pt x="359" y="372" on="1"/>
      </contour>
    </TTGlyph>
</ttFont>
